<?xml version="1.0" standalone="no"?>
<!DOCTYPE svg PUBLIC "-//W3C//DTD SVG 1.1//EN" "http://www.w3.org/Graphics/SVG/1.1/DTD/svg11.dtd" >
<svg xmlns="http://www.w3.org/2000/svg">
<metadata></metadata>
<defs>
<font id="didddregular" horiz-adv-x="569" >
<font-face units-per-em="2048" ascent="1638" descent="-410" />
<missing-glyph horiz-adv-x="500" />
<glyph horiz-adv-x="0" />
<glyph unicode="&#xd;" />
<glyph horiz-adv-x="0" />
<glyph unicode="&#x9;" />
<glyph horiz-adv-x="0" />
<glyph unicode=" " />
<glyph unicode="!" horiz-adv-x="643" d="M213 86q0 44 32.5 76.5t76.5 32.5t76 -32.5t32 -76.5t-32 -76.5t-76 -32.5t-76.5 32.5t-32.5 76.5zM223 1399q0 42 27.5 69t71.5 27t71 -27t27 -69q0 -17 -14 -189l-64 -845h-41l-63 845q-15 184 -15 189z" />
<glyph unicode="&#x22;" horiz-adv-x="909" d="M274 1384v33q0 78 52 78q29 0 40 -19.5t11 -58.5v-33q0 -20 -2 -30l-31 -451h-37l-31 451q-2 10 -2 30zM532 1384v33q0 78 52 78q29 0 40 -19.5t11 -58.5v-33q0 -20 -2 -30l-31 -451h-37l-30 451q-3 15 -3 30z" />
<glyph unicode="#" horiz-adv-x="1138" d="M-8 485l14 37h273l147 406h-272l14 37h272l178 493h44l-179 -493h346l179 493h43l-179 -493h273l-15 -37h-272l-147 -406h272l-14 -37h-273l-176 -485h-43l176 485h-346l-176 -485h-43l176 485h-272zM322 522h346l147 406h-346z" />
<glyph unicode="$" horiz-adv-x="1366" d="M154 0v440h22q18 -86 46 -154.5t58.5 -114t69.5 -78.5t73.5 -50.5t78 -27.5t74 -12.5t69.5 -2.5v666l-119 34q-170 50 -253 137t-83 224q0 186 126 307t323 121h6v125h29v-125q70 -4 126.5 -24.5t94.5 -38t66 -17.5q26 0 34.5 6.5t26.5 36.5h29v-369h-25 q-13 73 -39.5 135.5t-68.5 116t-104.5 86.5t-139.5 39v-579l170 -50q28 -8 44.5 -13.5t57.5 -23t68.5 -35t64.5 -49t59.5 -66t39 -84.5t16.5 -107q0 -95 -36 -181.5t-101 -153.5t-164.5 -107t-218.5 -40v-143h-29v143q-116 0 -229 31q-14 4 -54 17.5t-67.5 20.5t-48.5 7 q-29 0 -41.5 -10.5t-20.5 -36.5h-30zM301 1182q0 -62 24.5 -110t71 -80t91.5 -51.5t108 -37.5l49 -14v571h-6q-43 0 -86.5 -8t-89.5 -28.5t-81.5 -50.5t-58 -79.5t-22.5 -111.5zM674 0q82 0 147.5 22t104.5 55.5t65 79t35.5 88t9.5 85.5q0 224 -256 297l-106 30v-657z" />
<glyph unicode="%" horiz-adv-x="1593" d="M104 1153q0 68 33.5 132t84.5 107.5t110.5 70t111.5 26.5q78 0 157.5 -45t133 -125t53.5 -170q0 -85 -50.5 -164t-128 -125.5t-154.5 -46.5q-93 0 -175 50t-129 128t-47 162zM248 1163q0 -174 47.5 -247.5t153.5 -73.5q104 0 150 74.5t46 252.5q0 155 -52 223t-153 68 q-192 0 -192 -297zM389 -10l778 1499l37 -19l-778 -1499zM805 311q0 68 33.5 132t84.5 107.5t110.5 70t111.5 26.5q78 0 157.5 -45t133 -125t53.5 -170q0 -85 -51 -164t-128.5 -125.5t-154.5 -46.5q-141 0 -245.5 105.5t-104.5 234.5zM948 322q0 -174 47.5 -248t153.5 -74 q104 0 150.5 75t46.5 253q0 155 -52 222.5t-153 67.5q-58 0 -98 -27t-59.5 -73t-27.5 -93t-8 -103z" />
<glyph unicode="&#x26;" horiz-adv-x="1593" d="M154 426q0 59 14 113t34 95t55 82.5t64.5 69t76.5 59.5t76 50t77 45q-68 129 -68 252q0 132 85 214.5t194 82.5q82 0 134 -51.5t52 -151.5q0 -58 -18 -106t-52 -83t-63.5 -56.5t-71.5 -45.5l357 -680q102 170 102 396q0 67 -3.5 113t-13.5 80t-23 53t-37 30.5t-50.5 15 t-68.5 3.5v28h389v-28q-53 0 -85.5 -13.5t-50 -47t-23 -77t-5.5 -116.5q0 -157 -28 -257.5t-89 -209.5q33 -61 50.5 -90t42.5 -62.5t47.5 -46t48.5 -12.5q100 0 100 194h29q0 -81 -22 -141.5t-58 -93t-75.5 -47.5t-82.5 -15t-73 8t-55.5 31.5t-42 45.5t-46.5 69 q-61 -61 -157 -107.5t-208 -46.5q-99 0 -180 33t-131 83.5t-84.5 113.5t-48.5 119.5t-14 105.5zM330 598q0 -91 33 -193.5t85 -185.5t120.5 -137.5t133.5 -54.5q129 0 261 125l-400 766q-115 -60 -174 -134t-59 -186zM637 1294q0 -82 96 -274q36 21 56 34.5t48.5 38.5 t44 49.5t27 61.5t11.5 80q0 76 -36.5 126t-113.5 50q-55 0 -94 -47.5t-39 -118.5z" />
<glyph unicode="'" d="M233 1384v33q0 78 52 78q29 0 40 -19.5t11 -58.5v-33q0 -20 -2 -30l-31 -451h-37l-30 451q-3 15 -3 30z" />
<glyph unicode="(" d="M162 442q0 167 30.5 330.5t70 274.5t91 212t79 143t48.5 68l33 -20q-165 -239 -238 -487t-73 -521t73 -520.5t238 -486.5l-33 -21q-21 26 -48.5 68t-79 143t-91 212t-70 274.5t-30.5 330.5z" />
<glyph unicode=")" d="M55 -565q165 240 238.5 487t73.5 520t-73.5 520.5t-238.5 487.5l33 20q21 -26 48.5 -68t79 -143t91.5 -212t70.5 -274.5t30.5 -330.5t-30.5 -330.5t-70.5 -274.5t-91.5 -212t-79 -143t-48.5 -68z" />
<glyph unicode="*" horiz-adv-x="909" d="M88 1247q0 34 23 60t63 26q29 0 54 -21t45 -51.5t66.5 -77t106.5 -85.5q-3 69 -16.5 125.5t-27 85t-24.5 55t-11 43.5q0 34 22.5 61t65.5 27t65.5 -27t22.5 -61q0 -17 -11 -43.5t-25 -55t-27.5 -85t-16.5 -125.5q60 39 106.5 85.5t66.5 77t45 51.5t54 21q40 0 63 -26 t23 -60q0 -49 -43 -73q-11 -6 -38 -9.5t-59.5 -7.5t-90.5 -22.5t-123 -49.5q83 -40 152.5 -57.5t108 -21t50.5 -9.5q43 -24 43 -73q0 -34 -23 -60t-63 -26q-29 0 -54 21t-45 51.5t-66.5 77t-106.5 85.5q3 -69 17 -125.5t28 -85t25.5 -55t11.5 -43.5q0 -34 -22.5 -61 t-65.5 -27t-65.5 27t-22.5 61q0 17 11 43.5t25 55t27.5 85t16.5 125.5q-60 -39 -106.5 -85.5t-67 -77t-45.5 -51.5t-54 -21q-40 0 -63 26t-23 60q0 49 43 73q11 6 49 9t108 20.5t154 58.5q-85 40 -155.5 57t-107.5 20.5t-50 11.5q-43 24 -43 73z" />
<glyph unicode="+" horiz-adv-x="1214" d="M115 473v37h471v473h41v-473h471v-37h-471v-473h-41v473h-471z" />
<glyph unicode="," d="M137 88q0 48 36 82.5t89 34.5q76 0 123 -63.5t47 -147.5q0 -76 -42 -155.5t-91.5 -130.5t-97.5 -83l-19 25q107 77 150 148t43 124q0 67 -37 107q-34 -52 -88 -52q-42 0 -77.5 30.5t-35.5 80.5z" />
<glyph unicode="-" horiz-adv-x="757" d="M188 379v135h381v-135h-381z" />
<glyph unicode="." d="M176 86q0 44 32.5 76.5t76.5 32.5t76 -32.5t32 -76.5t-32 -76.5t-76 -32.5t-76.5 32.5t-32.5 76.5z" />
<glyph unicode="/" horiz-adv-x="606" d="M6 0l553 1470l41 -12l-553 -1470z" />
<glyph unicode="0" horiz-adv-x="1064" d="M53 731q0 108 11.5 206.5t44.5 202t84.5 178.5t138.5 123t200 48q82 0 150.5 -25t117 -67t86.5 -102.5t61 -126.5t38 -143t21 -148t6 -146q0 -76 -6 -147.5t-21 -149t-38 -143.5t-61 -126t-86.5 -102t-117 -67t-150.5 -25t-150 25t-117 67t-86.5 102.5t-61 126t-38.5 143 t-20.5 149t-5.5 147.5zM258 731q0 -133 4.5 -231t16 -183.5t31.5 -142t50.5 -97.5t72.5 -59t99 -18t99.5 18t73 59t50.5 97.5t31.5 142t16 183.5t4.5 231t-4.5 230.5t-16 183t-31.5 141.5t-50.5 97t-73 59t-99.5 18t-99 -18t-72.5 -59t-50.5 -97t-31.5 -141.5t-16 -183 t-4.5 -230.5z" />
<glyph unicode="1" horiz-adv-x="1064" d="M162 1176q165 92 265 158t189 155h41v-1460h228v-29h-631v29h227v1298q-51 -36 -69 -45l-234 -133z" />
<glyph unicode="2" horiz-adv-x="1064" d="M25 0v29q182 153 286 252t205 221q227 275 227 585q0 187 -63.5 280t-196.5 93q-106 0 -172.5 -47t-66.5 -127q0 -19 13 -58.5t13 -60.5q0 -33 -23.5 -51t-58.5 -18q-104 0 -104 104q0 111 117.5 199t281.5 88q114 0 203 -34t142.5 -92t80.5 -128t27 -148 q0 -60 -11.5 -116t-37 -108t-51 -93.5t-70 -92.5t-75.5 -83t-85 -86q-209 -202 -377 -356h469q116 0 171.5 55.5t68.5 163.5h23v-371h-936z" />
<glyph unicode="3" horiz-adv-x="1064" d="M57 291l29 6q4 -29 13 -60t35.5 -76t64.5 -78.5t105.5 -58t152.5 -24.5q55 0 97.5 11.5t81.5 41t64.5 78t40.5 126t15 181.5q0 371 -275 371q-130 0 -241 -80l-19 33q68 36 193 69q89 24 149 61t93.5 87.5t47 107t13.5 130.5q0 243 -211 243q-64 0 -110 -16.5 t-67.5 -41.5t-30.5 -46.5t-9 -38.5q0 -42 17.5 -83.5t17.5 -51.5q0 -66 -86 -66q-91 0 -91 88q0 25 10.5 58t38 74t68 74.5t108 56t150.5 22.5q94 0 170.5 -30t121 -77.5t68 -100t23.5 -103.5q0 -64 -33.5 -120.5t-81.5 -93.5t-107 -66t-103.5 -42.5t-77.5 -19.5v-5 q120 -5 222.5 -56t166 -145t63.5 -212q0 -82 -36 -162t-99 -143.5t-157 -102.5t-201 -39q-97 0 -172.5 27.5t-121.5 75t-72.5 101t-37.5 116.5z" />
<glyph unicode="4" horiz-adv-x="1064" d="M63 358q132 283 249.5 500.5t172.5 304.5q98 154 152.5 223t84 86t73.5 17q84 0 84 -49q0 -11 -12 -25t-56 -57q-118 -114 -299 -328q-39 -47 -80.5 -104t-69.5 -98.5t-72 -115.5t-60 -102.5t-64.5 -115.5t-56.5 -101h538v547h176v-547h183v-35h-183v-329h183v-29h-541 v29h182v329h-584z" />
<glyph unicode="5" horiz-adv-x="1064" d="M88 209q0 44 29.5 65t75.5 21q44 0 69 -21t25 -61q0 -9 -1 -32t-1 -31q0 -87 46.5 -118.5t141.5 -31.5q94 0 151 42t89 154.5t32 307.5q0 186 -58.5 281.5t-207.5 95.5q-70 0 -127.5 -18.5t-92 -45t-61.5 -63.5t-38.5 -65t-20.5 -58l-22 6l129 852h67q77 -77 112 -102 q93 -68 214 -68q85 0 144.5 35t140.5 135l22 -14q-40 -54 -61 -82t-52.5 -67t-52 -57.5t-49.5 -41.5t-54.5 -32.5t-57.5 -16.5t-68 -7q-67 0 -129 20t-178 75l-78 -498l4 -4q48 69 131 107t191 38q107 0 195 -37.5t143 -99.5t84.5 -139.5t29.5 -161.5q0 -53 -14 -114.5 t-50.5 -131.5t-90.5 -125t-143.5 -92t-199.5 -37q-82 0 -147 18t-103.5 45t-64 61t-34.5 62t-9 52z" />
<glyph unicode="6" horiz-adv-x="1064" d="M66 616q0 239 79 439.5t218 317t307 116.5q59 0 107 -15.5t78 -40.5t50.5 -57.5t28.5 -64t8 -62.5q0 -45 -30.5 -75.5t-80.5 -30.5q-94 0 -94 69q0 20 24.5 63.5t24.5 88.5q0 52 -33 74t-96 22t-116 -25.5t-90.5 -68.5t-68 -100t-51 -119.5t-35.5 -128.5t-24.5 -125 t-17.5 -111l-1.5 -10.5t-1 -9.5t-1.5 -10l4 -4q42 74 120.5 117.5t174.5 43.5q105 0 193 -41.5t142.5 -109t84.5 -147.5t30 -162q0 -122 -61.5 -232t-168.5 -178t-230 -68q-75 0 -143 21.5t-129 71t-105 122.5t-70 183t-26 247zM258 573q0 -172 12.5 -272.5t51.5 -183.5 q53 -117 217 -117q148 0 204 119q29 59 40.5 135t11.5 201q0 229 -66 333q-59 93 -184 93q-95 0 -159.5 -40.5t-96.5 -99.5q-31 -54 -31 -168z" />
<glyph unicode="7" horiz-adv-x="1064" d="M139 1079v379h797q-8 -133 -39 -287t-68 -277t-82 -245t-72.5 -185.5t-47.5 -105.5q-43 -93 -77.5 -160t-63 -109t-49 -66.5t-43 -35.5t-36.5 -13.5t-39 -2.5q-34 0 -64 18t-30 50q0 18 8.5 35t15.5 25.5t31 31t33 31.5q86 84 146.5 152.5t106 136.5t73 118.5t68.5 135.5 q138 286 180 589h-506q-193 0 -219 -215h-23z" />
<glyph unicode="8" horiz-adv-x="1064" d="M78 356q0 67 26 127t61.5 99.5t88.5 76t89.5 54.5t82.5 37q-54 24 -92.5 45.5t-76.5 53.5t-61.5 68.5t-38 88t-14.5 114.5q0 103 60 189t153.5 133t194.5 47q95 0 179.5 -36.5t139 -107.5t54.5 -161q0 -50 -16 -95t-39 -78t-63.5 -68t-73 -57.5t-83.5 -54.5 q70 -33 121.5 -66t105 -82t82.5 -114.5t29 -142.5q0 -90 -33.5 -171.5t-93.5 -145t-152 -101t-202 -37.5q-183 0 -305.5 109.5t-122.5 275.5zM246 342q0 -56 9.5 -105t31 -93t54 -75.5t81 -50t108.5 -18.5q84 0 153.5 56.5t104.5 135t35 154.5q0 38 -6 71t-20 61.5t-28.5 51 t-40 44t-44.5 37t-53 34t-55.5 30t-60.5 30.5t-60 30q-65 -32 -108 -73.5t-64.5 -93.5t-29 -104t-7.5 -122zM285 1188q0 -123 75 -195q42 -42 261 -147q60 35 104.5 108t44.5 187q0 54 -4.5 96.5t-18.5 86t-37.5 72t-63.5 46.5t-95 18q-122 0 -194 -74.5t-72 -197.5z" />
<glyph unicode="9" horiz-adv-x="1064" d="M49 1012q0 95 42 184.5t108.5 153t150.5 101.5t166 38q71 0 134.5 -18.5t125.5 -66.5t106 -122t71.5 -194t27.5 -273q0 -156 -21.5 -284.5t-56 -214t-83 -150.5t-96 -101t-102 -58.5t-94.5 -29t-79 -6.5q-132 0 -237.5 68.5t-105.5 173.5q0 64 32.5 92.5t82.5 28.5 q45 0 67.5 -21.5t22.5 -50.5q0 -18 -24.5 -61.5t-24.5 -89.5q0 -49 45.5 -80t130.5 -31q86 0 147.5 34.5t108 115t69.5 220.5t23 343h-4q-12 -24 -32.5 -48.5t-54.5 -52.5t-86 -45.5t-113 -17.5q-101 0 -187 42t-141.5 109t-87 148.5t-31.5 163.5zM254 1014q0 -53 1.5 -93 t8 -88t17 -82.5t29.5 -69t45.5 -55.5t66 -34.5t88.5 -13.5q24 0 52.5 5t70.5 24t74.5 49.5t56.5 89t24 135.5q0 142 -17.5 281t-53.5 198q-58 100 -199 100q-78 0 -130.5 -29.5t-81.5 -90t-40.5 -138t-11.5 -188.5z" />
<glyph unicode=":" d="M176 86q0 44 32.5 76.5t76.5 32.5t76 -32.5t32 -76.5t-32 -76.5t-76 -32.5t-76.5 32.5t-32.5 76.5zM176 793q0 44 32.5 76t76.5 32t76 -32t32 -76t-32 -76.5t-76 -32.5t-76.5 32.5t-32.5 76.5z" />
<glyph unicode=";" d="M137 88q0 48 36 82.5t89 34.5q76 0 123 -63.5t47 -147.5q0 -76 -42 -155.5t-91.5 -130.5t-97.5 -83l-19 25q107 77 150 148t43 124q0 67 -37 107q-34 -52 -88 -52q-42 0 -77.5 30.5t-35.5 80.5zM176 793q0 44 32.5 76t76.5 32t76 -32t32 -76t-32 -76.5t-76 -32.5 t-76.5 32.5t-32.5 76.5z" />
<glyph unicode="&#x3c;" horiz-adv-x="1214" d="M25 483v17l1163 483v-41l-1096 -450l1096 -451v-41z" />
<glyph unicode="=" horiz-adv-x="1214" d="M115 297v37h983v-37h-983zM115 649v37h983v-37h-983z" />
<glyph unicode="&#x3e;" horiz-adv-x="1214" d="M25 0v41l1097 451l-1097 450v41l1163 -483v-17z" />
<glyph unicode="?" horiz-adv-x="833" d="M172 86q0 44 32.5 76.5t76.5 32.5t76 -32.5t32 -76.5t-32 -76.5t-76 -32.5t-76.5 32.5t-32.5 76.5zM197 1264q0 33 16 71.5t46.5 75t83 60.5t116.5 24q120 0 190 -93t70 -269q0 -78 -15.5 -145t-47.5 -121.5t-86.5 -85.5t-125.5 -31q-81 0 -145 69v-454h-33v514h33 q25 -52 55.5 -76.5t81.5 -24.5t81 30.5t45.5 108.5t15.5 216q0 98 -9.5 165t-28 103t-41 50.5t-53.5 14.5q-42 0 -82 -20.5t-40 -61.5q0 -24 24.5 -64.5t24.5 -68.5q0 -31 -23.5 -51t-58.5 -20q-40 0 -67 21t-27 63z" />
<glyph unicode="@" horiz-adv-x="1705" d="M84 696q0 214 115.5 398.5t313 292.5t427.5 108q151 0 279 -47.5t216 -129t137.5 -192.5t49.5 -237q0 -139 -60.5 -271t-157 -213t-196.5 -81q-34 0 -62 8.5t-45.5 18.5t-32 30t-21 32t-12 36.5t-6 30.5t-3.5 26q-40 -90 -105.5 -136t-146.5 -46q-121 0 -199.5 85.5 t-78.5 206.5q0 94 40.5 185.5t103.5 157.5t141 106.5t151 40.5q165 0 198 -152l39 129h119l-139 -475q-21 -77 -21 -119q0 -35 11.5 -59t31 -35t37 -15.5t35.5 -4.5q54 0 114 44t109.5 113.5t82 164.5t32.5 190q0 112 -43 213.5t-121.5 179.5t-200.5 124t-270 46 q-168 0 -316.5 -65.5t-249 -172t-158.5 -243t-58 -277.5t54 -266t148.5 -215t230.5 -142.5t294 -52.5q139 0 282 46.5t271 146.5l26 -37q-41 -29 -68 -47t-89.5 -51t-120 -52.5t-143.5 -35t-177 -15.5q-156 0 -298.5 51t-251.5 142.5t-173.5 229.5t-64.5 302zM645 578 q0 -34 7 -67t23 -65.5t47.5 -52.5t74.5 -20q117 0 186 151q16 37 37.5 94t47.5 151t26 151q0 49 -37.5 93t-102.5 44q-77 0 -150.5 -78t-116 -189t-42.5 -212z" />
<glyph unicode="A" horiz-adv-x="1517" d="M-2 0v29h180l553 1466h49l557 -1466h183v-29h-631v29h227l-215 569h-475l-215 -569h227v-29h-440zM438 627h451l-225 596z" />
<glyph unicode="B" horiz-adv-x="1366" d="M61 0v29h228v1401h-228v28h359q41 0 127 4q22 0 63 1t60 1q115 0 205 -24t142.5 -60t87 -84t46.5 -91.5t12 -86.5q0 -131 -106 -221.5t-256 -108.5v-4q62 -5 121.5 -21.5t116 -48t99 -73t68 -101t25.5 -128.5q0 -190 -144 -305t-419 -115q-34 0 -115 4t-133 4h-359z M494 29q10 -1 32 -3.5t48 -4t59 -1.5q197 0 279.5 86t82.5 310q0 167 -70.5 259.5t-205.5 92.5h-225v-739zM494 797h188q61 0 105.5 14.5t79.5 49t53 98t18 155.5q0 83 -19 143.5t-47 94t-71 53.5t-81 25.5t-87 5.5q-104 0 -139 -6v-633z" />
<glyph unicode="C" horiz-adv-x="1478" d="M158 725q0 152 56 293t152 246t233 168t290 63q73 0 139.5 -20t115.5 -40t81 -20q37 0 55 10.5t35 32.5h31v-409h-23q-17 71 -36 124.5t-54.5 111.5t-82 95.5t-118 61.5t-162.5 24t-163.5 -25.5t-121.5 -67t-85.5 -103.5t-56.5 -123.5t-31.5 -141t-15 -142t-3.5 -138.5 q0 -169 22.5 -296t62.5 -208.5t101.5 -132t131 -70.5t159.5 -20q105 0 185 28t126 63.5t83 104.5t51.5 114t36.5 128h22v-436h-31q-34 43 -90 43q-30 0 -86.5 -18.5t-134 -37t-158.5 -18.5q-274 0 -481 201q-235 235 -235 555z" />
<glyph unicode="D" horiz-adv-x="1669" d="M61 0v29h228v1401h-228v28h381q37 0 115 4q19 0 57 1t58 1q124 0 200 -10t160 -37q242 -80 360.5 -261.5t118.5 -426.5q0 -130 -32.5 -241t-91 -193t-133 -141.5t-164.5 -98.5q-94 -40 -176 -51.5t-236 -11.5q-42 0 -134.5 4t-133.5 4h-349zM494 29q70 -9 182 -9 q62 0 112 4.5t106 18.5t100.5 37.5t88 64.5t76.5 97q64 106 90.5 221t26.5 258q0 134 -19 241t-63 197t-113.5 150t-173.5 93.5t-239 33.5q-21 0 -174 -6v-1401z" />
<glyph unicode="E" horiz-adv-x="1441" d="M61 0v29h228v1401h-228v28h1172v-354h-23q-29 86 -58.5 142t-72.5 100t-103 64t-142 20h-340v-633h133q94 0 147 25t87.5 87.5t64.5 188.5h22v-637h-22q-33 133 -55 179q-52 109 -165 125q-22 3 -47 3h-165v-739h387q85 0 155 32t113 79t74.5 107.5t45 109t19.5 92.5h23 v-449h-1250z" />
<glyph unicode="F" horiz-adv-x="1366" d="M61 0v29h228v1401h-228v28h1172v-354h-23q-29 86 -58.5 142t-72.5 100t-103 64t-142 20h-340v-664h133q94 0 147 25t87.5 87.5t64.5 188.5h22v-637h-22q-33 133 -55 179q-52 109 -165 125q-22 3 -47 3h-165v-708h227v-29h-660z" />
<glyph unicode="G" horiz-adv-x="1630" d="M158 725q0 328 235 563q207 207 481 207q70 0 127.5 -12.5t88 -27.5t66 -27.5t67.5 -12.5q38 0 54.5 9.5t37.5 33.5h31v-409h-23q-6 35 -14.5 68t-25.5 76t-39.5 79.5t-58 73.5t-78.5 62.5t-103.5 41.5t-131.5 16q-85 0 -154.5 -22.5t-119 -60.5t-86.5 -95t-59 -119 t-36 -139.5t-19 -149t-5 -155.5q0 -469 180 -629q61 -55 126.5 -76.5t170.5 -21.5q66 0 127.5 22t113.5 63.5t83 111t31 155.5v172h-264v29h624v-29h-164v-465h-24q-25 25 -39 32t-43 7q-31 0 -75.5 -20t-87.5 -43.5t-119 -43.5t-163 -20q-145 0 -257.5 48t-217.5 153 q-237 237 -237 555z" />
<glyph unicode="H" horiz-adv-x="1669" d="M61 0v29h228v1401h-228v28h660v-28h-227v-670h682v670h-228v28h660v-28h-228v-1401h228v-29h-660v29h228v702h-682v-702h227v-29h-660z" />
<glyph unicode="I" horiz-adv-x="794" d="M68 0v29h227v1401h-227v28h659v-28h-227v-1401h227v-29h-659z" />
<glyph unicode="J" horiz-adv-x="948" d="M29 193q0 63 35.5 100t101.5 37q55 0 79.5 -29.5t24.5 -62.5q0 -29 -18.5 -72t-18.5 -82q0 -86 103 -86q133 0 133 199v1233h-227v28h659v-28h-227v-1055q0 -87 -18 -158t-56.5 -128t-106 -88.5t-159.5 -31.5q-132 0 -218.5 61.5t-86.5 162.5z" />
<glyph unicode="K" horiz-adv-x="1517" d="M61 0v29h228v1401h-228v28h644v-28h-211v-652h20l619 652h-213v28h423v-28h-169l-521 -551l744 -850h135v-29h-592v29h184l-614 721h-16v-721h211v-29h-644z" />
<glyph unicode="L" horiz-adv-x="1402" d="M61 0v29h228v1401h-228v28h660v-28h-227v-1401h364q174 0 278.5 108t153.5 312h23v-449h-1252z" />
<glyph unicode="M" horiz-adv-x="1781" d="M53 0v29h228v1401h-228v28h461l379 -1102h4l379 1102h453v-28h-228v-1401h228v-29h-660v29h227v1388h-4l-489 -1419l-488 1405h-4v-1374h228v-29h-486z" />
<glyph unicode="N" horiz-adv-x="1478" d="M43 0v29h227v1401h-227v28h438l693 -1116h4v1088h-228v28h486v-28h-228v-1459h-41l-862 1375h-4v-1317h227v-29h-485z" />
<glyph unicode="O" horiz-adv-x="1703" d="M139 731q0 157 64.5 301.5t166 244t229.5 159t253 59.5q134 0 263 -59t228.5 -159.5t160.5 -244t61 -301.5q0 -142 -56 -280.5t-150 -244.5t-228 -171.5t-279 -65.5q-121 0 -232 41t-197.5 114t-151 168t-98.5 208.5t-34 230.5zM375 731q0 -379 109.5 -556t367.5 -177 t367.5 177t109.5 556q0 86 -5.5 160t-19.5 150.5t-37 137.5t-60 116t-86 91.5t-117 58t-152 21.5t-152 -21.5t-117 -58t-86 -91.5t-60 -116t-37 -137.5t-19.5 -150.5t-5.5 -160z" />
<glyph unicode="P" horiz-adv-x="1327" d="M61 0v29h228v1401h-228v28h385q37 0 115 4q19 0 56 1t57 1q155 0 278 -47.5t194 -136.5t71 -205q0 -118 -80.5 -207.5t-208.5 -134.5t-281 -45q-53 0 -153 17v-676h227v-29h-660zM494 733q88 -16 165 -16q155 0 238.5 90.5t83.5 267.5q0 106 -20 175t-66 110.5 t-113.5 58.5t-169.5 17q-49 0 -118 -6v-697z" />
<glyph unicode="Q" horiz-adv-x="1703" d="M139 731q0 124 40.5 242.5t110.5 211t160 163.5t194.5 109t207.5 38q134 0 263 -59t228.5 -159.5t160.5 -244t61 -301.5q0 -142 -56 -280.5t-150 -244.5t-228 -171.5t-279 -65.5q-38 0 -78 6l-2 -6q73 -40 129.5 -59.5t157.5 -30.5q103 -10 205 -127q42 -48 65.5 -67.5 t66 -32t111.5 -12.5v-29q-91 1 -158.5 4t-125 10.5t-96 14.5t-75 24.5t-58 30.5t-49 41.5t-44 50t-47.5 63.5q-43 58 -94 96.5t-96 51.5q-230 61 -377.5 270t-147.5 463zM375 731q0 -379 109.5 -556t367.5 -177t367.5 177t109.5 556q0 86 -5.5 160t-19.5 150.5t-37 137.5 t-60 116t-86 91.5t-117 58t-152 21.5t-152 -21.5t-117 -58t-86 -91.5t-60 -116t-37 -137.5t-19.5 -150.5t-5.5 -160z" />
<glyph unicode="R" horiz-adv-x="1478" d="M61 0v29h228v1401h-228v28h390q32 0 98 4q17 0 49 1t49 1q143 0 227.5 -16t157.5 -74q67 -52 99 -120t32 -136q0 -29 -6.5 -60.5t-29 -76t-59.5 -80.5t-105.5 -66.5t-159.5 -41.5v-5q35 -4 69.5 -10.5t87 -24t93.5 -41.5t78 -66t53 -95q18 -58 25.5 -205t17.5 -188 q14 -64 42 -102t83 -38q63 0 106 43l19 -22q-18 -15 -33.5 -24.5t-55 -19t-92.5 -9.5q-82 0 -136.5 19.5t-86.5 62t-47.5 97t-21.5 136.5l-15 186q-4 57 -18 102t-31.5 74t-44 49.5t-49 31t-53.5 16.5t-50 7t-45 1h-204v-739h227v-29h-660zM494 797h188q61 0 105.5 14.5 t79.5 49t53 98t18 155.5q0 83 -19 143.5t-47 94t-71 53.5t-81 25.5t-87 5.5q-104 0 -139 -6v-633z" />
<glyph unicode="S" horiz-adv-x="1366" d="M154 0v440h22q15 -72 36.5 -131.5t45 -102.5t55.5 -77t58.5 -55.5t64.5 -36.5t63 -22.5t63.5 -11.5t58 -4.5t53.5 -0.5q82 0 147.5 22t104.5 56t65 79.5t35.5 88.5t9.5 86q0 54 -18 100t-45 77.5t-65.5 57.5t-72.5 41t-73 27l-236 72q-171 53 -253.5 138t-82.5 222 q0 186 126 308t323 122q65 0 119.5 -12.5t84 -27.5t61.5 -27.5t57 -12.5q26 0 34.5 6.5t26.5 36.5h29v-371h-25q-13 77 -42.5 143t-75.5 120t-115.5 85t-153.5 31q-55 0 -110 -14t-108 -44t-86.5 -87.5t-33.5 -134.5q0 -62 25 -110t72.5 -80.5t91 -52t106.5 -38.5l248 -78 q109 -35 154 -57q196 -100 196 -317q0 -95 -36.5 -182.5t-102 -154.5t-165 -107t-216.5 -40q-90 0 -140.5 5.5t-117.5 25.5q-14 4 -54 17.5t-67.5 20.5t-48.5 7q-28 0 -40.5 -11t-21.5 -34h-30z" />
<glyph unicode="T" horiz-adv-x="1400" d="M78 1083v375h1245v-375h-23q-19 70 -45 125t-51.5 91t-57.5 61.5t-58 39t-59.5 20.5t-55 8.5t-51.5 1.5h-119v-1401h227v-29h-659v29h227v1401h-119q-30 0 -51.5 -1.5t-55.5 -8.5t-60 -20.5t-58 -39t-57.5 -61.5t-51.5 -91t-45 -125h-22z" />
<glyph unicode="U" horiz-adv-x="1554" d="M43 1430v28h659v-28h-227v-990q0 -240 83 -341t255 -101q121 0 207 35.5t147 118.5q46 61 66 125.5t20 199.5v953h-227v28h485v-28h-227v-994q0 -93 -20 -162.5t-74 -140.5q-124 -164 -414 -164q-506 0 -506 492v969h-227z" />
<glyph unicode="V" horiz-adv-x="1478" d="M-25 1430v28h633v-28h-227l455 -1188l448 1188h-223v28h442v-28h-184l-551 -1461h-51l-557 1461h-185z" />
<glyph unicode="W" horiz-adv-x="2199" d="M-20 1430v28h616v-28h-213l422 -1188h4l272 755l-155 433h-172v28h614v-28h-223l422 -1188h4l430 1188h-219v28h438v-28h-184l-531 -1461h-51l-352 983h-4l-357 -983h-55l-522 1461h-184z" />
<glyph unicode="X" horiz-adv-x="1554" d="M57 0v29h197l410 684l-437 717h-170v28h611v-28h-197l328 -539l327 539h-196v28h426v-28h-197l-342 -568l510 -833h170v-29h-614v29h196l-399 655l-391 -655h196v-29h-428z" />
<glyph unicode="Y" horiz-adv-x="1441" d="M-4 1430v28h627v-28h-205l409 -721l387 721h-206v28h438v-28h-199l-399 -748v-653h227v-29h-659v29h227v587l-461 814h-186z" />
<glyph unicode="Z" horiz-adv-x="1327" d="M92 0l854 1430h-317q-160 0 -254 -84t-137 -244h-23v356h977l-858 -1429h450q94 0 149.5 25.5t106.5 74.5q49 45 94.5 131t67.5 189h23v-449h-1133z" />
<glyph unicode="[" d="M250 -573v2031h256v-41h-215v-1949h215v-41h-256z" />
<glyph unicode="\" horiz-adv-x="606" d="M6 1458l41 12l553 -1470l-41 -12z" />
<glyph unicode="]" d="M63 -532h216v1949h-216v41h256v-2031h-256v41z" />
<glyph unicode="^" horiz-adv-x="1214" d="M244 625l354 833h18l353 -833h-43l-320 755l-317 -755h-45z" />
<glyph unicode="_" horiz-adv-x="1024" d="M0 -154h1024v-63h-1024v63z" />
<glyph unicode="`" d="M4 1436q0 29 20.5 50t49.5 21q25 0 40 -11.5t52 -56.5l3 -3t2.5 -3.5t3 -4l3.5 -3.5l242 -295h-29l-350 250q-37 26 -37 56z" />
<glyph unicode="a" horiz-adv-x="985" d="M84 170q0 35 8 64t19.5 50t34 39t40.5 29.5t50 24t52.5 19t57.5 17.5t57 17q127 42 159 63q49 32 60 96q5 30 5 77q0 109 -31.5 160t-126.5 51q-72 0 -114 -24.5t-42 -76.5q0 -26 6.5 -68t6.5 -51q0 -30 -21.5 -48.5t-58.5 -18.5q-62 0 -81.5 22t-19.5 66q0 96 85 161.5 t235 65.5q91 0 157.5 -23t103.5 -64t54 -89.5t17 -105.5v-510q0 -58 17 -79.5t54 -21.5q51 0 95 33l16 -22q-67 -52 -154 -52q-93 0 -138 39.5t-64 120.5h-5q-12 -26 -17.5 -37.5t-28 -39.5t-48 -42.5t-72 -27.5t-104.5 -13q-264 0 -264 199zM260 193q0 -181 152 -181 q52 0 91.5 19.5t61 48.5t35 69.5t17.5 75t4 72.5v205h-5q-3 -29 -67 -53l-154 -62q-135 -54 -135 -194z" />
<glyph unicode="b" horiz-adv-x="1214" d="M57 0v29h158v1419h-158v29h334v-762h4q31 85 102.5 137.5t178.5 52.5q114 0 214 -63.5t159 -170t59 -227.5q0 -123 -61 -232.5t-164 -175t-221 -65.5q-53 0 -97.5 16t-72.5 38.5t-50.5 53t-33 53t-17.5 46.5h-4v-178h-330zM391 401q0 -401 268 -401q42 0 75 8t58 25.5 t43 39t30 55t20 66.5t11.5 81t5 91t1.5 103q0 79 -6 139t-22 112.5t-42 85.5t-67.5 52t-97.5 19q-134 0 -205 -95q-42 -54 -57 -136.5t-15 -244.5z" />
<glyph unicode="c" horiz-adv-x="985" d="M92 434q0 199 139.5 335t337.5 136q57 0 113.5 -13.5t106.5 -39.5t81 -73t31 -107q0 -44 -28 -71.5t-78 -27.5q-40 0 -69.5 17t-29.5 51q0 20 14.5 70t14.5 67q0 45 -45.5 72t-110.5 27q-30 0 -53.5 -3t-53 -13.5t-51.5 -28.5t-44.5 -52t-37 -80t-23.5 -115.5t-9 -156.5 q0 -76 6.5 -136t25 -116t48 -93.5t78 -60t112.5 -22.5q50 0 92.5 10t71.5 23.5t55 37.5t39 40.5t27.5 46t18 39.5t12.5 34l30 -6q-7 -26 -16 -49t-36 -64t-61.5 -69t-96.5 -50t-138 -22q-66 0 -130 15t-126.5 50t-110 87t-77 132t-29.5 179z" />
<glyph unicode="d" horiz-adv-x="1214" d="M106 444q0 121 59 227.5t159.5 170t214.5 63.5q107 0 178 -52.5t102 -137.5h4v733h-157v29h333v-1448h158v-29h-330v178h-4q-8 -24 -18 -46.5t-32 -53t-50 -53t-72.5 -38.5t-97.5 -16q-88 0 -170.5 39t-143 103.5t-97 151.5t-36.5 179zM311 469q0 -60 1.5 -103t5 -91 t11.5 -81t20 -66.5t30 -55t43 -39t58 -25.5t75 -8q268 0 268 401q0 161 -15 242t-56 139q-71 95 -205 95q-56 0 -97.5 -19t-68 -52.5t-42.5 -85.5t-22 -112t-6 -139z" />
<glyph unicode="e" horiz-adv-x="1024" d="M92 434q0 119 61 227.5t168.5 176t231.5 67.5q48 0 97.5 -12t100.5 -42t90 -74t64 -113.5t25 -155.5h-631q0 -11 -1 -41.5t-1 -54.5q0 -63 4.5 -113.5t21 -109t44.5 -97.5t79 -65.5t121 -26.5q50 0 92.5 10t71.5 23.5t55 37.5t39 40.5t27.5 46t18 39.5t12.5 34l30 -6 q-7 -26 -16 -49t-36 -64t-61.5 -69t-96.5 -50t-138 -22q-207 0 -340 128t-133 335zM301 537h420q4 36 4 53v51q0 130 -46.5 183t-133.5 53q-66 0 -113.5 -27t-74 -76.5t-39.5 -106.5t-17 -130z" />
<glyph unicode="f" horiz-adv-x="681" d="M57 0v29h158v821h-158v29h158v108q0 131 24 209t68 131q59 73 138 120.5t165 47.5q122 0 188 -61.5t66 -128.5q0 -43 -24 -74t-74 -31q-21 0 -40.5 4.5t-36.5 20.5t-17 41q0 24 19.5 63t19.5 62q0 40 -33.5 57.5t-79.5 17.5q-90 0 -148.5 -77.5t-58.5 -225.5v-284h254 v-29h-254v-821h187v-29h-521z" />
<glyph unicode="g" horiz-adv-x="1062" d="M90 133q0 52 19 94.5t53 71.5t60.5 45.5t62.5 32.5q-119 82 -119 221q0 69 34.5 129t88.5 97.5t117.5 59t123.5 21.5q82 0 149 -32t107 -72q63 104 177 104q110 0 110 -92q0 -34 -22.5 -54t-49.5 -20q-25 0 -41 16t-22 35.5t-18.5 35.5t-30.5 16q-37 0 -80 -58 q76 -82 76 -192q0 -119 -110.5 -202t-254.5 -83q-92 0 -207 53q-34 -16 -49.5 -24t-43 -28t-40 -45.5t-12.5 -57.5q0 -101 139 -101h324q148 0 230.5 -70.5t82.5 -213.5q0 -115 -66 -209.5t-172 -145.5t-225 -51q-159 0 -262.5 69t-103.5 177q0 98 69 167t170 107v5 q-137 0 -200.5 45t-63.5 149zM246 -291q0 -70 25 -121.5t67 -79t88 -40.5t96 -13q143 0 236.5 81.5t93.5 191.5q0 111 -60 161t-174 50h-221q-33 -21 -44.5 -28.5t-38 -30.5t-37.5 -43t-21 -53.5t-10 -74.5zM319 604q0 -133 46.5 -200.5t166.5 -67.5q104 0 150.5 65.5 t46.5 202.5q0 44 -3 77.5t-15 72t-33 64t-58.5 42.5t-89.5 17q-107 0 -159 -65t-52 -208z" />
<glyph unicode="h" horiz-adv-x="1251" d="M51 0v29h158v1419h-158v29h334v-805h4q10 26 25.5 52.5t45.5 59.5t66.5 58t91.5 42t119 17q141 0 223 -68.5t82 -205.5v-598h158v-29h-491v29h157v661q0 83 -39 132.5t-116 49.5q-134 0 -230 -109t-96 -271v-463h158v-29h-492z" />
<glyph unicode="i" horiz-adv-x="606" d="M57 0v29h158v821h-158v29h334v-850h158v-29h-492zM190 1356q0 44 32.5 76t76.5 32t76.5 -32t32.5 -76t-32.5 -76.5t-76.5 -32.5t-76.5 32.5t-32.5 76.5z" />
<glyph unicode="j" horiz-adv-x="606" d="M-145 -399q0 47 26 72.5t66 25.5q36 0 54.5 -19.5t18.5 -52.5q0 -15 -7 -47t-7 -57q0 -39 25.5 -59.5t60.5 -20.5q123 0 123 203v1204h-158v29h334v-920q0 -123 -10 -204.5t-19.5 -109t-27.5 -63.5q-24 -48 -56 -82t-66.5 -52t-66.5 -26t-65 -8q-47 0 -96.5 19t-89 64 t-39.5 104zM190 1356q0 44 32.5 76t76.5 32t76.5 -32t32.5 -76t-32.5 -76.5t-76.5 -32.5t-76.5 32.5t-32.5 76.5z" />
<glyph unicode="k" horiz-adv-x="1099" d="M57 0v29h158v1419h-158v29h334v-979h23l407 352h-145v29h317v-29h-123l-319 -275l453 -546h88v-29h-461v29h145l-362 440h-23v-440h113v-29h-447z" />
<glyph unicode="l" horiz-adv-x="606" d="M57 0v29h158v1419h-158v29h334v-1448h158v-29h-492z" />
<glyph unicode="m" horiz-adv-x="1781" d="M41 0v29h158v821h-158v29h330v-215h4q82 237 319 237q109 0 185 -47.5t100 -146.5h4q33 84 107.5 139t193.5 55q299 0 299 -305v-567h158v-29h-492v29h158v696q0 69 -37.5 108t-103.5 39q-53 0 -103 -19.5t-91.5 -57.5t-67 -101t-25.5 -143v-522h158v-29h-492v29h158v667 q0 88 -35.5 132t-99.5 44q-36 0 -74.5 -13t-78 -43t-70.5 -73.5t-50.5 -111t-19.5 -148.5v-454h157v-29h-491z" />
<glyph unicode="n" horiz-adv-x="1251" d="M51 0v29h158v821h-158v29h330v-220h4q14 31 26.5 54t43.5 61.5t66 63t92 44t124 19.5q141 0 223 -68.5t82 -205.5v-598h158v-29h-491v29h157v661q0 83 -39 132.5t-116 49.5q-134 0 -230 -109t-96 -271v-463h158v-29h-492z" />
<glyph unicode="o" horiz-adv-x="1138" d="M92 438q0 78 28.5 151.5t76.5 130t109 98.5t129.5 64.5t133.5 22.5q82 0 167 -35.5t154 -96t113 -149.5t44 -186q0 -124 -69.5 -233t-179.5 -171.5t-229 -62.5t-229 62.5t-179 171.5t-69 233zM297 438q0 -112 15 -193t38.5 -127.5t60.5 -73.5t73 -35.5t85 -8.5t85 8.5 t73.5 35.5t61 73.5t38.5 127.5t15 193q0 239 -65 339t-208 100t-207.5 -99.5t-64.5 -339.5z" />
<glyph unicode="p" horiz-adv-x="1214" d="M57 -545h158v1395h-158v29h330v-172h4q32 91 104.5 144.5t180.5 53.5q114 0 214 -63.5t159 -170t59 -227.5q0 -123 -61 -232.5t-164 -175t-221 -65.5q-65 0 -117 22.5t-81.5 57.5t-45 63.5t-23.5 55.5h-4v-715h158v-28h-492v28zM391 401q0 -401 268 -401q42 0 75 8 t58 25.5t43 39t30 55t20 66.5t11.5 81t5 91t1.5 103q0 79 -6 139t-22 112.5t-42 85.5t-67.5 52t-97.5 19q-134 0 -205 -95q-42 -54 -57 -136.5t-15 -244.5z" />
<glyph unicode="q" horiz-adv-x="1214" d="M106 444q0 121 59 227.5t159.5 170t214.5 63.5q108 0 180 -53t104 -145h4v172h330v-29h-158v-1395h158v-28h-491v28h157v715h-4q-8 -27 -23.5 -55.5t-45 -63.5t-81 -57.5t-116.5 -22.5q-88 0 -170.5 39t-143 103.5t-97 151.5t-36.5 179zM311 469q0 -60 1.5 -103t5 -91 t11.5 -81t20 -66.5t30 -55t43 -39t58 -25.5t75 -8q268 0 268 401q0 161 -15 242t-56 139q-71 95 -205 95q-56 0 -97.5 -19t-68 -52.5t-42.5 -85.5t-22 -112t-6 -139z" />
<glyph unicode="r" horiz-adv-x="833" d="M55 0v29h158v821h-158v29h330v-207h4q9 35 27 70.5t49 73t81 61.5t111 24q89 0 136 -51t47 -119q0 -113 -103 -113q-90 0 -90 58q0 22 13.5 51.5t13.5 67.5q0 65 -72 65q-73 0 -143 -102t-70 -260v-469h178v-29h-512z" />
<glyph unicode="s" horiz-adv-x="872" d="M115 0v287h22q82 -287 324 -287q72 0 120 42.5t48 127.5q0 37 -10 64.5t-30.5 45.5t-41 28.5t-51.5 21.5l-160 55q-34 12 -54.5 20.5t-52.5 29t-50 44.5t-32 64.5t-14 91.5q0 116 84 193t211 77q67 0 121 -21.5t76 -21.5t32 17h23v-234h-23q-17 53 -33.5 89.5t-43 71.5 t-64.5 53t-88 18q-97 0 -152 -44t-55 -118q0 -62 42 -96t140 -66l150 -49q219 -73 219 -242q0 -119 -88.5 -205t-237.5 -86q-68 0 -153 29t-107 29q-32 0 -49 -29h-22z" />
<glyph unicode="t" horiz-adv-x="681" d="M35 850v29h158v264q4 -1 10.5 -3.5t10 -4t10 -3t12.5 -2.5t15.5 -1.5t20.5 -0.5q61 0 97 31v-280h290v-29h-290v-670q0 -180 123 -180q68 0 113.5 49.5t58.5 122.5l28 -10q-44 -191 -225 -191q-148 0 -211 57t-63 171v651h-158z" />
<glyph unicode="u" horiz-adv-x="1214" d="M49 850v29h334v-629q0 -56 8 -98.5t26.5 -78t54 -54.5t85.5 -19q45 0 93 27.5t88.5 74.5t66.5 119.5t26 153.5v475h-155v29h332v-850h157v-29h-329v207h-5q-21 -47 -45 -84t-61 -74t-90 -57.5t-117 -20.5q-129 0 -213 58q-20 14 -33 27t-30 39.5t-26 70t-9 102.5v582 h-158z" />
<glyph unicode="v" horiz-adv-x="985" d="M-37 850v29h496v-29h-168l264 -643l274 643h-167v29h311v-29h-111l-387 -918l-373 918h-139z" />
<glyph unicode="w" horiz-adv-x="1517" d="M-8 850v29h493v-29h-170l230 -639l213 506l-51 133h-86v29h407v-29h-137l237 -635l256 635h-192v29h334v-29h-109l-366 -918l-279 744l-311 -744l-330 918h-139z" />
<glyph unicode="x" horiz-adv-x="985" d="M0 850v29h481v-29h-162l211 -307l222 307h-152v29h301v-29h-108l-244 -336l334 -485h112v-29h-479v29h162l-240 348l-258 -348h152v-29h-301v29h108l281 377l-305 444h-115z" />
<glyph unicode="y" horiz-adv-x="985" d="M-45 -428q0 49 27.5 75.5t70.5 26.5q36 0 66.5 -16.5t30.5 -54.5q0 -19 -17.5 -54.5t-17.5 -56.5q0 -25 13 -34t40 -9q66 0 113.5 63.5t113.5 231.5l90 229l-354 877h-141v29h502v-29h-173l265 -643l276 643h-170v29h314v-29h-111l-338 -791q-65 -155 -143 -356 q-61 -156 -121 -222.5t-152 -66.5q-55 0 -94.5 17.5t-57.5 44.5t-25 50.5t-7 45.5z" />
<glyph unicode="z" horiz-adv-x="872" d="M74 0l510 850h-176h-4q-33 0 -48 -0.5t-39.5 -3t-36.5 -7.5t-30.5 -14.5t-30 -23.5t-27 -35.5t-29 -50t-28.5 -66.5h-16l28 230h650l-510 -850h288q29 0 54.5 7t43 15.5t34.5 28t26.5 31.5t21.5 39t16 38t14 41t12 37h16l-27 -266h-712z" />
<glyph unicode="{" horiz-adv-x="681" d="M70 436v13q90 19 144 42t84 62.5t40 87.5t10 127v219q0 70 1 107t7 88t18.5 82t36 65t58.5 62q21 17 45 29t53 18.5t44.5 10t46 6.5t32.5 3v-37q-49 -3 -89 -12.5t-69.5 -22.5t-52.5 -34.5t-37.5 -40.5t-25 -49t-16 -51t-8 -55.5t-3 -54t-0.5 -54.5v-160 q0 -178 -13 -250.5t-57 -116.5q-14 -14 -29 -25t-32 -18.5t-30.5 -13t-31 -9.5t-26.5 -5.5t-25 -4t-18 -2.5q1 0 21.5 -3t30.5 -5t32.5 -8t37.5 -13t34.5 -19.5t35.5 -28.5q44 -44 57 -116.5t13 -250.5v-160q0 -35 0.5 -54.5t3 -54t8 -56t16 -51.5t25 -49t37.5 -40.5 t52.5 -34.5t69.5 -22.5t89 -12.5v-36q-2 0 -32.5 3t-46 6.5t-44.5 10t-53 18.5t-45 29q-35 28 -58.5 62t-36 65t-18.5 82t-7 88t-1 107v219q0 79 -10 127t-40 87.5t-84 62.5t-144 42z" />
<glyph unicode="|" horiz-adv-x="454" d="M207 -512v2048h41v-2048h-41z" />
<glyph unicode="}" horiz-adv-x="681" d="M-8 -537q49 3 89 12.5t69.5 22.5t52.5 34.5t37.5 40.5t25 49t16 51.5t8 56t3 54t0.5 54.5v160q0 179 12.5 251t56.5 116q16 16 35.5 28.5t35 19.5t37.5 13t32.5 8t31 5t21.5 3q-3 0 -18.5 2.5t-25 4t-27 5.5t-31 9.5t-30.5 13t-32 18.5t-29 25q-44 44 -56.5 116 t-12.5 251v160q0 35 -0.5 54.5t-3 54t-8 55.5t-16 51t-25 49t-37.5 40.5t-52.5 34.5t-69.5 22.5t-89 12.5v37q4 0 28 -2.5t36 -4.5t36.5 -7t41.5 -11t39 -17t40 -25q30 -23 51 -47.5t34 -57.5t20.5 -59.5t11 -73t4 -76t0.5 -90.5v-219q0 -79 10 -127t40 -87.5t84 -62.5 t144 -42v-13q-90 -19 -144 -42t-84 -62.5t-40 -87.5t-10 -127v-219q0 -61 -0.5 -90.5t-4 -76t-11 -73t-20.5 -59.5t-34 -57.5t-51 -47.5q-18 -14 -40 -25t-39 -17t-41.5 -11t-36.5 -7t-36 -4.5t-28 -2.5v36z" />
<glyph unicode="~" horiz-adv-x="1214" d="M33 332q8 28 13.5 45t19 49t26.5 53t35.5 47.5t47.5 42t61 26.5t77 11q54 0 179 -43l253 -96q121 -47 168 -47q155 0 232 235h37q-9 -31 -17 -52t-24 -58t-36.5 -62t-48.5 -51t-67 -39.5t-84 -13.5q-58 0 -176 45l-250 96q-117 45 -178 45q-43 0 -78.5 -15.5t-58.5 -39 t-41 -54t-29 -58.5t-20 -53l-1.5 -4.5t-1 -4t-1.5 -4.5h-37z" />
<glyph unicode="&#xa0;" />
<glyph unicode="&#xa1;" horiz-adv-x="643" d="M213 797q0 44 32.5 76t76.5 32t76 -32t32 -76t-32 -76.5t-76 -32.5t-76.5 32.5t-32.5 76.5zM223 -516q0 4 15 188l63 846h41l64 -846q14 -171 14 -188q0 -42 -27 -69t-71 -27t-71.5 27t-27.5 69z" />
<glyph unicode="&#xa2;" horiz-adv-x="1064" d="M121 434q0 199 139.5 335t337.5 136q57 0 96 -10l66 164l26 -8l-65 -162q92 -23 150.5 -76.5t58.5 -140.5q0 -44 -28.5 -71.5t-78.5 -27.5q-40 0 -69 17t-29 51q0 20 14.5 70t14.5 67q0 44 -47 74l-306 -762q65 -90 195 -90q226 0 302 194q4 10 13 37l31 -6 q-7 -26 -16 -49t-36 -64t-61.5 -69t-96.5 -50t-138 -22q-120 0 -221 49l-74 -188l-27 8l76 191q-104 53 -165.5 153t-61.5 250zM326 428q0 -207 59 -307l295 741q-47 15 -88 15q-45 0 -77 -6t-70.5 -32t-62 -72t-40 -132t-16.5 -207z" />
<glyph unicode="&#xa3;" horiz-adv-x="1290" d="M150 770v29h200q-19 49 -29.5 79.5t-19 75t-8.5 86.5q0 64 19.5 128.5t58 122t91 102t124 70.5t151.5 26q128 0 220 -66t92 -159q0 -123 -115 -123q-35 0 -56.5 19t-21.5 50q0 34 21.5 77.5t21.5 72.5q0 35 -26 58.5t-60 32.5t-72 9q-58 0 -100.5 -19t-75.5 -61.5 t-50 -118.5t-17 -184v-35q0 -15 1.5 -40.5t5.5 -81.5t7 -121h356v-29h-354q39 -358 39 -440q0 -88 -16 -137q236 -37 331 -37q121 0 172 27t76 104l25 -11q-23 -66 -46 -113t-58 -94.5t-85 -72.5t-112 -25q-113 0 -222 76l-108 76q-45 -67 -90 -95t-113 -28q-62 0 -100.5 31 t-38.5 82q0 15 7 32t22.5 37t49 32.5t79.5 12.5q49 0 184 -30q8 47 8 94q0 63 -26.5 145t-70 183.5t-59.5 150.5h-212zM197 113q0 -49 33.5 -69.5t80.5 -20.5q106 0 176 114q-80 62 -178 62q-41 0 -76.5 -23t-35.5 -63z" />
<glyph unicode="&#xa4;" horiz-adv-x="1138" d="M131 319l129 132q-106 122 -106 280q0 76 28 151t80 130l-131 131l27 26l131 -131q121 109 280 109q151 0 279 -109l133 131l27 -26l-131 -131q108 -122 108 -281q0 -160 -108 -280l131 -132l-27 -26l-133 131q-112 -109 -281 -109q-149 0 -278 109l-131 -131zM195 731 q0 -155 109.5 -265t264.5 -110t265 110t110 265t-110 265t-265 110t-264.5 -110t-109.5 -265z" />
<glyph unicode="&#xa5;" horiz-adv-x="1138" d="M-10 1430v28h526v-28h-180l330 -750l292 750h-157v28h348v-28h-154l-204 -529h260v-29h-273l-86 -225h359v-29h-363v-589h180v-29h-557v29h181v589h-377v29h372l-104 225h-268v29h256l-240 529h-141z" />
<glyph unicode="&#xa6;" horiz-adv-x="454" d="M207 -358v716h41v-716h-41zM207 666v716h41v-716h-41z" />
<glyph unicode="&#xa7;" horiz-adv-x="1064" d="M115 514q0 212 207 348q-24 24 -34 34.5t-33 40.5t-34 53.5t-21 61.5t-10 78q0 67 28.5 132t78.5 117t126.5 84t164.5 32q143 0 226 -65.5t83 -161.5q0 -57 -22.5 -85t-75.5 -28q-78 0 -78 70q0 33 15.5 74.5t15.5 64.5q0 46 -42.5 74t-121.5 28q-130 0 -200.5 -74 t-70.5 -182q0 -86 46.5 -146.5t132.5 -111.5l276 -168q104 -64 141 -127t37 -163q0 -62 -18.5 -117t-56 -102.5t-60.5 -70.5t-67 -61q-6 -5 -9 -8q170 -136 170 -301q0 -66 -27 -136t-76 -131t-129 -100.5t-175 -39.5q-91 0 -164 24.5t-115 63t-64 82t-22 86.5q0 47 23 78.5 t73 31.5q95 0 95 -74q0 -28 -20.5 -68.5t-20.5 -64.5q0 -14 11 -34t33.5 -43t68.5 -38.5t106 -15.5q121 0 197.5 83t76.5 212q0 162 -164 262l-321 195q-99 60 -139.5 129.5t-40.5 177.5zM184 621q0 -69 50 -137t126 -113l359 -217q75 56 110 111.5t35 125.5 q0 73 -29.5 120.5t-97.5 88.5l-340 207q-24 13 -51 37q-70 -40 -116 -97t-46 -126z" />
<glyph unicode="&#xa8;" d="M0 1356q0 38 28 66t66 28t66 -28t28 -66t-28 -66t-66 -28t-66 28t-28 66zM381 1356q0 38 28 66t66 28t66 -28t28 -66t-28 -66t-66 -28t-66 28t-28 66z" />
<glyph unicode="&#xa9;" horiz-adv-x="1705" d="M92 733q0 154 61 295t163 243t243 163t295 61t295 -61t243 -163t163 -243t61 -295t-61 -295t-163 -243t-243 -163t-295 -61t-295 61t-243 163t-163 243t-61 295zM133 733q0 -196 96.5 -362t262.5 -262.5t362 -96.5t362 96.5t262.5 262.5t96.5 362t-96.5 362t-262.5 262.5 t-362 96.5t-362 -96.5t-262.5 -262.5t-96.5 -362zM438 739q0 122 56 227.5t157.5 169.5t225.5 64q58 0 120 -23.5t80 -23.5q15 0 26.5 4t15.5 7.5t14 13.5h18v-246h-14q-11 53 -28 93t-47.5 78.5t-80.5 59.5t-117 21q-54 0 -97.5 -15.5t-72.5 -40t-50.5 -62t-33.5 -74.5 t-19 -84.5t-9 -85.5t-2 -83q0 -127 20 -214t59 -134.5t88.5 -67.5t116.5 -20q40 0 74 5.5t60 18.5t45.5 25.5t35.5 35.5t26 38.5t20 45.5t15 45.5t13 47.5h14v-262h-18q-19 27 -53 27q-16 0 -89 -22.5t-139 -22.5q-161 0 -288 121q-142 142 -142 333z" />
<glyph unicode="&#xaa;" horiz-adv-x="641" d="M59 1055q0 58 32.5 84.5t105.5 50.5l143 47q70 24 70 115q0 60 -19.5 87t-81.5 27q-102 0 -102 -55q0 -11 4 -31t4 -32q0 -18 -13.5 -29.5t-37.5 -11.5q-41 0 -53.5 13t-12.5 40q0 57 54.5 96t154.5 39q114 0 164.5 -48t50.5 -122v-301q0 -34 11 -46.5t36 -12.5 q32 0 62 18l10 -16q-45 -31 -100 -31q-62 0 -91 23t-40 71h-4q-2 -12 -10.5 -26t-27 -30t-54.5 -27t-83 -11q-172 0 -172 119zM176 1067q0 -44 20 -70t76 -26q134 0 134 159v121h-5q-1 -1 -3.5 -4.5t-3.5 -5.5t-5 -5.5t-7.5 -6t-10 -5.5t-13.5 -5l-98 -35q-84 -31 -84 -117z " />
<glyph unicode="&#xab;" horiz-adv-x="833" d="M123 446q0 66 25 118.5t68.5 86.5t97.5 54.5t118 29.5l6 -22q-92 -25 -140 -87t-48 -180t48 -179.5t140 -86.5l-6 -22q-64 9 -118 29.5t-98 54.5t-68.5 86t-24.5 118zM395 446q0 66 25 118.5t69 86.5t98 54.5t118 29.5l6 -22q-92 -25 -140.5 -87t-48.5 -180t48 -179.5 t141 -86.5l-6 -22q-64 9 -118 29.5t-98 54.5t-69 86t-25 118z" />
<glyph unicode="&#xac;" horiz-adv-x="1214" d="M115 649v37h983v-389h-41v352h-942z" />
<glyph unicode="&#xad;" horiz-adv-x="757" d="M188 379v135h381v-135h-381z" />
<glyph unicode="&#xae;" horiz-adv-x="1003" d="M121 1114q0 157 111.5 269t269.5 112q157 0 269 -112t112 -269q0 -158 -112 -269.5t-269 -111.5q-158 0 -269.5 111.5t-111.5 269.5zM141 1114q0 -148 106.5 -254t254.5 -106t254 106t106 254t-106 254.5t-254 106.5t-254.5 -106.5t-106.5 -254.5zM332 918v8h63v385h-63 v8h106q9 0 28 1t28 1q70 0 104 -25q37 -32 37 -71q0 -11 -3.5 -22.5t-12.5 -26t-30 -25t-52 -14.5v-2q2 0 11 -2t14 -3.5t14.5 -4.5t16 -6t15 -8t14 -11t11 -14t8.5 -17q4 -17 6.5 -56.5t5.5 -51.5q0 -1 2.5 -7.5t3 -8t2.5 -7t4 -7t5 -4.5t7 -4t9 -1q19 0 31 12l4 -6 q-20 -15 -49 -15q-42 0 -59.5 21t-20.5 65l-4 54q-6 75 -80 75h-57v-202h63v-8h-182zM451 1137h51q34 0 51.5 19t17.5 69q0 52 -23 70t-61 18h-20q-12 0 -16 -2v-174z" />
<glyph unicode="&#xaf;" d="M-2 1233v63h573v-63h-573z" />
<glyph unicode="&#xb0;" horiz-adv-x="819" d="M133 1212q0 116 80.5 196.5t196.5 80.5q115 0 195.5 -80.5t80.5 -196.5t-80 -196t-196 -80t-196.5 80.5t-80.5 195.5zM174 1212q0 -98 69 -166.5t167 -68.5t166.5 68.5t68.5 166.5t-68.5 167t-166.5 69t-167 -69t-69 -167z" />
<glyph unicode="&#xb1;" horiz-adv-x="1214" d="M115 0v37h983v-37h-983zM115 539v36h471v408h41v-408h471v-36h-471v-404h-41v404h-471z" />
<glyph unicode="&#xb2;" horiz-adv-x="681" d="M20 596v22q63 51 98 80.5t89 78.5t84.5 84t68 85t57 94.5t33 99.5t13.5 111q0 91 -38 150t-120 59q-63 0 -100 -25t-37 -67q0 -10 8 -35t8 -43q0 -45 -51 -45q-76 0 -76 70q0 69 78.5 121.5t177.5 52.5q123 0 204 -77t81 -179q0 -80 -61.5 -169.5t-143.5 -164.5 l-217 -194h301q32 0 54 11.5t33 33t15 35t8 34.5q1 4 1 6h24v-229h-592z" />
<glyph unicode="&#xb3;" horiz-adv-x="681" d="M41 778l31 4q19 -92 76.5 -135t136.5 -43q109 0 148.5 63.5t39.5 186.5q0 117 -38 169t-124 52q-16 0 -33.5 -3t-29.5 -6.5t-28.5 -10t-23 -10t-21 -11.5t-15.5 -8l-19 27q7 3 25.5 12t38.5 17.5t43 13.5q32 8 49.5 13.5t45.5 17t44 26.5t32.5 37t24 54t7.5 73 q0 75 -30.5 109t-96.5 34q-64 0 -95.5 -27t-31.5 -57q0 -12 12 -38.5t12 -37.5q0 -43 -61 -43q-60 0 -60 60q0 67 65 119.5t171 52.5q115 0 178.5 -60t63.5 -131q0 -42 -20.5 -76.5t-57.5 -58t-68.5 -37.5t-73.5 -28v-4q122 -22 188 -89.5t66 -148.5q0 -111 -93 -196 t-224 -85q-59 0 -106 18t-72.5 42t-43.5 56t-23.5 51t-8.5 36z" />
<glyph unicode="&#xb4;" d="M199 1130l241 295q51 62 66 72q17 10 39 10q29 0 49 -21t20 -50q0 -30 -36 -56l-351 -250h-28z" />
<glyph unicode="&#xb5;" horiz-adv-x="1214" d="M49 850v29h334v-629q0 -56 8 -98.5t26.5 -78t54 -54.5t85.5 -19q45 0 93 27.5t88.5 74.5t66.5 119.5t26 153.5v475h-157v29h334v-850h157v-29h-329v207h-5q-40 -100 -118.5 -168t-175.5 -68q-93 0 -150 90h-4v-634h-176v1423h-158z" />
<glyph unicode="&#xb6;" horiz-adv-x="1214" d="M53 1032q0 123 62 221.5t168 145.5q84 38 162.5 48.5t197.5 10.5h522v-28h-159v-1127q0 -199 -49 -334t-164 -223q-163 -123 -385 -123q-63 0 -110.5 15.5t-71.5 36.5t-38.5 48.5t-18 45.5t-3.5 34q0 50 29.5 77.5t78.5 27.5q41 0 63.5 -16.5t22.5 -45.5q0 -11 -12 -55.5 t-12 -50.5q0 -22 15.5 -40.5t49.5 -18.5q22 0 48.5 11t62 48t57.5 94q43 112 43 469v291q-185 4 -305 49q-109 43 -181.5 149.5t-72.5 239.5zM410 -348q85 3 152 28.5t110.5 60t74.5 92t46.5 106.5t24 123t10 121t1.5 120v1127h-186v-1127q0 -95 -1.5 -159t-7 -133.5 t-15.5 -114t-27 -89t-42 -72.5t-59.5 -49.5t-80.5 -33.5z" />
<glyph unicode="&#xb7;" d="M176 541q0 44 32.5 76t76.5 32t76 -32t32 -76t-32 -76.5t-76 -32.5t-76.5 32.5t-32.5 76.5z" />
<glyph unicode="&#xb8;" d="M180 -434l17 24q69 -51 135 -51q104 0 104 162q0 135 -96 135q-49 0 -82 -26l-29 30l152 160h41l-141 -147l4 -5q42 29 100 29q19 0 44 -8t54.5 -25.5t49.5 -55.5t20 -89q0 -89 -62.5 -142t-152.5 -53q-85 0 -158 62z" />
<glyph unicode="&#xb9;" horiz-adv-x="681" d="M104 1298q94 46 161 89t126 102h33v-864h143v-29h-405v29h143v753q-71 -46 -186 -102z" />
<glyph unicode="&#xba;" horiz-adv-x="739" d="M70 1219q0 79 48 144t116 98.5t135 33.5t135.5 -33.5t117 -98.5t48.5 -144q0 -81 -48.5 -148t-117 -101t-135.5 -34t-135 34.5t-116 101t-48 147.5zM207 1221q0 -135 38 -195.5t124 -60.5q87 0 125 60t38 196q0 125 -35.5 185t-127.5 60q-90 0 -126 -60.5t-36 -184.5z " />
<glyph unicode="&#xbb;" horiz-adv-x="833" d="M123 180q92 25 140 86.5t48 179.5t-48 180t-140 87l6 22q64 -9 118 -29.5t97.5 -54.5t68.5 -86.5t25 -118.5t-24.5 -118t-68.5 -86t-98 -54.5t-118 -29.5zM395 180q93 25 141 86.5t48 179.5t-48.5 180t-140.5 87l6 22q64 -9 118 -29.5t98 -54.5t69 -86.5t25 -118.5 t-25 -118t-69 -86t-98 -54.5t-118 -29.5z" />
<glyph unicode="&#xbc;" horiz-adv-x="1708" d="M166 1298q94 46 161 89t126 102h32v-864h144v-29h-406v29h144v753q-68 -44 -187 -102zM412 -10l778 1499l37 -19l-778 -1499zM901 211q11 22 58 111.5t68.5 129t59 108.5t67 117t56.5 87q63 90 88.5 109.5t67.5 19.5q55 0 55 -33q0 -8 -6.5 -17.5t-24 -26.5t-38.5 -37 t-58.5 -57.5t-76.5 -78.5q-74 -79 -147 -189.5t-122 -209.5h320v325h118v-325h111v-33h-111v-182h111v-29h-340v29h111v182h-367z" />
<glyph unicode="&#xbd;" horiz-adv-x="1708" d="M166 1298q94 46 161 89t126 102h32v-864h144v-29h-406v29h144v753q-68 -44 -187 -102zM412 -10l778 1499l37 -19l-778 -1499zM918 0v23q63 51 97.5 80t89 78.5t85 84.5t67.5 85t56.5 94t33 99t13.5 111q0 91 -38 150t-120 59q-63 0 -100 -25t-37 -67q0 -10 8 -35t8 -43 q0 -45 -51 -45q-76 0 -76 70q0 69 78.5 121.5t177.5 52.5q123 0 204 -77t81 -179q0 -80 -61.5 -169.5t-143.5 -164.5l-217 -194h301q32 0 54 11.5t33 33t15 35t8 34.5q1 4 1 6h24v-229h-591z" />
<glyph unicode="&#xbe;" horiz-adv-x="1708" d="M102 778l31 4q19 -92 76.5 -135t136.5 -43q109 0 149 63.5t40 186.5q0 117 -38 169t-124 52q-14 0 -28 -2t-27.5 -5.5t-24 -7t-23 -9.5t-19 -9t-17.5 -9t-13 -7l-18 27q7 3 25 12t38 17.5t43 13.5q32 8 49.5 13.5t45.5 17t44 26.5t32.5 37t24 54t7.5 73q0 75 -30.5 109 t-96.5 34q-64 0 -95.5 -27t-31.5 -57q0 -12 12.5 -38t12.5 -38q0 -43 -62 -43q-59 0 -59 60q0 67 64.5 119.5t170.5 52.5q115 0 178.5 -60t63.5 -131q0 -34 -14.5 -63.5t-36 -49.5t-53.5 -38t-57.5 -28.5t-57.5 -20.5v-4q122 -22 188 -89.5t66 -148.5q0 -111 -93.5 -196 t-224.5 -85q-59 0 -106 18t-72.5 42t-43.5 56t-23.5 51t-8.5 36zM412 -10l778 1499l37 -19l-778 -1499zM901 211q11 22 58 111.5t68.5 129t59 108.5t67 117t56.5 87q63 90 88.5 109.5t67.5 19.5q55 0 55 -33q0 -8 -6.5 -17.5t-24 -26.5t-38.5 -37t-58.5 -57.5t-76.5 -78.5 q-74 -79 -147 -189.5t-122 -209.5h320v325h118v-325h111v-33h-111v-182h111v-29h-340v29h111v182h-367z" />
<glyph unicode="&#xbf;" horiz-adv-x="833" d="M115 -250q0 62 9.5 117t30.5 104.5t52.5 85t78 56t103.5 20.5q81 0 146 -70v455h32v-514h-32q-25 51 -56 75.5t-82 24.5t-80.5 -30t-45 -108t-15.5 -216q0 -130 17.5 -206t44.5 -102t69 -26t82.5 20.5t40.5 61.5q0 25 -24.5 64.5t-24.5 68.5q0 31 23.5 51.5t58.5 20.5 q40 0 67 -21t27 -63q0 -33 -16 -71.5t-46.5 -75t-83 -60.5t-116.5 -24q-120 0 -190 93t-70 269zM444 797q0 44 32.5 76t76.5 32t76.5 -32t32.5 -76t-32.5 -76.5t-76.5 -32.5t-76.5 32.5t-32.5 76.5z" />
<glyph unicode="&#xc0;" horiz-adv-x="1517" d="M-2 0v29h180l553 1466h49l557 -1466h183v-29h-631v29h227l-215 569h-475l-215 -569h227v-29h-440zM438 627h451l-225 596zM479 1855q0 29 20.5 50.5t49.5 21.5q25 0 40 -11.5t52 -56.5l3 -3t2.5 -3.5t3 -4l3.5 -3.5l242 -295h-29l-350 250q-37 26 -37 55z" />
<glyph unicode="&#xc1;" horiz-adv-x="1517" d="M-2 0v29h180l553 1466h49l557 -1466h183v-29h-631v29h227l-215 569h-475l-215 -569h227v-29h-440zM438 627h451l-225 596zM674 1550l241 295q51 62 66 72q17 10 39 10q29 0 49.5 -21.5t20.5 -50.5t-37 -55l-351 -250h-28z" />
<glyph unicode="&#xc2;" horiz-adv-x="1517" d="M-2 0v29h180l553 1466h49l557 -1466h183v-29h-631v29h227l-215 569h-475l-215 -569h227v-29h-440zM438 627h451l-225 596zM471 1550l231 342h115l232 -342h-29l-260 215l-260 -215h-29z" />
<glyph unicode="&#xc3;" horiz-adv-x="1517" d="M-2 0v29h180l553 1466h49l557 -1466h183v-29h-631v29h227l-215 569h-475l-215 -569h227v-29h-440zM438 627h451l-225 596zM440 1599q17 90 75.5 146.5t121.5 56.5q49 0 141 -47q2 -1 22.5 -11t25 -12t21.5 -9.5t25.5 -9.5t21.5 -4.5t24 -2.5q31 0 56.5 13t41.5 32.5 t23.5 33t11.5 23.5h28q-3 -15 -9 -33t-22.5 -51.5t-37.5 -59t-58 -45.5t-80 -20q-27 0 -56 9t-42.5 15.5t-48.5 25.5q-2 1 -17.5 9.5t-19 10t-17 8t-19.5 8.5t-17 5.5t-20 4.5t-19 1q-31 0 -56.5 -11t-39 -28.5t-21 -31.5t-10.5 -26h-29z" />
<glyph unicode="&#xc4;" horiz-adv-x="1517" d="M-2 0v29h180l553 1466h49l557 -1466h183v-29h-631v29h227l-215 569h-475l-215 -569h227v-29h-440zM438 627h451l-225 596zM475 1735q0 38 28 66t66 28t66.5 -28t28.5 -66t-28.5 -66.5t-66.5 -28.5t-66 28.5t-28 66.5zM856 1735q0 38 28 66t66 28t66 -28t28 -66t-28 -66.5 t-66 -28.5t-66 28.5t-28 66.5z" />
<glyph unicode="&#xc5;" horiz-adv-x="1517" d="M-2 0v29h180l553 1466h49l557 -1466h183v-29h-631v29h227l-215 569h-475l-215 -569h227v-29h-440zM438 627h451l-225 596zM571 1726q0 48 21 86.5t52.5 59t61.5 31t54 10.5t54 -10.5t61 -31t52 -59t21 -86.5q0 -73 -57 -128.5t-131 -55.5t-131.5 55.5t-57.5 128.5z M662 1726q0 -90 23.5 -125.5t74.5 -35.5t74.5 35.5t23.5 125.5q0 37 -3 62t-12.5 50.5t-30 38.5t-52.5 13t-52.5 -13t-30 -38.5t-12.5 -50.5t-3 -62z" />
<glyph unicode="&#xc6;" horiz-adv-x="1933" d="M-18 0v29h122l818 1401h-201v28h1010v-338h-23q-36 127 -104 209q-41 53 -89 77t-131 24h-225v-633h82q55 0 95.5 21.5t66.5 62t41 84t26 102.5h23v-569h-23q-11 59 -26 102.5t-41 84t-66.5 62t-95.5 21.5h-82v-739h215q106 0 157 18.5t91 63.5q98 104 152 299h22v-410 h-1069v29h227v575h-481l-334 -575h228v-29h-385zM489 633h465v797h-4z" />
<glyph unicode="&#xc7;" horiz-adv-x="1478" d="M158 725q0 372 291 612q98 82 198.5 120t241.5 38q73 0 139.5 -20t115.5 -40t81 -20q37 0 55 10.5t35 32.5h31v-409h-23q-17 71 -36 124.5t-54.5 111.5t-82 95.5t-118 61.5t-162.5 24t-163.5 -25.5t-121.5 -67t-85.5 -103.5t-56.5 -123.5t-31.5 -141t-15 -142 t-3.5 -138.5q0 -169 22.5 -296t62.5 -208.5t101.5 -132t131 -70.5t159.5 -20q105 0 185 28t126 63.5t83 104.5t51.5 114t36.5 128h22v-436h-31q-34 43 -90 43q-30 0 -86.5 -18.5t-134 -37t-158.5 -18.5q-10 0 -14 2l-110 -118l4 -5q42 29 100 29q19 0 44 -8t54.5 -25.5 t49.5 -55.5t20 -89q0 -89 -62.5 -142t-152.5 -53q-85 0 -158 62l17 24q69 -51 135 -51q104 0 104 162q0 135 -96 135q-49 0 -82 -26l-29 30l125 131q-244 16 -430 199q-235 235 -235 555z" />
<glyph unicode="&#xc8;" horiz-adv-x="1441" d="M61 0v29h228v1401h-228v28h1172v-354h-23q-29 86 -58.5 142t-72.5 100t-103 64t-142 20h-340v-633h133q94 0 147 25t87.5 87.5t64.5 188.5h22v-637h-22q-33 133 -55 179q-52 109 -165 125q-22 3 -47 3h-165v-739h387q85 0 155 32t113 79t74.5 107.5t45 109t19.5 92.5h23 v-449h-1250zM440 1855q0 29 20.5 50.5t49.5 21.5q25 0 40 -11.5t52 -56.5l3 -3t2.5 -3.5t3 -4l3.5 -3.5l242 -295h-29l-350 250q-37 26 -37 55z" />
<glyph unicode="&#xc9;" horiz-adv-x="1441" d="M61 0v29h228v1401h-228v28h1172v-354h-23q-29 86 -58.5 142t-72.5 100t-103 64t-142 20h-340v-633h133q94 0 147 25t87.5 87.5t64.5 188.5h22v-637h-22q-33 133 -55 179q-52 109 -165 125q-22 3 -47 3h-165v-739h387q85 0 155 32t113 79t74.5 107.5t45 109t19.5 92.5h23 v-449h-1250zM635 1550l242 295q51 61 64 71q16 11 40 11q29 0 49.5 -21.5t20.5 -50.5t-37 -55l-350 -250h-29z" />
<glyph unicode="&#xca;" horiz-adv-x="1441" d="M61 0v29h228v1401h-228v28h1172v-354h-23q-29 86 -58.5 142t-72.5 100t-103 64t-142 20h-340v-633h133q94 0 147 25t87.5 87.5t64.5 188.5h22v-637h-22q-33 133 -55 179q-52 109 -165 125q-22 3 -47 3h-165v-739h387q85 0 155 32t113 79t74.5 107.5t45 109t19.5 92.5h23 v-449h-1250zM432 1550l232 342h114l232 -342h-29l-260 215l-260 -215h-29z" />
<glyph unicode="&#xcb;" horiz-adv-x="1441" d="M61 0v29h228v1401h-228v28h1172v-354h-23q-29 86 -58.5 142t-72.5 100t-103 64t-142 20h-340v-633h133q94 0 147 25t87.5 87.5t64.5 188.5h22v-637h-22q-33 133 -55 179q-52 109 -165 125q-22 3 -47 3h-165v-739h387q85 0 155 32t113 79t74.5 107.5t45 109t19.5 92.5h23 v-449h-1250zM436 1735q0 38 28 66t66 28t66.5 -28t28.5 -66t-28.5 -66.5t-66.5 -28.5t-66 28.5t-28 66.5zM817 1735q0 38 28 66t66 28t66.5 -28t28.5 -66t-28.5 -66.5t-66.5 -28.5t-66 28.5t-28 66.5z" />
<glyph unicode="&#xcc;" horiz-adv-x="794" d="M68 0v29h227v1401h-227v28h659v-28h-227v-1401h227v-29h-659zM117 1855q0 30 20 51t49 21q27 0 43 -13.5t62 -68.5l241 -295h-28l-350 250q-37 26 -37 55z" />
<glyph unicode="&#xcd;" horiz-adv-x="794" d="M68 0v29h227v1401h-227v28h659v-28h-227v-1401h227v-29h-659zM311 1550l242 295q51 61 64 71q16 11 40 11q29 0 49.5 -21.5t20.5 -50.5t-37 -55l-350 -250h-29z" />
<glyph unicode="&#xce;" horiz-adv-x="794" d="M68 0v29h227v1401h-227v28h659v-28h-227v-1401h227v-29h-659zM109 1550l231 342h115l231 -342h-29l-260 215l-260 -215h-28z" />
<glyph unicode="&#xcf;" horiz-adv-x="794" d="M68 0v29h227v1401h-227v28h659v-28h-227v-1401h227v-29h-659zM113 1735q0 38 28 66t66 28t66 -28t28 -66t-28 -66.5t-66 -28.5t-66 28.5t-28 66.5zM494 1735q0 38 28 66t66 28t66 -28t28 -66t-28 -66.5t-66 -28.5t-66 28.5t-28 66.5z" />
<glyph unicode="&#xd0;" horiz-adv-x="1669" d="M61 0v29h228v739h-228v29h228v633h-228v28h381q37 0 115 4q19 0 57 1t58 1q124 0 200 -10t160 -37q242 -80 360.5 -261.5t118.5 -426.5q0 -130 -32.5 -241t-91 -193t-133 -141.5t-164.5 -98.5q-94 -40 -176 -51.5t-236 -11.5q-42 0 -134.5 4t-133.5 4h-349zM494 29 q70 -9 182 -9q62 0 112 4.5t106 18.5t100.5 37.5t88 64.5t76.5 97q64 106 90.5 221t26.5 258q0 134 -19 241t-63 197t-113.5 150t-173.5 93.5t-239 33.5q-21 0 -174 -6v-633h303v-29h-303v-739z" />
<glyph unicode="&#xd1;" horiz-adv-x="1478" d="M43 0v29h227v1401h-227v28h438l693 -1116h4v1088h-228v28h486v-28h-228v-1459h-41l-862 1375h-4v-1317h227v-29h-485zM420 1599q17 90 75 146.5t121 56.5q50 0 142 -47q5 -2 23 -11t24.5 -12t21.5 -9.5t24 -9t22 -5t24 -2.5q31 0 56.5 13t41.5 32.5t23.5 33t11.5 23.5h29 q-3 -15 -9 -33t-22.5 -51.5t-37.5 -59t-58 -45.5t-80 -20q-27 0 -56 9t-42.5 15.5t-48.5 25.5q-3 2 -14 8t-14.5 7.5t-13.5 6.5t-14.5 7l-13.5 6t-15 5.5l-14 3.5t-15.5 2.5t-15.5 0.5q-31 0 -56 -11t-39 -28.5t-21 -31.5t-10 -26h-29z" />
<glyph unicode="&#xd2;" horiz-adv-x="1703" d="M139 731q0 157 64.5 301.5t166 244t229.5 159t253 59.5q134 0 263 -59t228.5 -159.5t160.5 -244t61 -301.5q0 -142 -56 -280.5t-150 -244.5t-228 -171.5t-279 -65.5q-121 0 -232 41t-197.5 114t-151 168t-98.5 208.5t-34 230.5zM375 731q0 -379 109.5 -556t367.5 -177 t367.5 177t109.5 556q0 86 -5.5 160t-19.5 150.5t-37 137.5t-60 116t-86 91.5t-117 58t-152 21.5t-152 -21.5t-117 -58t-86 -91.5t-60 -116t-37 -137.5t-19.5 -150.5t-5.5 -160zM571 1855q0 29 20.5 50.5t49.5 21.5q25 0 40 -11.5t52 -56.5l3 -3t2.5 -3.5t3 -4l3.5 -3.5 l242 -295h-29l-350 250q-37 26 -37 55z" />
<glyph unicode="&#xd3;" horiz-adv-x="1703" d="M139 731q0 157 64.5 301.5t166 244t229.5 159t253 59.5q134 0 263 -59t228.5 -159.5t160.5 -244t61 -301.5q0 -142 -56 -280.5t-150 -244.5t-228 -171.5t-279 -65.5q-121 0 -232 41t-197.5 114t-151 168t-98.5 208.5t-34 230.5zM375 731q0 -379 109.5 -556t367.5 -177 t367.5 177t109.5 556q0 86 -5.5 160t-19.5 150.5t-37 137.5t-60 116t-86 91.5t-117 58t-152 21.5t-152 -21.5t-117 -58t-86 -91.5t-60 -116t-37 -137.5t-19.5 -150.5t-5.5 -160zM766 1550l242 295q51 61 64 71q16 11 40 11q29 0 49.5 -21.5t20.5 -50.5t-37 -55l-350 -250 h-29z" />
<glyph unicode="&#xd4;" horiz-adv-x="1703" d="M139 731q0 157 64.5 301.5t166 244t229.5 159t253 59.5q134 0 263 -59t228.5 -159.5t160.5 -244t61 -301.5q0 -142 -56 -280.5t-150 -244.5t-228 -171.5t-279 -65.5q-121 0 -232 41t-197.5 114t-151 168t-98.5 208.5t-34 230.5zM375 731q0 -379 109.5 -556t367.5 -177 t367.5 177t109.5 556q0 86 -5.5 160t-19.5 150.5t-37 137.5t-60 116t-86 91.5t-117 58t-152 21.5t-152 -21.5t-117 -58t-86 -91.5t-60 -116t-37 -137.5t-19.5 -150.5t-5.5 -160zM563 1550l232 342h114l232 -342h-29l-260 215l-260 -215h-29z" />
<glyph unicode="&#xd5;" horiz-adv-x="1703" d="M139 731q0 157 64.5 301.5t166 244t229.5 159t253 59.5q134 0 263 -59t228.5 -159.5t160.5 -244t61 -301.5q0 -142 -56 -280.5t-150 -244.5t-228 -171.5t-279 -65.5q-121 0 -232 41t-197.5 114t-151 168t-98.5 208.5t-34 230.5zM375 731q0 -379 109.5 -556t367.5 -177 t367.5 177t109.5 556q0 86 -5.5 160t-19.5 150.5t-37 137.5t-60 116t-86 91.5t-117 58t-152 21.5t-152 -21.5t-117 -58t-86 -91.5t-60 -116t-37 -137.5t-19.5 -150.5t-5.5 -160zM532 1599q17 90 75.5 146.5t121.5 56.5q49 0 141 -47q2 -1 22.5 -11t25 -12t21.5 -9.5 t25.5 -9.5t21.5 -4.5t24 -2.5q31 0 56.5 13t41.5 32.5t23.5 33t11.5 23.5h28q-3 -15 -8.5 -33t-22 -51.5t-38 -59t-58 -45.5t-79.5 -20q-27 0 -55.5 8.5t-43.5 16t-49 25.5q-2 1 -17.5 9.5t-19 10t-17 8t-19.5 8.5t-17 5.5t-20 4.5t-19 1q-31 0 -56.5 -11t-39 -28.5 t-21 -31.5t-10.5 -26h-29z" />
<glyph unicode="&#xd6;" horiz-adv-x="1703" d="M139 731q0 157 64.5 301.5t166 244t229.5 159t253 59.5q134 0 263 -59t228.5 -159.5t160.5 -244t61 -301.5q0 -142 -56 -280.5t-150 -244.5t-228 -171.5t-279 -65.5q-121 0 -232 41t-197.5 114t-151 168t-98.5 208.5t-34 230.5zM375 731q0 -379 109.5 -556t367.5 -177 t367.5 177t109.5 556q0 86 -5.5 160t-19.5 150.5t-37 137.5t-60 116t-86 91.5t-117 58t-152 21.5t-152 -21.5t-117 -58t-86 -91.5t-60 -116t-37 -137.5t-19.5 -150.5t-5.5 -160zM567 1735q0 38 28.5 66t66.5 28t66 -28t28 -66t-28 -66.5t-66 -28.5t-66.5 28.5t-28.5 66.5z M948 1735q0 38 28 66t66 28t66.5 -28t28.5 -66t-28.5 -66.5t-66.5 -28.5t-66 28.5t-28 66.5z" />
<glyph unicode="&#xd7;" horiz-adv-x="1214" d="M154 68l424 424l-424 423l26 29l426 -426l426 426l27 -29l-424 -423l424 -424l-27 -29l-426 426l-426 -426z" />
<glyph unicode="&#xd8;" horiz-adv-x="1703" d="M139 731q0 124 40.5 242.5t110.5 211t160 163.5t194.5 109t207.5 38q170 0 319 -88l109 215l27 -12l-109 -217q164 -101 265.5 -276t101.5 -386q0 -142 -56 -280.5t-150 -244.5t-228 -171.5t-279 -65.5q-177 0 -324 84l-104 -211l-27 13l107 215q-166 98 -265.5 278.5 t-99.5 382.5zM375 731q0 -451 153 -612l621 1241q-112 106 -297 106q-84 0 -152 -21.5t-117 -58t-86 -91.5t-60 -116t-37 -137.5t-19.5 -150.5t-5.5 -160zM551 98q106 -100 301 -100q258 0 367.5 177t109.5 556q0 430 -158 608z" />
<glyph unicode="&#xd9;" horiz-adv-x="1554" d="M43 1430v28h659v-28h-227v-990q0 -240 83 -341t255 -101q121 0 207 35.5t147 118.5q46 61 66 125.5t20 199.5v953h-227v28h485v-28h-227v-994q0 -93 -20 -162.5t-74 -140.5q-124 -164 -414 -164q-506 0 -506 492v969h-227zM530 1855q0 29 20.5 50.5t49.5 21.5 q27 0 43 -13.5t62 -68.5l241 -295h-28l-351 250q-37 26 -37 55z" />
<glyph unicode="&#xda;" horiz-adv-x="1554" d="M43 1430v28h659v-28h-227v-990q0 -240 83 -341t255 -101q121 0 207 35.5t147 118.5q46 61 66 125.5t20 199.5v953h-227v28h485v-28h-227v-994q0 -93 -20 -162.5t-74 -140.5q-124 -164 -414 -164q-506 0 -506 492v969h-227zM725 1550l242 295q51 61 64 71q16 11 40 11 q29 0 49.5 -21.5t20.5 -50.5t-37 -55l-350 -250h-29z" />
<glyph unicode="&#xdb;" horiz-adv-x="1554" d="M43 1430v28h659v-28h-227v-990q0 -240 83 -341t255 -101q121 0 207 35.5t147 118.5q46 61 66 125.5t20 199.5v953h-227v28h485v-28h-227v-994q0 -93 -20 -162.5t-74 -140.5q-124 -164 -414 -164q-506 0 -506 492v969h-227zM522 1550l232 342h114l232 -342h-29l-260 215 l-260 -215h-29z" />
<glyph unicode="&#xdc;" horiz-adv-x="1554" d="M43 1430v28h659v-28h-227v-990q0 -240 83 -341t255 -101q121 0 207 35.5t147 118.5q46 61 66 125.5t20 199.5v953h-227v28h485v-28h-227v-994q0 -93 -20 -162.5t-74 -140.5q-124 -164 -414 -164q-506 0 -506 492v969h-227zM526 1735q0 38 28.5 66t66.5 28t66 -28t28 -66 t-28 -66.5t-66 -28.5t-66.5 28.5t-28.5 66.5zM907 1735q0 38 28 66t66 28t66.5 -28t28.5 -66t-28.5 -66.5t-66.5 -28.5t-66 28.5t-28 66.5z" />
<glyph unicode="&#xdd;" horiz-adv-x="1441" d="M-4 1430v28h627v-28h-205l409 -721l387 721h-206v28h438v-28h-199l-399 -748v-653h227v-29h-659v29h227v587l-461 814h-186zM676 1550l242 295q51 61 64 71q16 11 40 11q29 0 49.5 -21.5t20.5 -50.5t-37 -55l-350 -250h-29z" />
<glyph unicode="&#xde;" horiz-adv-x="1327" d="M61 0v29h228v1401h-228v28h660v-28h-227v-222q10 0 73 3t107 3q155 0 278 -47.5t194 -136.5t71 -205q0 -118 -80.5 -207.5t-208.5 -134.5t-281 -45q-53 0 -153 17v-426h227v-29h-660zM494 483q88 -16 165 -16q155 0 238.5 90.5t83.5 267.5q0 106 -20 175t-66 110.5 t-113.5 58.5t-169.5 17q-49 0 -118 -6v-697z" />
<glyph unicode="&#xdf;" horiz-adv-x="1251" d="M68 0v29h157v952q0 109 16 184.5t60 143.5q34 54 81 92.5t98 58t96.5 27.5t91.5 8q127 0 212 -69t85 -205q0 -119 -80 -195l-82 -80q-17 -17 -24 -25.5t-16 -27.5t-9 -41q0 -69 80 -137l178 -154q135 -117 135 -262q0 -67 -22 -122t-58 -91.5t-83.5 -61.5t-95.5 -36 t-97 -11q-48 0 -95.5 9t-93 28t-74 56t-28.5 86q0 110 100 110q37 0 59.5 -19t22.5 -50q0 -17 -17.5 -55t-17.5 -58q0 -39 34 -58.5t122 -19.5q207 0 207 201q0 42 -10.5 77t-34 66t-44 51.5t-57.5 53.5l-164 145q-96 83 -96 168q0 48 23.5 82.5t72.5 73.5l86 67 q78 61 111 110.5t33 129.5q0 115 -71 172t-167 57q-78 0 -135.5 -29t-91 -81.5t-49 -118t-15.5 -144.5v-1087h-333z" />
<glyph unicode="&#xe0;" horiz-adv-x="985" d="M84 170q0 35 8 64t19.5 50t34 39t40.5 29.5t50 24t52.5 19t57.5 17.5t57 17q127 42 159 63q49 32 60 96q5 30 5 77q0 109 -31.5 160t-126.5 51q-72 0 -114 -24.5t-42 -76.5q0 -26 6.5 -68t6.5 -51q0 -30 -21.5 -48.5t-58.5 -18.5q-62 0 -81.5 22t-19.5 66q0 96 85 161.5 t235 65.5q91 0 157.5 -23t103.5 -64t54 -89.5t17 -105.5v-510q0 -58 17 -79.5t54 -21.5q51 0 95 33l16 -22q-67 -52 -154 -52q-93 0 -138 39.5t-64 120.5h-5q-12 -26 -17.5 -37.5t-28 -39.5t-48 -42.5t-72 -27.5t-104.5 -13q-264 0 -264 199zM213 1436q0 29 20.5 50t49.5 21 q25 0 40 -11.5t52 -56.5l3 -3t2.5 -3.5t3 -4l3.5 -3.5l242 -295h-29l-350 250q-37 26 -37 56zM260 193q0 -181 152 -181q52 0 91.5 19.5t61 48.5t35 69.5t17.5 75t4 72.5v205h-5q-3 -29 -67 -53l-154 -62q-135 -54 -135 -194z" />
<glyph unicode="&#xe1;" horiz-adv-x="985" d="M84 170q0 35 8 64t19.5 50t34 39t40.5 29.5t50 24t52.5 19t57.5 17.5t57 17q127 42 159 63q49 32 60 96q5 30 5 77q0 109 -31.5 160t-126.5 51q-72 0 -114 -24.5t-42 -76.5q0 -26 6.5 -68t6.5 -51q0 -30 -21.5 -48.5t-58.5 -18.5q-62 0 -81.5 22t-19.5 66q0 96 85 161.5 t235 65.5q91 0 157.5 -23t103.5 -64t54 -89.5t17 -105.5v-510q0 -58 17 -79.5t54 -21.5q51 0 95 33l16 -22q-67 -52 -154 -52q-93 0 -138 39.5t-64 120.5h-5q-12 -26 -17.5 -37.5t-28 -39.5t-48 -42.5t-72 -27.5t-104.5 -13q-264 0 -264 199zM260 193q0 -181 152 -181 q52 0 91.5 19.5t61 48.5t35 69.5t17.5 75t4 72.5v205h-5q-3 -29 -67 -53l-154 -62q-135 -54 -135 -194zM408 1130l241 295q51 62 66 72q17 10 39 10q29 0 49 -21t20 -50q0 -30 -37 -56l-350 -250h-28z" />
<glyph unicode="&#xe2;" horiz-adv-x="985" d="M84 170q0 35 8 64t19.5 50t34 39t40.5 29.5t50 24t52.5 19t57.5 17.5t57 17q127 42 159 63q49 32 60 96q5 30 5 77q0 109 -31.5 160t-126.5 51q-72 0 -114 -24.5t-42 -76.5q0 -26 6.5 -68t6.5 -51q0 -30 -21.5 -48.5t-58.5 -18.5q-62 0 -81.5 22t-19.5 66q0 96 85 161.5 t235 65.5q91 0 157.5 -23t103.5 -64t54 -89.5t17 -105.5v-510q0 -58 17 -79.5t54 -21.5q51 0 95 33l16 -22q-67 -52 -154 -52q-93 0 -138 39.5t-64 120.5h-5q-12 -26 -17.5 -37.5t-28 -39.5t-48 -42.5t-72 -27.5t-104.5 -13q-264 0 -264 199zM205 1130l231 343h115l231 -343 h-28l-260 216l-261 -216h-28zM260 193q0 -181 152 -181q52 0 91.5 19.5t61 48.5t35 69.5t17.5 75t4 72.5v205h-5q-3 -29 -67 -53l-154 -62q-135 -54 -135 -194z" />
<glyph unicode="&#xe3;" horiz-adv-x="985" d="M84 170q0 35 8 64t19.5 50t34 39t40.5 29.5t50 24t52.5 19t57.5 17.5t57 17q127 42 159 63q49 32 60 96q5 30 5 77q0 109 -31.5 160t-126.5 51q-72 0 -114 -24.5t-42 -76.5q0 -26 6.5 -68t6.5 -51q0 -30 -21.5 -48.5t-58.5 -18.5q-62 0 -81.5 22t-19.5 66q0 96 85 161.5 t235 65.5q91 0 157.5 -23t103.5 -64t54 -89.5t17 -105.5v-510q0 -58 17 -79.5t54 -21.5q51 0 95 33l16 -22q-67 -52 -154 -52q-93 0 -138 39.5t-64 120.5h-5q-12 -26 -17.5 -37.5t-28 -39.5t-48 -42.5t-72 -27.5t-104.5 -13q-264 0 -264 199zM174 1180q17 90 75.5 146 t121.5 56q49 0 141 -47q5 -2 23 -11t24.5 -12t21.5 -9.5t24 -9t22 -5t24 -2.5q31 0 56.5 13t41.5 33t23.5 33.5t11.5 23.5h29q-3 -15 -9 -33t-22.5 -51.5t-37.5 -59t-58 -45.5t-80 -20q-27 0 -55 8.5t-43.5 15.5t-48.5 25q-2 1 -17.5 9.5t-19 10t-17 8t-19.5 8.5t-17 5.5 t-20 4.5t-19 1q-31 0 -56 -11t-39 -28t-21.5 -31t-10.5 -26h-29zM260 193q0 -181 152 -181q52 0 91.5 19.5t61 48.5t35 69.5t17.5 75t4 72.5v205h-5q-3 -29 -67 -53l-154 -62q-135 -54 -135 -194z" />
<glyph unicode="&#xe4;" horiz-adv-x="985" d="M84 170q0 35 8 64t19.5 50t34 39t40.5 29.5t50 24t52.5 19t57.5 17.5t57 17q127 42 159 63q49 32 60 96q5 30 5 77q0 109 -31.5 160t-126.5 51q-72 0 -114 -24.5t-42 -76.5q0 -26 6.5 -68t6.5 -51q0 -30 -21.5 -48.5t-58.5 -18.5q-62 0 -81.5 22t-19.5 66q0 96 85 161.5 t235 65.5q91 0 157.5 -23t103.5 -64t54 -89.5t17 -105.5v-510q0 -58 17 -79.5t54 -21.5q51 0 95 33l16 -22q-67 -52 -154 -52q-93 0 -138 39.5t-64 120.5h-5q-12 -26 -17.5 -37.5t-28 -39.5t-48 -42.5t-72 -27.5t-104.5 -13q-264 0 -264 199zM209 1356q0 38 28 66t66 28 t66 -28t28 -66t-28 -66t-66 -28t-66 28t-28 66zM260 193q0 -181 152 -181q52 0 91.5 19.5t61 48.5t35 69.5t17.5 75t4 72.5v205h-5q-3 -29 -67 -53l-154 -62q-135 -54 -135 -194zM590 1356q0 38 28 66t66 28t66 -28t28 -66t-28 -66t-66 -28t-66 28t-28 66z" />
<glyph unicode="&#xe5;" horiz-adv-x="985" d="M84 170q0 35 8 64t19.5 50t34 39t40.5 29.5t50 24t52.5 19t57.5 17.5t57 17q127 42 159 63q49 32 60 96q5 30 5 77q0 109 -31.5 160t-126.5 51q-72 0 -114 -24.5t-42 -76.5q0 -26 6.5 -68t6.5 -51q0 -30 -21.5 -48.5t-58.5 -18.5q-62 0 -81.5 22t-19.5 66q0 96 85 161.5 t235 65.5q91 0 157.5 -23t103.5 -64t54 -89.5t17 -105.5v-510q0 -58 17 -79.5t54 -21.5q51 0 95 33l16 -22q-67 -52 -154 -52q-93 0 -138 39.5t-64 120.5h-5q-12 -26 -17.5 -37.5t-28 -39.5t-48 -42.5t-72 -27.5t-104.5 -13q-264 0 -264 199zM260 193q0 -181 152 -181 q52 0 91.5 19.5t61 48.5t35 69.5t17.5 75t4 72.5v205h-5q-3 -29 -67 -53l-154 -62q-135 -54 -135 -194zM305 1331q0 48 21 86.5t52.5 59t61.5 31t54 10.5t54 -10.5t61 -31t52 -59t21 -86.5q0 -73 -57 -128.5t-131 -55.5t-131.5 55.5t-57.5 128.5zM395 1331q0 -89 24 -125.5 t75 -36.5t74.5 36t23.5 126q0 37 -3 62t-12.5 50.5t-30 38.5t-52.5 13t-52.5 -13t-30 -38.5t-13 -51t-3.5 -61.5z" />
<glyph unicode="&#xe6;" horiz-adv-x="1478" d="M72 170q0 98 50 144.5t163 82.5l200 64q79 25 117.5 72t38.5 137q0 207 -184 207q-72 0 -114 -24.5t-42 -76.5q0 -26 6 -68t6 -51q0 -30 -21.5 -48.5t-58.5 -18.5q-62 0 -81 21.5t-19 66.5q0 96 85 161.5t235 65.5q204 0 288 -121q1 1 15 12.5t21.5 18t26.5 19.5t34 21 t39 18.5t47 16.5t52.5 10.5t59.5 4.5q34 0 74 -9t90.5 -36.5t90 -69.5t66.5 -115.5t27 -166.5h-573q0 -15 -1 -41.5t-1 -42.5q0 -65 3 -113t11.5 -100t25.5 -87t43 -65t67 -44.5t94 -14.5q42 0 85.5 12.5t86 37t74.5 70t44 103.5l31 -8q-25 -86 -64 -134q-91 -110 -278 -110 q-296 0 -379 240h-4q-3 -28 -13 -56t-33 -62.5t-56 -60.5t-88 -43.5t-123 -17.5q-264 0 -264 199zM248 193q0 -181 151 -181q62 0 107 27.5t68.5 66t37.5 96.5t17.5 103.5t3.5 102.5v118h-4q-14 -26 -33 -42t-59 -33l-154 -64q-135 -57 -135 -194zM813 537h373q6 129 6 139 q0 98 -39 149.5t-111 51.5q-107 0 -161 -82t-68 -258z" />
<glyph unicode="&#xe7;" horiz-adv-x="985" d="M92 434q0 199 139.5 335t337.5 136q57 0 113.5 -13.5t106.5 -39.5t81 -73t31 -107q0 -44 -28 -71.5t-78 -27.5q-40 0 -69.5 17t-29.5 51q0 20 14.5 70t14.5 67q0 46 -46.5 72.5t-115.5 26.5q-45 0 -77 -6t-70.5 -32t-62 -72t-40 -132t-16.5 -207q0 -76 6.5 -136t25 -116 t48 -93.5t78 -60t112.5 -22.5q50 0 92.5 10t71.5 23.5t55 37.5t39 40.5t27.5 46t18 39.5t12.5 34l30 -6q-7 -26 -15.5 -48.5t-33 -61t-56 -66t-88.5 -50.5t-128 -28l-115 -118l4 -5q42 29 101 29q19 0 44 -8t54.5 -25.5t49.5 -55.5t20 -89q0 -89 -62.5 -142t-152.5 -53 q-85 0 -158 62l16 24q69 -51 135 -51q105 0 105 162q0 135 -96 135q-49 0 -82 -26l-29 30l123 131q-82 2 -159 28.5t-145.5 79t-110.5 144.5t-42 211z" />
<glyph unicode="&#xe8;" horiz-adv-x="1024" d="M92 434q0 119 61 227.5t168.5 176t231.5 67.5q48 0 97.5 -12t100.5 -42t90 -74t64 -113.5t25 -155.5h-631q0 -11 -1 -41.5t-1 -54.5q0 -63 4.5 -113.5t21 -109t44.5 -97.5t79 -65.5t121 -26.5q50 0 92.5 10t71.5 23.5t55 37.5t39 40.5t27.5 46t18 39.5t12.5 34l30 -6 q-7 -26 -16 -49t-36 -64t-61.5 -69t-96.5 -50t-138 -22q-207 0 -340 128t-133 335zM231 1436q0 29 20.5 50t49.5 21q27 0 43 -13.5t62 -68.5l241 -295h-29l-350 250q-37 26 -37 56zM301 537h420q4 36 4 53v51q0 130 -46.5 183t-133.5 53q-66 0 -113.5 -27t-74 -76.5 t-39.5 -106.5t-17 -130z" />
<glyph unicode="&#xe9;" horiz-adv-x="1024" d="M92 434q0 119 61 227.5t168.5 176t231.5 67.5q48 0 97.5 -12t100.5 -42t90 -74t64 -113.5t25 -155.5h-631q0 -11 -1 -41.5t-1 -54.5q0 -63 4.5 -113.5t21 -109t44.5 -97.5t79 -65.5t121 -26.5q50 0 92.5 10t71.5 23.5t55 37.5t39 40.5t27.5 46t18 39.5t12.5 34l30 -6 q-7 -26 -16 -49t-36 -64t-61.5 -69t-96.5 -50t-138 -22q-207 0 -340 128t-133 335zM301 537h420q4 36 4 53v51q0 130 -46.5 183t-133.5 53q-66 0 -113.5 -27t-74 -76.5t-39.5 -106.5t-17 -130zM426 1130l242 295q51 61 64 71q16 11 40 11q29 0 49.5 -21t20.5 -50 q0 -30 -37 -56l-350 -250h-29z" />
<glyph unicode="&#xea;" horiz-adv-x="1024" d="M92 434q0 119 61 227.5t168.5 176t231.5 67.5q48 0 97.5 -12t100.5 -42t90 -74t64 -113.5t25 -155.5h-631q0 -11 -1 -41.5t-1 -54.5q0 -63 4.5 -113.5t21 -109t44.5 -97.5t79 -65.5t121 -26.5q50 0 92.5 10t71.5 23.5t55 37.5t39 40.5t27.5 46t18 39.5t12.5 34l30 -6 q-7 -26 -16 -49t-36 -64t-61.5 -69t-96.5 -50t-138 -22q-207 0 -340 128t-133 335zM223 1130l232 343h114l232 -343h-29l-260 216l-260 -216h-29zM301 537h420q4 36 4 53v51q0 130 -46.5 183t-133.5 53q-66 0 -113.5 -27t-74 -76.5t-39.5 -106.5t-17 -130z" />
<glyph unicode="&#xeb;" horiz-adv-x="1024" d="M92 434q0 119 61 227.5t168.5 176t231.5 67.5q48 0 97.5 -12t100.5 -42t90 -74t64 -113.5t25 -155.5h-631q0 -11 -1 -41.5t-1 -54.5q0 -63 4.5 -113.5t21 -109t44.5 -97.5t79 -65.5t121 -26.5q50 0 92.5 10t71.5 23.5t55 37.5t39 40.5t27.5 46t18 39.5t12.5 34l30 -6 q-7 -26 -16 -49t-36 -64t-61.5 -69t-96.5 -50t-138 -22q-207 0 -340 128t-133 335zM227 1356q0 38 28.5 66t66.5 28t66 -28t28 -66t-28 -66t-66 -28t-66.5 28t-28.5 66zM301 537h420q4 36 4 53v51q0 130 -46.5 183t-133.5 53q-66 0 -113.5 -27t-74 -76.5t-39.5 -106.5 t-17 -130zM608 1356q0 38 28 66t66 28t66.5 -28t28.5 -66t-28.5 -66t-66.5 -28t-66 28t-28 66z" />
<glyph unicode="&#xec;" horiz-adv-x="606" d="M23 1436q0 29 20 50t49 21q27 0 43 -13.5t62 -68.5l241 -295h-28l-351 250q-36 26 -36 56zM57 0v29h158v821h-158v29h334v-850h158v-29h-492z" />
<glyph unicode="&#xed;" horiz-adv-x="606" d="M57 0v29h158v821h-158v29h334v-850h158v-29h-492zM217 1130l242 295q51 61 64 71q16 11 40 11q29 0 49.5 -21t20.5 -50q0 -30 -37 -56l-350 -250h-29z" />
<glyph unicode="&#xee;" horiz-adv-x="606" d="M14 1130l232 343h114l232 -343h-29l-260 216l-260 -216h-29zM57 0v29h158v821h-158v29h334v-850h158v-29h-492z" />
<glyph unicode="&#xef;" horiz-adv-x="606" d="M18 1356q0 38 28.5 66t66.5 28t66 -28t28 -66t-28 -66t-66 -28t-66.5 28t-28.5 66zM57 0v29h158v821h-158v29h334v-850h158v-29h-492zM399 1356q0 38 28.5 66t66.5 28t66 -28t28 -66t-28 -66t-66 -28t-66.5 28t-28.5 66z" />
<glyph unicode="&#xf0;" horiz-adv-x="1138" d="M92 438q0 78 28.5 151.5t76.5 130t109 98.5t129.5 64.5t133.5 22.5q141 0 207 -82l4 4q-41 134 -116.5 247t-145.5 177l-246 -145l-12 22l238 142q-136 119 -256 172l14 22q173 -71 301 -159l244 143l12 -23l-233 -137q132 -91 233.5 -208.5t167.5 -276t66 -328.5 q0 -99 -29.5 -183.5t-78 -142t-111 -99t-128.5 -60.5t-131 -19q-119 0 -229 62.5t-179 171.5t-69 233zM297 438q0 -112 15 -193t38.5 -127.5t60.5 -73.5t73 -35.5t85 -8.5t85 8.5t73.5 35.5t61 73.5t38.5 127.5t15 193q0 239 -65 339t-208 100t-207.5 -99.5t-64.5 -339.5z " />
<glyph unicode="&#xf1;" horiz-adv-x="1251" d="M51 0v29h158v821h-158v29h330v-220h4q14 31 26.5 54t43.5 61.5t66 63t92 44t124 19.5q141 0 223 -68.5t82 -205.5v-598h158v-29h-491v29h157v661q0 83 -39 132.5t-116 49.5q-134 0 -230 -109t-96 -271v-463h158v-29h-492zM307 1180q17 90 75.5 146t121.5 56q49 0 141 -47 q5 -2 23 -11t24.5 -12t21.5 -9.5t24 -9t22 -5t24 -2.5q31 0 57 13t41.5 33t23.5 33.5t12 23.5h28q-3 -15 -9 -33t-22.5 -51.5t-37.5 -59t-58 -45.5t-80 -20q-27 0 -55 8.5t-43.5 15.5t-48.5 25q-2 1 -17.5 9.5t-19 10t-17 8t-19.5 8.5t-17 5.5t-20 4.5t-19 1q-31 0 -56 -11 t-39 -28t-21.5 -31t-10.5 -26h-29z" />
<glyph unicode="&#xf2;" horiz-adv-x="1138" d="M92 438q0 78 28.5 151.5t76.5 130t109 98.5t129.5 64.5t133.5 22.5q82 0 167 -35.5t154 -96t113 -149.5t44 -186q0 -124 -69.5 -233t-179.5 -171.5t-229 -62.5t-229 62.5t-179 171.5t-69 233zM289 1436q0 29 20 50t49 21q27 0 43 -13.5t62 -68.5l242 -295h-29l-350 250 q-37 26 -37 56zM297 438q0 -112 15 -193t38.5 -127.5t60.5 -73.5t73 -35.5t85 -8.5t85 8.5t73.5 35.5t61 73.5t38.5 127.5t15 193q0 239 -65 339t-208 100t-207.5 -99.5t-64.5 -339.5z" />
<glyph unicode="&#xf3;" horiz-adv-x="1138" d="M92 438q0 78 28.5 151.5t76.5 130t109 98.5t129.5 64.5t133.5 22.5q82 0 167 -35.5t154 -96t113 -149.5t44 -186q0 -124 -69.5 -233t-179.5 -171.5t-229 -62.5t-229 62.5t-179 171.5t-69 233zM297 438q0 -112 15 -193t38.5 -127.5t60.5 -73.5t73 -35.5t85 -8.5t85 8.5 t73.5 35.5t61 73.5t38.5 127.5t15 193q0 239 -65 339t-208 100t-207.5 -99.5t-64.5 -339.5zM483 1130l242 295q51 61 64 71q16 11 40 11q29 0 49.5 -21t20.5 -50q0 -30 -37 -56l-350 -250h-29z" />
<glyph unicode="&#xf4;" horiz-adv-x="1138" d="M92 438q0 78 28.5 151.5t76.5 130t109 98.5t129.5 64.5t133.5 22.5q82 0 167 -35.5t154 -96t113 -149.5t44 -186q0 -124 -69.5 -233t-179.5 -171.5t-229 -62.5t-229 62.5t-179 171.5t-69 233zM281 1130l231 343h115l231 -343h-29l-260 216l-260 -216h-28zM297 438 q0 -112 15 -193t38.5 -127.5t60.5 -73.5t73 -35.5t85 -8.5t85 8.5t73.5 35.5t61 73.5t38.5 127.5t15 193q0 239 -65 339t-208 100t-207.5 -99.5t-64.5 -339.5z" />
<glyph unicode="&#xf5;" horiz-adv-x="1138" d="M92 438q0 78 28.5 151.5t76.5 130t109 98.5t129.5 64.5t133.5 22.5q82 0 167 -35.5t154 -96t113 -149.5t44 -186q0 -124 -69.5 -233t-179.5 -171.5t-229 -62.5t-229 62.5t-179 171.5t-69 233zM250 1180q17 90 75 146t121 56q50 0 142 -47q5 -2 23 -11t24.5 -12t21.5 -9.5 t24 -9t22 -5t24 -2.5q31 0 56.5 13t41.5 33t23.5 33.5t11.5 23.5h29q-3 -15 -9 -33t-22.5 -51.5t-37.5 -59t-58 -45.5t-80 -20q-27 0 -55 8.5t-43.5 15.5t-48.5 25q-2 1 -17.5 9.5t-19 10t-17 8t-19.5 8.5t-17 5.5t-20 4.5t-19 1q-31 0 -56 -11t-39 -28t-21.5 -31t-10.5 -26 h-29zM297 438q0 -112 15 -193t38.5 -127.5t60.5 -73.5t73 -35.5t85 -8.5t85 8.5t73.5 35.5t61 73.5t38.5 127.5t15 193q0 239 -65 339t-208 100t-207.5 -99.5t-64.5 -339.5z" />
<glyph unicode="&#xf6;" horiz-adv-x="1138" d="M92 438q0 78 28.5 151.5t76.5 130t109 98.5t129.5 64.5t133.5 22.5q82 0 167 -35.5t154 -96t113 -149.5t44 -186q0 -124 -69.5 -233t-179.5 -171.5t-229 -62.5t-229 62.5t-179 171.5t-69 233zM285 1356q0 38 28 66t66 28t66 -28t28 -66t-28 -66t-66 -28t-66 28t-28 66z M297 438q0 -112 15 -193t38.5 -127.5t60.5 -73.5t73 -35.5t85 -8.5t85 8.5t73.5 35.5t61 73.5t38.5 127.5t15 193q0 239 -65 339t-208 100t-207.5 -99.5t-64.5 -339.5zM666 1356q0 38 28 66t66 28t66 -28t28 -66t-28 -66t-66 -28t-66 28t-28 66z" />
<glyph unicode="&#xf7;" horiz-adv-x="1214" d="M115 473v37h983v-37h-983zM498 166q0 44 32 76t76 32t76.5 -32t32.5 -76t-32.5 -76.5t-76.5 -32.5t-76 32.5t-32 76.5zM498 817q0 44 32 76.5t76 32.5t76.5 -32.5t32.5 -76.5t-32.5 -76t-76.5 -32t-76 32t-32 76z" />
<glyph unicode="&#xf8;" horiz-adv-x="1138" d="M92 438q0 78 28.5 151.5t76.5 130t109 98.5t129.5 64.5t133.5 22.5q93 0 193 -49l90 180l27 -12l-91 -180q112 -60 185.5 -169t73.5 -237q0 -124 -69.5 -233t-179.5 -171.5t-229 -62.5q-105 0 -194 47l-88 -178l-27 13l90 180q-114 59 -186 167.5t-72 237.5zM297 438 q0 -256 78 -356l366 733q-57 62 -172 62q-143 0 -207.5 -99.5t-64.5 -339.5zM395 59q57 -59 174 -59q49 0 85 8.5t73.5 35.5t61 73.5t38.5 127.5t15 193q0 259 -78 355z" />
<glyph unicode="&#xf9;" horiz-adv-x="1214" d="M49 850v29h334v-629q0 -56 8 -98.5t26.5 -78t54 -54.5t85.5 -19q45 0 93 27.5t88.5 74.5t66.5 119.5t26 153.5v475h-155v29h332v-850h157v-29h-329v207h-5q-21 -47 -45 -84t-61 -74t-90 -57.5t-117 -20.5q-129 0 -213 58q-20 14 -33 27t-30 39.5t-26 70t-9 102.5v582 h-158zM328 1436q0 29 20 50t49 21q27 0 43 -13.5t62 -68.5l241 -295h-28l-350 250q-37 26 -37 56z" />
<glyph unicode="&#xfa;" horiz-adv-x="1214" d="M49 850v29h334v-629q0 -56 8 -98.5t26.5 -78t54 -54.5t85.5 -19q45 0 93 27.5t88.5 74.5t66.5 119.5t26 153.5v475h-155v29h332v-850h157v-29h-329v207h-5q-21 -47 -45 -84t-61 -74t-90 -57.5t-117 -20.5q-129 0 -213 58q-20 14 -33 27t-30 39.5t-26 70t-9 102.5v582 h-158zM522 1130l242 295q51 61 64 71q16 11 40 11q29 0 49.5 -21t20.5 -50q0 -30 -37 -56l-350 -250h-29z" />
<glyph unicode="&#xfb;" horiz-adv-x="1214" d="M49 850v29h334v-629q0 -56 8 -98.5t26.5 -78t54 -54.5t85.5 -19q45 0 93 27.5t88.5 74.5t66.5 119.5t26 153.5v475h-155v29h332v-850h157v-29h-329v207h-5q-21 -47 -45 -84t-61 -74t-90 -57.5t-117 -20.5q-129 0 -213 58q-20 14 -33 27t-30 39.5t-26 70t-9 102.5v582 h-158zM319 1130l232 343h115l231 -343h-29l-260 216l-260 -216h-29z" />
<glyph unicode="&#xfc;" horiz-adv-x="1214" d="M49 850v29h334v-629q0 -56 8 -98.5t26.5 -78t54 -54.5t85.5 -19q45 0 93 27.5t88.5 74.5t66.5 119.5t26 153.5v475h-155v29h332v-850h157v-29h-329v207h-5q-21 -47 -45 -84t-61 -74t-90 -57.5t-117 -20.5q-129 0 -213 58q-20 14 -33 27t-30 39.5t-26 70t-9 102.5v582 h-158zM324 1356q0 38 28 66t66 28t66 -28t28 -66t-28 -66t-66 -28t-66 28t-28 66zM705 1356q0 38 28 66t66 28t66 -28t28 -66t-28 -66t-66 -28t-66 28t-28 66z" />
<glyph unicode="&#xfd;" horiz-adv-x="985" d="M-45 -428q0 49 27.5 75.5t70.5 26.5q36 0 66.5 -16.5t30.5 -54.5q0 -19 -17.5 -54.5t-17.5 -56.5q0 -25 13 -34t40 -9q66 0 113.5 63.5t113.5 231.5l90 229l-354 877h-141v29h502v-29h-173l265 -643l276 643h-170v29h314v-29h-111l-338 -791q-65 -155 -143 -356 q-61 -156 -121 -222.5t-152 -66.5q-55 0 -94.5 17.5t-57.5 44.5t-25 50.5t-7 45.5zM408 1130l241 295q51 62 66 72q17 10 39 10q29 0 49 -21t20 -50q0 -30 -37 -56l-350 -250h-28z" />
<glyph unicode="&#xfe;" horiz-adv-x="1214" d="M57 -545h158v1993h-158v29h334v-764h4q8 23 20.5 46t36 50.5t53 48t74 34t97.5 13.5q114 0 214 -63.5t159 -170t59 -227.5q0 -123 -61 -232.5t-164 -175t-221 -65.5q-65 0 -117 22.5t-81.5 57.5t-45 63.5t-23.5 55.5h-4v-715h158v-28h-492v28zM391 401q0 -401 268 -401 q42 0 75 8t58 25.5t43 39t30 55t20 66.5t11.5 81t5 91t1.5 103q0 79 -6 139t-22 112.5t-42 85.5t-67.5 52t-97.5 19q-134 0 -205 -95q-42 -54 -57 -136.5t-15 -244.5z" />
<glyph unicode="&#xff;" horiz-adv-x="985" d="M-45 -428q0 49 27.5 75.5t70.5 26.5q36 0 66.5 -16.5t30.5 -54.5q0 -19 -17.5 -54.5t-17.5 -56.5q0 -25 13 -34t40 -9q66 0 113.5 63.5t113.5 231.5l90 229l-354 877h-141v29h502v-29h-173l265 -643l276 643h-170v29h314v-29h-111l-338 -791q-65 -155 -143 -356 q-61 -156 -121 -222.5t-152 -66.5q-55 0 -94.5 17.5t-57.5 44.5t-25 50.5t-7 45.5zM242 1356q0 38 28 66t66 28t66 -28t28 -66t-28 -66t-66 -28t-66 28t-28 66zM623 1356q0 38 28 66t66 28t66 -28t28 -66t-28 -66t-66 -28t-66 28t-28 66z" />
<glyph unicode="&#x152;" horiz-adv-x="2199" d="M139 735q0 105 35.5 208.5t92 184.5t121 142.5t128.5 97.5q102 56 187 79t190 23q61 0 125 -6q14 -1 39 -2.5t45.5 -2.5t38.5 -1h860v-354h-23q-29 86 -58.5 142t-72.5 100t-103 64t-142 20h-308v-633h101q94 0 147 25t87.5 87.5t64.5 188.5h22v-637h-22q-33 133 -55 179 q-52 109 -165 125q-22 3 -47 3h-133v-739h346q71 0 134 32t105 79.5t74 106.5t48.5 110t21.5 92h23v-449h-907l-135 -6q-70 -6 -138 -6q-96 0 -157.5 15t-139.5 50q-86 40 -162.5 106t-136.5 152t-95.5 196t-35.5 228zM375 711q0 -229 45.5 -383.5t134.5 -216.5 q64 -46 134 -70.5t177 -24.5q113 0 224 27v1374q-105 25 -205 25q-119 0 -209 -37t-147 -100.5t-92 -158.5t-48.5 -199.5t-13.5 -235.5z" />
<glyph unicode="&#x153;" horiz-adv-x="1744" d="M92 438q0 78 28.5 151.5t76.5 130t109 98.5t129.5 64.5t133.5 22.5q108 0 209.5 -55.5t143.5 -112.5q31 29 50 46t56 43.5t69.5 41t79.5 26t97 11.5q48 0 97.5 -12t100.5 -42t90 -74t64 -113.5t25 -155.5h-631q0 -11 -1 -41.5t-1 -54.5q0 -63 4.5 -113.5t21 -109 t44.5 -97.5t79 -65.5t121 -26.5q50 0 92.5 10t71.5 23.5t55 37.5t39 40.5t27.5 46t18 39.5t12.5 34l30 -6q-7 -26 -16 -49t-36 -64t-61.5 -69t-96.5 -50t-138 -22q-72 0 -131.5 13.5t-104.5 39.5t-74 50t-61 57q-144 -160 -346 -160q-119 0 -229 62.5t-179 171.5t-69 233z M297 438q0 -112 15 -193t38.5 -127.5t60.5 -73.5t73 -35.5t85 -8.5t85 8.5t73.5 35.5t61 73.5t38.5 127.5t15 193q0 239 -65 339t-208 100t-207.5 -99.5t-64.5 -339.5zM1022 537h420q4 36 4 53v51q0 130 -46.5 183t-133.5 53q-66 0 -113.5 -27t-74 -76.5t-39.5 -106.5 t-17 -130z" />
<glyph unicode="&#x178;" horiz-adv-x="1441" d="M-4 1430v28h627v-28h-205l409 -721l387 721h-206v28h438v-28h-199l-399 -748v-653h227v-29h-659v29h227v587l-461 814h-186zM477 1735q0 38 28 66t66 28t66.5 -28t28.5 -66t-28.5 -66.5t-66.5 -28.5t-66 28.5t-28 66.5zM858 1735q0 38 28 66t66 28t66.5 -28t28.5 -66 t-28.5 -66.5t-66.5 -28.5t-66 28.5t-28 66.5z" />
<glyph unicode="&#x2c6;" d="M-4 1130l231 343h115l231 -343h-28l-260 216l-260 -216h-29z" />
<glyph unicode="&#x2dc;" d="M-35 1180q17 90 75.5 146t121.5 56q49 0 141 -47q5 -2 23 -11t24.5 -12t21.5 -9.5t24 -9t22 -5t24 -2.5q31 0 56.5 13t41.5 33t23.5 33.5t11.5 23.5h29q-3 -15 -9 -33t-22.5 -51.5t-37.5 -59t-58 -45.5t-80 -20q-27 0 -55 8.5t-43.5 15.5t-48.5 25q-2 1 -17.5 9.5t-19 10 t-17 8t-19.5 8.5t-17 5.5t-20 4.5t-19 1q-31 0 -56 -11t-39 -28t-21.5 -31t-10.5 -26h-29z" />
<glyph unicode="&#x2000;" horiz-adv-x="963" />
<glyph unicode="&#x2001;" horiz-adv-x="1927" />
<glyph unicode="&#x2002;" horiz-adv-x="963" />
<glyph unicode="&#x2003;" horiz-adv-x="1927" />
<glyph unicode="&#x2004;" horiz-adv-x="642" />
<glyph unicode="&#x2005;" horiz-adv-x="481" />
<glyph unicode="&#x2006;" horiz-adv-x="321" />
<glyph unicode="&#x2007;" horiz-adv-x="321" />
<glyph unicode="&#x2008;" horiz-adv-x="240" />
<glyph unicode="&#x2009;" horiz-adv-x="385" />
<glyph unicode="&#x200a;" horiz-adv-x="107" />
<glyph unicode="&#x2010;" horiz-adv-x="757" d="M188 379v135h381v-135h-381z" />
<glyph unicode="&#x2011;" horiz-adv-x="757" d="M188 379v135h381v-135h-381z" />
<glyph unicode="&#x2012;" horiz-adv-x="757" d="M188 379v135h381v-135h-381z" />
<glyph unicode="&#x2013;" horiz-adv-x="1024" d="M0 432v29h1024v-29h-1024z" />
<glyph unicode="&#x2014;" horiz-adv-x="2048" d="M266 432v29h1516v-29h-1516z" />
<glyph unicode="&#x2018;" d="M137 1126q0 57 24 116.5t61 108t75 85.5t72 59l18 -25q-107 -78 -149.5 -149t-42.5 -123q0 -67 36 -106q34 51 88 51q42 0 77.5 -30.5t35.5 -80.5q0 -48 -36 -82.5t-89 -34.5q-76 0 -123 63.5t-47 147.5z" />
<glyph unicode="&#x2019;" d="M137 1378q0 48 36 82.5t89 34.5q76 0 123 -63.5t47 -147.5q0 -76 -42 -155.5t-91.5 -130.5t-97.5 -83l-19 25q107 77 150 148t43 124q0 67 -37 107q-34 -51 -88 -51q-43 0 -78 30t-35 80z" />
<glyph unicode="&#x201a;" d="M141 84q0 44 33.5 78.5t85.5 34.5q48 0 83.5 -22t52.5 -56t24.5 -63.5t7.5 -55.5q0 -61 -23 -120.5t-59.5 -105.5t-72 -79t-70.5 -57l-17 20q80 63 132.5 129t52.5 141q0 13 -2 25.5t-4.5 21.5t-7 19t-7.5 15t-7 12t-5 8q-14 -16 -21 -23t-27.5 -18t-41.5 -11 q-46 0 -76.5 29.5t-30.5 77.5z" />
<glyph unicode="&#x201c;" horiz-adv-x="909" d="M121 1133q0 61 22.5 120t60 105.5t71.5 78t71 58.5l16 -20q-184 -145 -184 -271q0 -16 2.5 -30t7 -25.5t8 -18.5t9.5 -16t6 -10q45 51 90 51q46 0 76.5 -29t30.5 -77q0 -44 -33.5 -78.5t-85.5 -34.5q-49 0 -85 22t-52.5 56t-23.5 63.5t-7 55.5zM502 1133q0 61 22.5 120 t60 105.5t71.5 78t71 58.5l16 -20q-184 -145 -184 -271q0 -16 2.5 -30t7 -25.5t8 -18.5t9.5 -16t6 -10q45 51 90 51q46 0 76 -29t30 -77q0 -44 -33 -78.5t-85 -34.5q-49 0 -85 22t-52.5 56t-23.5 63.5t-7 55.5z" />
<glyph unicode="&#x201d;" horiz-adv-x="909" d="M121 1382q0 44 33.5 78.5t85.5 34.5q48 0 83.5 -22t52.5 -56t24.5 -63.5t7.5 -55.5q0 -61 -23 -120.5t-60 -105.5t-72.5 -79t-70.5 -57l-16 20q184 145 184 271q0 16 -2.5 30t-7 25.5t-8 18.5t-9.5 16t-6 10q-45 -51 -90 -51q-46 0 -76 29t-30 77zM502 1382 q0 44 33.5 78.5t85.5 34.5q48 0 83.5 -22t52 -56t24 -63.5t7.5 -55.5q0 -61 -23 -120.5t-59.5 -105.5t-72 -79t-70.5 -57l-16 20q184 145 184 271q0 16 -2.5 30t-7 25.5t-8 18.5t-9.5 16t-6 10q-45 -51 -90 -51q-46 0 -76 29t-30 77z" />
<glyph unicode="&#x201e;" horiz-adv-x="909" d="M121 84q0 44 33.5 78.5t85.5 34.5q48 0 83.5 -22t52.5 -56t24.5 -63.5t7.5 -55.5q0 -61 -23 -120.5t-60 -105.5t-72.5 -79t-70.5 -57l-16 20q184 145 184 270q0 13 -2 25.5t-4.5 21.5t-7 19t-7.5 15t-7 12t-5 8q-14 -16 -21 -23t-27.5 -18t-41.5 -11q-45 0 -75.5 29.5 t-30.5 77.5zM502 84q0 44 33.5 78.5t85.5 34.5q48 0 83.5 -22t52 -56t24 -63.5t7.5 -55.5q0 -61 -23 -120.5t-59.5 -105.5t-72 -79t-70.5 -57l-16 20q184 145 184 270q0 13 -2 25.5t-4.5 21.5t-7 19t-7.5 15t-7 12t-5 8q-14 -16 -21 -23t-27.5 -18t-41.5 -11 q-45 0 -75.5 29.5t-30.5 77.5z" />
<glyph unicode="&#x2022;" horiz-adv-x="1024" d="M147 729q0 152 106.5 258.5t258.5 106.5t258.5 -106.5t106.5 -258.5t-106.5 -258t-258.5 -106t-258.5 106t-106.5 258z" />
<glyph unicode="&#x2026;" horiz-adv-x="2048" d="M233 86q0 44 32.5 76.5t76.5 32.5t76.5 -32.5t32.5 -76.5t-32.5 -76.5t-76.5 -32.5t-76.5 32.5t-32.5 76.5zM915 86q0 44 32.5 76.5t76.5 32.5t76.5 -32.5t32.5 -76.5t-32.5 -76.5t-76.5 -32.5t-76.5 32.5t-32.5 76.5zM1597 86q0 44 32.5 76.5t76.5 32.5t76.5 -32.5 t32.5 -76.5t-32.5 -76.5t-76.5 -32.5t-76.5 32.5t-32.5 76.5z" />
<glyph unicode="&#x202f;" horiz-adv-x="385" />
<glyph unicode="&#x2039;" d="M127 446q0 66 25 118.5t68.5 86.5t97.5 54.5t118 29.5l6 -22q-92 -25 -140 -87t-48 -180t48 -179.5t140 -86.5l-6 -22q-64 9 -118 29.5t-98 54.5t-68.5 86t-24.5 118z" />
<glyph unicode="&#x203a;" d="M127 180q92 25 140 86.5t48 179.5t-48 180t-140 87l6 22q64 -9 118 -29.5t97.5 -54.5t68.5 -86.5t25 -118.5t-24.5 -118t-68.5 -86t-98 -54.5t-118 -29.5z" />
<glyph unicode="&#x205f;" horiz-adv-x="481" />
<glyph unicode="&#x20ac;" horiz-adv-x="1064" d="M4 618l8 29h121q-4 36 -4 51v60q0 73 6 114h-131l10 29h125q9 181 92 346q135 248 408 248q62 0 105.5 -10.5t95.5 -40.5q56 -29 84 -29q50 0 69 43h25v-368h-17q-27 134 -98 237q-46 69 -107.5 104t-150.5 35q-85 0 -141 -36.5t-94 -110.5q-72 -131 -72 -418h602 l-10 -29h-594q-9 -142 -2 -225h514l-10 -29h-504q6 -382 94 -509q76 -111 213 -111q141 0 233 92q93 93 130 305h18v-395h-25q-20 25 -34.5 34t-38.5 9q-29 0 -88 -25q-54 -22 -73 -29t-52.5 -13.5t-71.5 -6.5q-137 0 -226 50t-153 151q-110 175 -127 448h-129z" />
<glyph unicode="&#x2122;" horiz-adv-x="2009" d="M152 1247v211h684v-211h-19q-14 53 -35.5 91t-41 56.5t-46 28.5t-42 11.5t-38.5 1.5h-61v-754h117v-23h-351v23h115v754h-61q-27 0 -47 -4t-52.5 -20t-59.5 -58t-44 -107h-18zM899 659v23h115v754h-115v22h250l203 -592l204 592h244v-22h-114v-754h114v-23h-350v23h117 v727l-267 -760l-262 754v-721h117v-23h-256z" />
<glyph unicode="&#x25fc;" horiz-adv-x="880" d="M0 0v881h881v-881h-881z" />
<glyph unicode="&#xfb01;" horiz-adv-x="1214" d="M57 0v29h158v821h-158v29h158v108q0 223 98 336q144 172 357 172q49 0 98 -11t99.5 -35t82 -72t31.5 -113q0 -44 -24 -75.5t-76 -31.5q-43 0 -69 18t-26 52q0 22 14.5 58.5t14.5 86.5q0 48 -40.5 71t-108.5 23q-275 0 -275 -379v-208h621v-850h157v-29h-491v29h158v821 h-445v-821h158v-29h-492z" />
<glyph unicode="&#xfb02;" horiz-adv-x="1214" d="M76 0v29h157v821h-157v29h157v143q0 106 16.5 176.5t63.5 128.5q122 150 340 150h176h175v-1448h157v-29h-477v29h143v1419h-178q-63 6 -111 -18.5t-75 -70.5t-40 -101.5t-13 -118.5v-260h204v-29h-204v-821h143v-29h-477z" />
</font>
</defs>
</svg>
