<?xml version="1.0" standalone="no"?>
<!DOCTYPE svg PUBLIC "-//W3C//DTD SVG 1.1//EN" "http://www.w3.org/Graphics/SVG/1.1/DTD/svg11.dtd" >
<svg xmlns="http://www.w3.org/2000/svg">
<metadata></metadata>
<defs>
<font id="diddditalic" horiz-adv-x="569" >
<font-face units-per-em="2048" ascent="1638" descent="-410" />
<missing-glyph horiz-adv-x="491" />
<glyph horiz-adv-x="0" />
<glyph horiz-adv-x="682" />
<glyph horiz-adv-x="0" />
<glyph horiz-adv-x="0" />
<glyph unicode=" "  horiz-adv-x="491" />
<glyph unicode="&#x09;" horiz-adv-x="491" />
<glyph unicode="&#xa0;" horiz-adv-x="491" />
<glyph unicode="!" horiz-adv-x="645" d="M70 70q0 41 27.5 68.5t68.5 27.5t68.5 -27.5t27.5 -68.5t-27.5 -68t-68.5 -27t-68.5 27t-27.5 68zM242 365l184 1021q17 99 96 99q39 0 64.5 -20t25.5 -60q0 -27 -28 -109l-328 -931h-14z" />
<glyph unicode="&#x22;" horiz-adv-x="909" d="M436 1374v33q0 39 11 58.5t40 19.5q52 0 52 -78v-33q0 -25 -2 -31l-31 -450h-37l-31 450q-2 6 -2 31zM707 1374v33q0 39 11 58.5t40 19.5t40 -19.5t11 -58.5v-33q0 -25 -2 -31l-31 -450h-37l-30 450q-2 6 -2 31z" />
<glyph unicode="#" horiz-adv-x="1138" d="M-10 485l12 37h272l148 406h-272l14 37h272l178 493h43l-178 -493h346l179 493h43l-179 -493h273l-15 -37h-272l-147 -406h272l-14 -37h-273l-176 -485h-43l176 485h-346l-176 -485h-43l176 485h-270zM317 522h347l147 406h-346z" />
<glyph unicode="$" horiz-adv-x="1290" d="M0 0l109 406h28q-8 -36 -8 -91q0 -51 18.5 -102.5t55 -97.5t98 -77.5t139.5 -37.5l187 694l-78 64q-203 164 -203 342q0 127 62 213.5t165 128.5q63 26 119.5 34.5t147.5 8.5l30 114h29l-31 -116q64 -4 112 -20.5t86 -31t79 -16.5q29 -1 48 14t26 37l28 -8l-98 -373h-33 q10 38 10 93q0 47 -12 88.5t-40 82.5t-82.5 69t-131.5 36l-162 -604l115 -92q63 -51 95.5 -81t67.5 -74t49.5 -92t14.5 -108q0 -133 -83 -239t-220 -156q-93 -35 -276 -35l-41 -147h-29l41 147q-75 4 -140 25t-107.5 39t-67.5 18q-57 0 -88 -61zM469 0q112 0 198.5 29.5 t137 78.5t75.5 106t25 118q0 74 -35 134t-120 128l-99 80zM473 1163q0 -70 38 -131.5t132 -136.5l31 -25l157 586q-168 0 -263 -76.5t-95 -216.5z" />
<glyph unicode="%" horiz-adv-x="1593" d="M123 1008q0 46 15 101.5t47.5 114.5t77 107.5t110 79.5t139.5 31q115 0 181.5 -70.5t66.5 -177.5q0 -73 -27.5 -149.5t-76.5 -141.5t-126.5 -107t-167.5 -42q-109 0 -174 64.5t-65 189.5zM238 942q0 -72 33 -116t104 -44q64 0 115.5 45.5t79 108t46 135.5t24 120t5.5 69 q0 153 -141 153q-70 0 -124 -47.5t-83.5 -121.5t-44 -151.5t-14.5 -150.5zM344 0l887 1481l35 -23l-887 -1481zM834 225q0 46 15 101.5t47.5 114.5t77 107.5t110 79.5t139.5 31q115 0 181 -70t66 -177q0 -59 -16.5 -120t-51 -118t-80.5 -102t-111 -72t-138 -27 q-109 0 -174 63.5t-65 188.5zM948 160q0 -72 33 -116t104 -44q64 0 115.5 45.5t79.5 108t46.5 135t24 119.5t5.5 69q0 154 -142 154q-70 0 -124 -47.5t-83.5 -121.5t-44 -151.5t-14.5 -150.5z" />
<glyph unicode="&#x26;" horiz-adv-x="1744" d="M115 395q0 107 35.5 203t97 168.5t138.5 125.5t165 85l131 47q8 53 23.5 110.5t44.5 121.5t66 113.5t92 82.5t118 33q78 0 121 -42t43 -110q0 -44 -26 -86t-64 -73t-89 -59.5t-91.5 -45.5t-81.5 -31q4 -112 7 -167.5t15 -161.5t31 -193l29 -129h4q12 25 36 74l34.5 70.5 t32.5 65t33.5 62.5t33 54t35.5 49.5t36 39.5t40 34.5t42.5 23.5t48.5 16.5t52 4.5q78 0 128 -41t50 -107q0 -43 -21 -69.5t-61 -26.5q-74 0 -74 70q0 26 8 48.5t8 45.5q0 51 -63 51q-49 0 -109 -45t-118 -145q-26 -45 -57 -105.5t-63.5 -126.5t-43.5 -88q8 -45 30 -108.5 t46 -106.5q14 -25 25.5 -41.5t33 -39t51 -34.5t66.5 -12q43 0 83 21.5t69.5 55.5t55.5 78.5t43.5 87.5t31 85t20 69.5t8.5 42.5l29 -6q-1 -4 -13 -51.5t-25.5 -92.5t-42.5 -105.5t-64 -104.5t-91 -75.5t-123 -31.5q-73 0 -137 30t-107 72.5t-87 104.5l-27 -39 q-58 -83 -127 -125.5t-168 -42.5q-50 0 -102 14t-105.5 46t-95 79.5t-68 120.5t-26.5 162zM299 567q0 -45 3 -93.5t11 -117.5t25.5 -128t43 -112.5t67 -84.5t94.5 -31q41 0 80 15.5t66 35.5t55 52.5t41.5 52.5t31.5 49q-83 134 -117 288t-34 277q0 115 12 223l-117 -45 q-78 -30 -131 -70.5t-81 -91t-39 -102.5t-11 -117zM838 1067q34 12 71 28t83.5 42.5t82.5 55.5t61 67.5t25 76.5q0 52 -35 85.5t-94 33.5q-33 0 -59.5 -8.5t-45.5 -27t-33 -38t-23.5 -52t-15.5 -58t-9.5 -66.5t-5 -68t-2.5 -71z" />
<glyph unicode="'" d="M401 1374v33q0 78 52 78q29 0 40 -19.5t11 -58.5v-33q0 -25 -2 -31l-31 -450h-37l-31 450q-2 6 -2 31z" />
<glyph unicode="(" d="M98 43q0 135 20 274t69 298t124.5 305.5t195 294t271.5 266.5l33 -27q-332 -270 -502 -632t-170 -797q0 -140 29 -288.5t52.5 -216.5t35.5 -93l-41 -21q-61 176 -89 323t-28 314z" />
<glyph unicode=")" d="M-338 -567q331 270 500.5 631t169.5 796q0 142 -29 291t-52.5 216.5t-35.5 92.5l41 21q61 -177 89 -323t28 -316q0 -135 -19.5 -273.5t-68.5 -297.5t-124 -305t-194.5 -293.5t-271.5 -266.5z" />
<glyph unicode="*" horiz-adv-x="909" d="M143 995q4 86 80 86q25 0 59.5 -7t75.5 -7q52 0 170 20q-108 94 -204 132q-56 23 -77 41.5t-22 52.5q0 33 22 58.5t52 25.5q20 0 34.5 -5t25 -18t16.5 -24.5t16.5 -35t18.5 -38.5q26 -49 67 -104t62 -76q16 82 16 164q0 43 -7 78.5t-7 56.5q0 42 24 66t66 24 q40 0 61 -19.5t21 -52.5q0 -27 -16 -54t-56 -73q-52 -61 -90 -194q143 43 207 102q34 33 57.5 47t52.5 14q31 0 52.5 -23.5t21.5 -53.5q0 -42 -24.5 -67.5t-65.5 -25.5q-28 0 -67 5.5t-74 5.5q-98 -9 -156 -17q115 -103 217 -137q42 -12 64 -31t22 -57q0 -36 -25 -60 t-61 -24q-61 0 -92 90q-30 90 -135 211q-17 -93 -17 -170q0 -37 7.5 -75.5t7.5 -61.5q0 -31 -26 -54.5t-58 -23.5q-33 0 -59.5 24t-26.5 58q0 15 8.5 33t17.5 29.5t27 31.5q46 55 106 213q-123 -43 -188 -94l-10 -9q-11 -8 -13.5 -10t-12.5 -9.5t-14.5 -10.5t-14 -9 t-16 -8.5t-15 -5.5t-16 -4.5t-15.5 -1.5q-34 0 -53 22.5t-21 59.5z" />
<glyph unicode="+" horiz-adv-x="1214" d="M27 473v37h471v473h41v-473h471v-37h-471v-473h-41v473h-471z" />
<glyph unicode="," d="M-43 -301q26 10 55.5 26t66 43.5t60 67.5t23.5 84q0 40 -10 70q-14 -5 -23 -10q-25 -5 -37 -5q-36 0 -58 24.5t-22 57.5q0 51 28 80t81 29q61 0 98 -42.5t37 -109.5q0 -65 -26.5 -122.5t-61.5 -93t-81 -65.5t-72.5 -41.5t-49.5 -19.5z" />
<glyph unicode="-" horiz-adv-x="757" d="M106 377l33 123h357l-33 -123h-357z" />
<glyph unicode="." d="M12 70q0 41 28 68.5t69 27.5t68.5 -27.5t27.5 -68.5t-27.5 -68t-68.5 -27t-69 27t-28 68z" />
<glyph unicode="/" horiz-adv-x="606" d="M-156 -16l883 1511l37 -20l-883 -1512z" />
<glyph unicode="0" horiz-adv-x="987" d="M37 410q0 147 37 300t101 281.5t143 231.5t170 161t176 58q97 0 165.5 -61.5t98.5 -157t30 -215.5q0 -155 -39 -312t-104.5 -284t-146 -227.5t-167.5 -156t-165 -55.5q-142 0 -220.5 113.5t-78.5 323.5zM164 225q0 -108 45.5 -166.5t122.5 -58.5q67 0 134.5 69.5t121 179 t100 242.5t77.5 263t48.5 238t17.5 169q0 125 -44 188.5t-119 63.5q-84 0 -165 -99t-140.5 -246.5t-105.5 -314t-69.5 -307.5t-23.5 -221z" />
<glyph unicode="1" horiz-adv-x="987" d="M100 0l9 29h196l348 1249q-77 -50 -177 -103.5t-161 -78.5l-14 24q107 44 267.5 140t246.5 182h29l-395 -1413h219l-9 -29h-559z" />
<glyph unicode="2" horiz-adv-x="987" d="M-158 27q324 312 621 620q140 147 216.5 274.5t76.5 243.5q0 110 -54 179t-159 69q-101 0 -166.5 -53t-65.5 -117q0 -23 4 -39t4 -39q0 -36 -23 -58t-63 -22q-77 0 -77 89q0 38 30 84t81.5 87.5t129 69t162.5 27.5q147 0 254 -94t107 -222q0 -121 -76.5 -227t-225.5 -231 l-618 -529v-4h537q67 0 106.5 18.5t56.5 71.5l25 78h31l-80 -303h-823z" />
<glyph unicode="3" horiz-adv-x="987" d="M-92 84q0 30 21.5 45.5t50.5 15.5q28 0 47.5 -12.5t42.5 -56.5q31 -57 57 -75.5t86 -18.5q105 0 201 80.5t151.5 200t55.5 235.5q0 108 -55 174.5t-158 66.5q-53 0 -168 -30l-9 30q4 1 29.5 6.5t36 7.5t37 8.5t42.5 11.5t41.5 13.5t45 16.5t42.5 19.5t44 23.5 q88 54 138 152t50 216q0 98 -43 148.5t-123 50.5q-176 0 -176 -174q0 -58 -19.5 -84.5t-68.5 -26.5q-67 0 -67 72q0 93 97 167.5t238 74.5q132 0 229 -75.5t97 -184.5q0 -68 -37.5 -131.5t-88.5 -107.5t-120 -83t-116.5 -59t-92.5 -35l3 -4q48 0 92 -7.5t89.5 -27 t78.5 -49.5t54 -80.5t21 -114.5q0 -85 -55 -180t-141.5 -172t-203.5 -127.5t-232 -50.5q-127 0 -185.5 41.5t-58.5 89.5z" />
<glyph unicode="4" horiz-adv-x="987" d="M-43 358l8 29q105 157 312 414t475 540q64 69 89 85t83 16q42 0 65 -9t23 -36q0 -21 -13 -34.5t-57 -45.5q-182 -134 -333.5 -264.5t-264 -248.5t-192 -215.5t-152.5 -201.5h524l144 533h155l-143 -533h217l-8 -29h-217l-88 -329h164l-9 -29h-481l8 29h162l88 329h-559z " />
<glyph unicode="5" horiz-adv-x="987" d="M-102 57q0 35 21 56.5t52 21.5q13 0 24 -2.5t18.5 -5.5t15 -10t11.5 -10.5t9.5 -13.5t7 -13t6 -14.5t5.5 -12.5q11 -24 21 -37t37 -23.5t69 -10.5q77 0 155.5 40t141 107t102 164.5t39.5 204.5q0 53 -13 95t-33 70.5t-52 49t-63.5 32t-74 18t-76 8t-77.5 1.5l178 651 q144 -10 344 -10q105 0 166 66l18 -15q-5 -7 -21 -33.5t-27.5 -43t-34 -41t-44.5 -39.5t-55 -26t-70 -11h-88q-101 0 -196 10l-103 -365q241 -7 359 -103t118 -255q0 -109 -56 -221t-145 -198.5t-208.5 -141.5t-239.5 -55q-64 0 -117 12t-88.5 39t-35.5 65z" />
<glyph unicode="6" horiz-adv-x="987" d="M33 336q0 137 46 293.5t124.5 298t175 258.5t207.5 186.5t211 69.5q103 0 165 -48.5t62 -107.5q0 -44 -25.5 -64t-64.5 -20q-37 0 -59.5 19t-22.5 45q0 17 4 34t4 37q0 64 -106 64q-52 0 -100 -25.5t-85 -65.5t-74 -104t-64.5 -124.5t-59.5 -143.5l-49 -125l4 -4 q98 78 213 78q127 0 217 -103.5t90 -253.5q0 -97 -42 -197.5t-110 -179.5t-161 -129.5t-187 -50.5q-81 0 -142.5 29.5t-98 81t-54.5 115t-18 137.5zM160 201q0 -93 42.5 -147t135.5 -54q144 0 227 150q53 96 95 252t42 245q0 98 -44.5 154.5t-133.5 56.5q-43 0 -91 -20.5 t-71.5 -37t-60.5 -46.5q-57 -131 -99 -291t-42 -262z" />
<glyph unicode="7" horiz-adv-x="987" d="M150 27q0 6 1 11.5t4 12.5t5.5 12t8.5 14t9 14t11 16.5t12 17.5l551 823q95 141 176 322h-533q-41 0 -70.5 -12.5t-47 -39t-26.5 -52.5t-18 -66h-28l82 313h712q-7 -51 -36 -128t-49.5 -121t-63.5 -132l-471 -960q-30 -62 -58.5 -80.5t-76.5 -18.5q-94 0 -94 54z" />
<glyph unicode="8" horiz-adv-x="987" d="M2 330q0 121 87.5 219t217.5 164l101 51q-84 70 -125 134t-41 161q0 95 43.5 181.5t132 144t203.5 57.5q60 0 117.5 -18t105.5 -52t77 -89.5t29 -123.5q0 -41 -10.5 -77.5t-33 -67.5t-44 -54.5t-59 -49.5t-61 -41t-66.5 -39.5t-60 -34.5l82 -70q76 -64 115 -131t39 -158 q0 -51 -19 -111.5t-59.5 -122.5t-95.5 -113t-134.5 -83.5t-168.5 -32.5q-156 0 -264.5 106t-108.5 251zM129 281q0 -119 67.5 -200t178.5 -81q70 0 129.5 23t99.5 60.5t68 86t40.5 98.5t12.5 99q0 40 -9.5 74.5t-21.5 58t-40.5 53t-48 46.5t-62.5 52l-113 92l-45 -24 q-75 -41 -129 -99.5t-79.5 -120.5t-36.5 -114.5t-11 -103.5zM356 1141q0 -79 31.5 -134.5t114.5 -121.5l90 -72q111 61 171 162t60 235q0 203 -202 203q-118 0 -191.5 -76.5t-73.5 -195.5z" />
<glyph unicode="9" horiz-adv-x="987" d="M-29 127q0 45 22.5 64.5t65.5 19.5q37 0 59.5 -19t22.5 -45q0 -17 -4 -34t-4 -37q0 -64 123 -64q128 0 207.5 103t175.5 379l37 106l-4 4q-98 -78 -217 -78q-134 0 -221 102.5t-87 254.5q0 96 42 197t110 180.5t161 130.5t187 51q81 0 143 -30t98.5 -81.5t54.5 -115.5 t18 -138q0 -115 -30 -244.5t-81 -250.5t-123.5 -232.5t-153.5 -194.5t-174 -132.5t-182 -49.5q-126 0 -186 45.5t-60 108.5zM291 791q0 -117 41.5 -176.5t136.5 -59.5q111 0 229 109q13 43 42.5 131t46.5 143.5t32 135t15 149.5q0 95 -45 142.5t-146 47.5 q-70 0 -130.5 -44.5t-100 -113t-68 -153.5t-41 -164.5t-12.5 -146.5z" />
<glyph unicode=":" d="M25 70q0 41 27.5 68.5t68.5 27.5t68.5 -27.5t27.5 -68.5t-27.5 -68t-68.5 -27t-68.5 27t-27.5 68zM221 805q0 41 27.5 68.5t68.5 27.5t69 -27.5t28 -68.5t-28 -68.5t-69 -27.5t-68.5 27.5t-27.5 68.5z" />
<glyph unicode=";" d="M0 -301q30 12 57 27.5t65.5 43t61.5 67t23 83.5q0 40 -10 70q-14 -5 -23 -10q-25 -5 -37 -5q-36 0 -58 24.5t-22 57.5q0 51 28 80t81 29q61 0 98 -42.5t37 -109.5q0 -65 -26.5 -122.5t-61.5 -93t-81.5 -65.5t-73.5 -42t-50 -19zM264 805q0 41 27.5 68.5t68.5 27.5 t69 -27.5t28 -68.5t-28 -68.5t-69 -27.5t-68.5 27.5t-27.5 68.5z" />
<glyph unicode="&#x3c;" horiz-adv-x="1214" d="M-150 483v17l1162 483v-41l-1094 -450l1094 -451v-41z" />
<glyph unicode="=" horiz-adv-x="1214" d="M27 297v37h983v-37h-983zM27 649v37h983v-37h-983z" />
<glyph unicode="&#x3e;" horiz-adv-x="1214" d="M23 0v41l1095 451l-1095 450v41l1163 -483v-17z" />
<glyph unicode="?" horiz-adv-x="833" d="M102 70q0 41 28 68.5t69 27.5t68.5 -27.5t27.5 -68.5t-27.5 -68t-68.5 -27t-69 27t-28 68zM201 1257q0 81 94 154.5t235 73.5q159 0 246.5 -81t87.5 -208q0 -199 -162 -319l-157 -117q-36 -27 -51 -38.5t-48 -40.5t-51 -52t-37.5 -58t-29.5 -73l-35 -131h-27l29 110 q10 41 16 62t24.5 57t45.5 68l160 184q94 110 137 221t43 201q0 96 -52.5 141t-133.5 45q-99 0 -139 -51t-40 -150q0 -75 -84 -75q-34 0 -52.5 25t-18.5 52z" />
<glyph unicode="@" horiz-adv-x="1705" d="M74 690q0 160 68 307t182.5 254t272.5 170.5t331 63.5q152 0 281 -47.5t217 -129t137 -192.5t49 -237q0 -139 -60.5 -270.5t-157 -212.5t-196.5 -81q-34 0 -62 8.5t-45.5 18.5t-32 30.5t-21 32t-12 36.5t-6 30.5t-3.5 26.5q-86 -183 -254 -183q-120 0 -198.5 84.5 t-78.5 208.5q0 95 40.5 187.5t104 159t141.5 107t151 40.5h17t26.5 -3t34 -8t35 -16.5t35 -27t28 -40.5t20.5 -57l39 129h121l-139 -479q-21 -73 -21 -119q0 -35 11 -59t29.5 -35t36 -15.5t36.5 -4.5q54 0 114.5 44t109.5 113.5t81.5 164.5t32.5 188q0 112 -43 213.5 t-121.5 179.5t-200 124t-268.5 46q-113 0 -219 -30t-191 -83t-156 -125t-118.5 -155.5t-73.5 -176t-26 -184.5q0 -139 54 -263t148.5 -214t231 -142.5t293.5 -52.5q139 0 282.5 47.5t272.5 147.5l26 -37q-41 -29 -67.5 -47t-89 -50.5t-120 -51.5t-144.5 -34.5t-179 -15.5 q-155 0 -297 50.5t-250.5 141t-173.5 227t-65 298.5zM633 575q0 -38 7.5 -73t24 -67t47 -51t72.5 -19q118 0 189 151q27 59 67.5 187.5t40.5 211.5q0 50 -36.5 94t-102.5 44q-59 0 -117.5 -48.5t-99.5 -120t-66.5 -155.5t-25.5 -154z" />
<glyph unicode="A" horiz-adv-x="1478" d="M-178 0l8 29h174l1028 1462h47l37 -1462h221l-8 -29h-631l9 29h223l-12 573h-472l-401 -573h207l-8 -29h-422zM467 631h451l-9 622h-4z" />
<glyph unicode="B" horiz-adv-x="1327" d="M-180 0l8 29h207l506 1401h-238l8 28h461q214 0 344.5 -81.5t130.5 -233.5q0 -58 -21.5 -108.5t-56 -86t-80.5 -64.5t-93 -47.5t-94.5 -30.5t-84 -17t-63.5 -5l-4 -4q30 -7 64.5 -18t87.5 -39.5t93.5 -64.5t70.5 -96.5t30 -131.5q0 -83 -39.5 -155t-106.5 -123 t-154.5 -87t-184 -53.5t-195.5 -17.5q-50 0 -148 3t-151 3h-297zM223 31q108 -11 180 -11q101 0 187.5 31.5t144 82t98.5 115.5t59.5 131t18.5 130q0 92 -39 150.5t-92 82.5q-39 19 -79.5 25t-108.5 6h-105zM500 803h190q163 0 264 105t101 288q0 106 -64.5 170t-179.5 64 h-86z" />
<glyph unicode="C" horiz-adv-x="1327" d="M119 555q0 144 53.5 287t143 256.5t200 202t230.5 136.5t227 48q78 0 146.5 -20t118.5 -40t81 -20q57 0 86 59l31 -6l-142 -395h-26q12 54 12 139q0 125 -87.5 189.5t-225.5 64.5q-88 0 -172 -45.5t-151.5 -121.5t-127 -174.5t-103.5 -206.5t-75.5 -214.5t-47.5 -201 t-16 -164.5q0 -164 89.5 -246t257.5 -82q274 0 446 315l27 -14q-16 -31 -33.5 -60.5t-61 -82t-93 -90t-127 -66.5t-163.5 -29q-108 0 -194 32.5t-141.5 87.5t-93 131t-53 158t-15.5 173z" />
<glyph unicode="D" horiz-adv-x="1630" d="M-168 0l8 29h209l504 1401h-236l9 28h618q140 0 249.5 -45.5t176 -123.5t100 -176.5t33.5 -211.5q0 -165 -73 -327.5t-199 -291t-312.5 -208.5t-396.5 -80q-58 0 -172 4q-31 2 -88 2h-86h-344zM238 31q32 -1 115 -6t130 -5q110 0 191.5 23t185.5 88q216 135 343.5 398 t127.5 542q0 111 -45.5 192t-116.5 117q-51 27 -108.5 38.5t-147.5 11.5h-176z" />
<glyph unicode="E" horiz-adv-x="1402" d="M-180 0l8 29h211l502 1401h-238l8 28h1139l-125 -348h-29q25 77 25 147q0 83 -36 128t-128 45h-432l-227 -633h192q31 0 61.5 9.5t54 23.5t47 36.5t39 41.5t33 45.5t25.5 41.5t20 37t13 25h29l-215 -596h-29q27 64 27 149q0 77 -44.5 117.5t-123.5 40.5h-140l-264 -739 h479q45 0 90.5 17t81.5 42t73 63t62 69.5t51.5 72.5t38 61.5t25.5 46.5h29l-143 -401h-1190z" />
<glyph unicode="F" horiz-adv-x="1366" d="M-170 0l8 29h207l502 1401h-234l9 28h1157l-125 -348h-29q21 87 21 166q0 78 -35.5 116t-128.5 38h-447l-241 -666h290q168 0 287 260h29l-213 -598h-29q25 97 25 152q0 82 -46.5 119.5t-146.5 37.5h-207l-254 -706h240l-8 -29h-631z" />
<glyph unicode="G" horiz-adv-x="1478" d="M119 555q0 144 53.5 287t143 256.5t200 202t230.5 136.5t227 48q78 0 146.5 -20t118.5 -40t81 -20q57 0 86 59l31 -6l-142 -395h-26q12 54 12 139q0 125 -87.5 189.5t-225.5 64.5q-88 0 -172 -45.5t-151.5 -121.5t-127 -174.5t-103.5 -206.5t-75.5 -214.5t-47.5 -201 t-16 -164.5q0 -164 89.5 -246t257.5 -82q114 0 187 54t103 141l101 284h-234l8 29h584l-8 -29h-164l-172 -479h-33q-4 51 -55 51q-20 0 -65 -19.5t-113 -39t-144 -19.5q-108 0 -194 32.5t-141.5 87.5t-93 131t-53 158t-15.5 173z" />
<glyph unicode="H" horiz-adv-x="1630" d="M-172 0l8 29h209l502 1401h-234l9 28h632l-8 -28h-213l-239 -670h659l242 670h-236l8 28h631l-8 -28h-211l-504 -1401h236l-8 -29h-635l8 29h213l254 702h-660l-254 -702h236l-8 -29h-629z" />
<glyph unicode="I" horiz-adv-x="796" d="M-168 0l8 29h209l504 1401h-236l9 28h635l-9 -28h-215l-501 -1401h233l-8 -29h-629z" />
<glyph unicode="J" horiz-adv-x="948" d="M-129 141q0 64 34 102t85 38q42 0 66 -20.5t24 -53.5q0 -42 -27.5 -82.5t-27.5 -75.5q0 -49 59 -49q15 0 26 1.5t32 10.5t39 26t41.5 52t43.5 84l56 131l401 1125h-231l8 28h628l-8 -28h-211l-342 -953q-41 -114 -89 -197t-130 -169q-129 -138 -268 -138q-56 0 -101 15.5 t-76.5 55t-31.5 97.5z" />
<glyph unicode="K" horiz-adv-x="1441" d="M-174 0l8 29h209l502 1401h-234l8 28h629l-8 -28h-211l-233 -652h16l836 647v5h-228l8 28h424l-8 -28h-141l-758 -588l422 -813h195l-9 -29h-622l8 29h221l-360 721h-15l-258 -721h234l-8 -29h-627z" />
<glyph unicode="L" horiz-adv-x="1290" d="M-178 0l8 29h211l502 1401h-236l8 28h635l-8 -28h-215l-502 -1401h480q42 0 85 16t77 38t70.5 58.5t60 64.5t52 70.5t39.5 61.5t30 51l3 4.5t2 3.5l2 4h29l-143 -401h-1190z" />
<glyph unicode="M" horiz-adv-x="1744" d="M-195 0l9 29h211l501 1401h-235l8 28h438l-24 -1136h4l784 1136h424l-8 -28h-211l-502 -1401h234l-8 -29h-633l8 29h213l504 1401h-4l-988 -1430l29 1430h-6l-498 -1401h234l-8 -29h-476z" />
<glyph unicode="N" horiz-adv-x="1441" d="M-190 0l8 29h209l499 1401h-233l8 28h387l291 -1155h4l401 1127h-235l8 28h479l-8 -28h-211l-516 -1457h-14l-352 1383h-5l-473 -1327h234l-8 -29h-473z" />
<glyph unicode="O" horiz-adv-x="1593" d="M123 559q0 115 36.5 232t99 218t148.5 189.5t182.5 151.5t202.5 99t207 36q102 0 185 -36t136.5 -94.5t89.5 -137t51.5 -160t15.5 -166.5q0 -131 -47.5 -265.5t-133.5 -250t-195.5 -206.5t-243 -143.5t-267.5 -52.5q-210 0 -338.5 153t-128.5 433zM279 324 q0 -324 323 -324q100 0 191.5 45.5t161 121.5t129.5 175t101.5 205.5t71 213.5t43 198.5t13.5 160.5q0 336 -318 336q-95 0 -184 -44t-159 -118.5t-131 -171.5t-105 -204t-75 -215t-46.5 -205t-15.5 -174z" />
<glyph unicode="P" horiz-adv-x="1290" d="M-178 0l8 29h211l502 1401h-236l8 28h492q228 0 359.5 -107.5t131.5 -267.5q0 -89 -41.5 -167t-109.5 -132t-155 -93.5t-179 -58t-180 -18.5q-87 0 -191 17l-217 -602h236l-10 -29h-629zM453 659q104 -16 165 -16q106 0 199 44t156.5 116.5t100 166t36.5 191.5 q0 133 -79.5 201t-223.5 68h-80z" />
<glyph unicode="Q" horiz-adv-x="1593" d="M123 559q0 115 36.5 232t99 218t148.5 189.5t182.5 151.5t202.5 99t207 36q102 0 185 -36t136.5 -94.5t89.5 -137t51.5 -160t15.5 -166.5q0 -131 -47.5 -265.5t-133.5 -250t-195.5 -206.5t-243 -143.5t-267.5 -52.5q-28 0 -74 4l-4 -4q62 -51 103 -67t100 -21 q88 -8 138.5 -23.5t87.5 -43.5t89 -88q48 -53 94.5 -71.5t102.5 -18.5h24v-29h-82q-96 0 -183 13t-180 53.5t-149 105.5l-84 98q-37 44 -64.5 66t-68.5 41q-47 21 -85.5 45.5t-83.5 71.5t-76 105t-51.5 148.5t-20.5 200.5zM279 324q0 -324 323 -324q100 0 191.5 45.5 t161 121.5t129.5 175t101.5 205.5t71 213.5t43 198.5t13.5 160.5q0 336 -318 336q-95 0 -184 -44t-159 -118.5t-131 -171.5t-105 -204t-75 -215t-46.5 -205t-15.5 -174z" />
<glyph unicode="R" horiz-adv-x="1327" d="M-178 0l10 29h209l500 1401h-236l12 28h498q60 0 118 -10t116 -34t101 -59t70 -90.5t27 -123.5q0 -61 -24.5 -112.5t-60.5 -86.5t-88 -63t-96.5 -43.5t-98 -27.5t-79.5 -15.5t-52 -6.5l-5 -6q33 -4 66 -11t77.5 -26t77.5 -45t56.5 -71t23.5 -101q0 -70 -25.5 -193.5 t-25.5 -191.5q0 -56 30.5 -90.5t78.5 -34.5q41 0 59 11l8 -27q-70 -10 -100 -10q-256 0 -256 219q0 30 25 184q22 132 22 199q0 32 -6.5 57.5t-25 49.5t-49 40t-81.5 25.5t-120 9.5h-84l-269 -745h236l-10 -29h-629zM502 803h137q167 0 244 51q172 111 172 348 q0 111 -67 169.5t-175 58.5h-86z" />
<glyph unicode="S" horiz-adv-x="1214" d="M-98 -2l143 405h27q-27 -79 -27 -120q0 -89 56.5 -155t139.5 -97t175 -31q178 0 280.5 95.5t102.5 246.5q0 72 -31.5 130.5t-95.5 117.5l-146 133q-106 98 -158.5 184t-52.5 189q0 111 67 201.5t174 139t228 48.5q72 0 138 -18.5t117 -37t87 -18.5q52 0 74 53l31 -6 l-141 -391h-25q18 69 18 121q0 71 -24 124.5t-66.5 84t-94.5 45t-114 14.5q-147 0 -240 -75.5t-93 -192.5q0 -79 41.5 -142t117.5 -131l183 -163q178 -160 178 -330q0 -63 -22.5 -126t-69.5 -121.5t-113 -103t-160 -71.5t-203 -27q-85 0 -162 20.5t-135.5 41t-99.5 20.5 q-26 0 -48.5 -19t-27.5 -44z" />
<glyph unicode="T" horiz-adv-x="1402" d="M117 0l8 29h215l502 1401h-201q-41 0 -81 -13.5t-72 -32.5t-66 -52t-56.5 -58t-50 -65t-39.5 -60t-32.5 -55t-22.5 -39h-28l143 403h1235l-144 -403h-28q18 71 18 188q0 85 -45 136t-143 51h-203l-502 -1401h234l-8 -29h-633z" />
<glyph unicode="U" horiz-adv-x="1517" d="M172 313q0 81 19.5 160t64.5 203l270 754h-233l8 28h633l-8 -28h-215l-314 -875q-34 -95 -48.5 -159.5t-14.5 -137.5q0 -110 71.5 -184t198.5 -74q395 0 547 494l291 936h-234l9 28h479l-8 -28h-213l-301 -963q-80 -258 -219.5 -376t-366.5 -118q-90 0 -163 21.5 t-119 55.5t-77 80t-44 91t-13 92z" />
<glyph unicode="V" horiz-adv-x="1441" d="M143 1430l9 28h632l-8 -28h-221v-1215h4l846 1215h-203l8 28h414l-8 -28h-170l-1018 -1457h-53l-8 1457h-224z" />
<glyph unicode="W" horiz-adv-x="2123" d="M164 1430l8 28h602l-8 -28h-199l-12 -1207h4l535 801l4 406h-215l8 28h620l-8 -28h-229l-12 -1192h4l796 1192h-196l8 28h420l-8 -28h-183l-979 -1457h-41l9 988h-5l-663 -988h-51l16 1457h-225z" />
<glyph unicode="X" horiz-adv-x="1402" d="M-150 0l9 29h153l611 694l-187 707h-219l8 28h627l-8 -28h-217l151 -578l502 578h-195l9 28h399l-8 -28h-164l-528 -607l206 -794h218l-9 -29h-624l8 29h221l-176 663l-584 -663h203l-8 -29h-398z" />
<glyph unicode="Y" horiz-adv-x="1327" d="M106 0l9 29h229l225 633l-145 768h-223l8 28h631l-9 -28h-227l133 -703l625 703h-201l8 28h402l-8 -28h-160l-651 -736l-240 -665h236l-9 -29h-633z" />
<glyph unicode="Z" horiz-adv-x="1327" d="M-100 0l1235 1430h-437q-219 0 -417 -371h-29l141 399h981l-1237 -1429h559q31 0 62 8.5t57 21.5t54.5 35t49.5 41.5t45.5 48.5t39.5 49t35.5 51t29.5 45.5t25 41t18 30.5h29l-146 -401h-1095z" />
<glyph unicode="[" d="M-98 -571l540 2029h254l-12 -41h-209l-520 -1947h211l-12 -41h-252z" />
<glyph unicode="\" horiz-adv-x="606" d="M236 1475l40 20l95 -1511l-41 -21z" />
<glyph unicode="]" d="M-283 -571l13 41h209l520 1947h-213l12 41h254l-541 -2029h-254z" />
<glyph unicode="^" horiz-adv-x="1214" d="M217 625l354 833h17l354 -833h-43l-319 755l-320 -755h-43z" />
<glyph unicode="_" horiz-adv-x="1024" d="M0 -152h1024v-63h-1024v63z" />
<glyph unicode="`" d="M162 1413q0 30 17.5 48t51.5 18q18 0 33.5 -9.5t22 -18t20.5 -28.5l203 -293h-31l-272 216q-45 36 -45 67z" />
<glyph unicode="a" horiz-adv-x="1099" d="M-2 236q0 95 45.5 195.5t118 183t157.5 149.5t169.5 104t148.5 37q63 0 105 -35.5t42 -91.5h4l35 101h144l-224 -621q-45 -120 -45 -190q0 -54 52 -54q31 0 61 17t48 35t39.5 51.5t25.5 42.5t16 33l27 -15q-13 -29 -31.5 -57.5t-50.5 -65t-78.5 -58.5t-99.5 -22 q-136 0 -136 123q0 51 23 115h-4q-26 -32 -36.5 -44t-39.5 -43.5t-47.5 -46.5t-51 -39t-60 -35.5t-64.5 -20.5t-74 -9q-94 0 -156.5 66.5t-62.5 194.5zM139 150q0 -148 111 -148q55 0 119.5 37t114.5 88.5t86.5 101t47.5 80.5l109 301q39 104 39 142q0 20 -5.5 40t-17.5 40 t-37 32.5t-59 12.5q-78 0 -157 -53.5t-140 -137t-110 -181.5t-75 -192t-26 -163z" />
<glyph unicode="b" horiz-adv-x="1062" d="M45 215q0 73 43 191l399 1122h-180l8 28h328l-319 -890l4 -2q61 95 150.5 168t187.5 73q121 0 189.5 -81t68.5 -193q0 -118 -66 -240.5t-163 -212t-209 -146.5t-203 -57q-41 0 -81.5 14t-76.5 41t-58 75.5t-22 109.5zM160 139q0 -137 127 -137q89 0 184 80t165 195 t115.5 244t45.5 227q0 62 -37 95.5t-101 33.5q-82 0 -174 -77t-162 -189t-116.5 -241.5t-46.5 -230.5z" />
<glyph unicode="c" horiz-adv-x="833" d="M20 283q0 137 82.5 281.5t220.5 242.5t283 98q49 0 90 -14t71 -52.5t30 -97.5q0 -108 -105 -108q-65 0 -65 51q0 34 27.5 67.5t27.5 67.5q0 58 -88 58q-63 0 -122.5 -32.5t-105.5 -87t-85 -124t-64 -143.5t-39 -145.5t-14 -131.5q0 -93 52.5 -152t152.5 -59q54 0 105 21 t89 56t65 68t48 70l29 -16q-143 -226 -367 -226q-147 0 -232.5 88.5t-85.5 219.5z" />
<glyph unicode="d" horiz-adv-x="1099" d="M-2 236q0 95 45.5 195.5t118 183t157.5 149.5t169.5 104t148.5 37q63 0 105 -35.5t42 -91.5h4l267 750h-181l9 28h325l-465 -1298q-45 -130 -45 -190q0 -54 52 -54q31 0 61 17t48 35t39.5 51.5t25.5 42.5t16 33l27 -15q-13 -29 -31.5 -57.5t-50.5 -65t-78.5 -58.5 t-99.5 -22q-136 0 -136 123q0 51 23 115h-4q-26 -32 -36.5 -44t-39.5 -43.5t-47.5 -46.5t-51 -39t-60 -35.5t-64.5 -20.5t-74 -9q-94 0 -156.5 66.5t-62.5 194.5zM139 150q0 -148 111 -148q55 0 119.5 37t114.5 88.5t86.5 101t47.5 80.5l109 301q39 104 39 142q0 20 -5.5 40 t-17.5 40t-37 32.5t-59 12.5q-78 0 -157 -53.5t-140 -137t-110 -181.5t-75 -192t-26 -163z" />
<glyph unicode="e" horiz-adv-x="872" d="M4 283q0 99 50.5 210.5t129.5 202t185.5 150t208.5 59.5q91 0 160 -39.5t69 -113.5q0 -62 -42.5 -112.5t-102.5 -79.5t-131.5 -48.5t-122.5 -26t-82 -6.5q-81 0 -125 8q-54 -153 -54 -266q0 -107 56 -163t147 -56q41 0 80.5 13t66.5 29t57.5 45t43.5 45t36 47t25 34 l25 -14q-4 -5 -27 -37.5t-48.5 -60t-65 -59.5t-96.5 -50.5t-123 -18.5q-83 0 -147.5 28.5t-100.5 75t-54 98.5t-18 106zM211 516q41 -8 104 -8q146 0 255.5 82t109.5 188q0 44 -26.5 71.5t-80.5 27.5q-60 0 -120.5 -36t-106.5 -93t-80.5 -116.5t-54.5 -115.5z" />
<glyph unicode="f" horiz-adv-x="681" d="M-434 -387q0 41 24.5 68.5t71.5 27.5q29 0 44 -11.5t15 -41.5q0 -14 -10 -46t-10 -52q0 -25 17 -38.5t44 -13.5q182 0 316 498l225 846h-194l8 29h194l31 112q65 238 228 401.5t339 163.5q95 0 147 -49.5t52 -107.5q0 -42 -21.5 -73.5t-70.5 -31.5q-42 0 -63 16.5 t-21 41.5q0 29 24.5 63.5t24.5 54.5q0 58 -78 58q-51 0 -98 -20.5t-83 -52.5t-69.5 -78t-56.5 -89.5t-44 -95t-32.5 -87t-21.5 -71.5l-43 -155h252l-9 -29h-252l-182 -694q-35 -135 -88.5 -255t-120.5 -215.5t-150.5 -151.5t-170.5 -56q-30 0 -57.5 6.5t-53.5 21t-41.5 42 t-15.5 65.5z" />
<glyph unicode="g" horiz-adv-x="1062" d="M-150 -338q0 46 22.5 91.5t57.5 80.5t67 59.5t62 40.5l58 31q-67 20 -92 37q-58 39 -58 123q0 129 144 205l75 41q-61 71 -61 159q0 71 39.5 141t100 120.5t135 82t143.5 31.5q94 0 155.5 -38.5t92.5 -90.5q23 34 37.5 52t47.5 37.5t72 19.5q55 0 94 -37t39 -90 q0 -84 -88 -84q-30 0 -48.5 14t-18.5 37q0 24 20.5 47t20.5 51q0 13 -10.5 23t-28.5 10q-31 0 -63 -29.5t-56 -78.5q12 -18 21.5 -49.5t9.5 -57.5q0 -84 -64 -168t-159.5 -136t-184.5 -52q-125 0 -221 63l-43 -20q-64 -30 -98.5 -68t-34.5 -76q0 -44 44 -67t142 -27l262 -12 q275 -14 275 -228q0 -71 -35.5 -148t-98.5 -143.5t-163 -109.5t-217 -43q-160 0 -277 77.5t-117 178.5zM-14 -330q0 -82 38 -136.5t93 -76.5t123 -22q174 0 305 105.5t131 236.5q0 72 -54.5 120t-177.5 52l-288 10l-58 -45q-57 -46 -84.5 -103t-27.5 -141zM268 485 q0 -95 40.5 -133.5t123.5 -38.5q65 0 117.5 40.5t83.5 103t47 130.5t16 130q0 160 -159 160q-60 0 -112.5 -41.5t-85.5 -103t-52 -127.5t-19 -120z" />
<glyph unicode="h" horiz-adv-x="1099" d="M-6 0l553 1528h-187l9 28h323l-342 -927h4q35 47 73 88t87.5 83t105.5 66.5t109 24.5q84 0 135 -45.5t51 -114.5q0 -45 -38 -149l-134 -379q-32 -94 -32 -135q0 -66 53 -66q34 0 67 19.5t58 51t42.5 59t29.5 54.5l22 -10q-10 -21 -14.5 -29t-19.5 -34t-27 -40 t-33.5 -35.5t-43 -33t-51.5 -20.5t-63 -9q-71 0 -113.5 30t-42.5 93q0 40 25 117l172 490q16 44 16 81q0 31 -19 53.5t-60 22.5q-61 0 -142 -56.5t-158.5 -158.5t-119.5 -219l-154 -428h-141z" />
<glyph unicode="i" d="M29 96q0 45 37 154l210 600h-182l8 29h326l-242 -695q-30 -88 -30 -123q0 -26 14.5 -42.5t42.5 -16.5q31 0 64.5 21.5t59.5 53t44 60t27 49.5l24 -10q-38 -75 -67 -109q-78 -92 -189 -92q-147 0 -147 121zM403 1362q0 41 28 68.5t69 27.5t68.5 -27.5t27.5 -68.5 t-27.5 -68.5t-68.5 -27.5t-69 27.5t-28 68.5z" />
<glyph unicode="j" d="M-487 -375q0 38 26 66t66 28q31 0 49 -14.5t18 -40.5q0 -22 -12 -49t-12 -49q0 -28 18.5 -43t50.5 -15q108 0 203 269l389 1073h-186l8 29h330l-326 -904q-18 -49 -43 -103.5t-69 -127.5t-92 -129t-113.5 -95.5t-132.5 -39.5q-65 0 -118.5 38t-53.5 107zM436 1362 q0 41 27.5 68.5t68.5 27.5t69 -27.5t28 -68.5t-28 -68.5t-69 -27.5t-68.5 27.5t-27.5 68.5z" />
<glyph unicode="k" horiz-adv-x="1062" d="M-6 0l545 1528h-183l9 28h327l-352 -987h43q66 0 125 49t121 134q111 153 223 153q104 0 104 -112q0 -46 -24 -72.5t-62 -26.5q-73 0 -73 56q0 18 8 37t8 32q0 25 -33 25q-23 0 -48 -23.5t-70 -79.5l-52 -61q-89 -106 -139 -121v-6q64 -11 91 -27q61 -38 81 -137l53 -272 q20 -103 70 -103q27 0 54 22t47.5 55.5t33.5 59.5t21 48l28 -9q-15 -34 -26.5 -57t-34 -56t-46 -52.5t-59 -34.5t-75.5 -15q-62 0 -97.5 30t-54.5 116l-55 256q-8 37 -11.5 52t-13.5 42.5t-21.5 38.5t-33 21t-49.5 10h-45l-193 -541h-141z" />
<glyph unicode="l" d="M29 96q0 45 37 154l456 1278h-182l8 28h326l-488 -1372q-30 -88 -30 -123q0 -26 14.5 -42.5t42.5 -16.5q31 0 64.5 21.5t59.5 53t44 60t27 49.5l24 -10q-38 -75 -67 -109q-78 -92 -189 -92q-147 0 -147 121z" />
<glyph unicode="m" horiz-adv-x="1554" d="M-12 0l295 850h-187l8 29h324l-78 -234h4q28 39 64.5 78t83.5 78.5t101.5 64.5t105.5 25q76 0 118.5 -45t42.5 -115q0 -33 -10 -78h4q24 35 56.5 72.5t77 76.5t97 64t101.5 25q84 0 135 -45.5t51 -114.5q0 -8 -0.5 -15t-2 -15.5t-2.5 -14.5t-4 -16t-4 -15t-5.5 -17.5 t-6 -16.5t-7 -19.5t-7.5 -19.5l-133 -379q-32 -94 -32 -144q0 -57 53 -57q23 0 45 8t43 28t33.5 32.5t31.5 43t23 37t20 35.5l23 -10q-10 -21 -14.5 -29t-19.5 -34t-27 -40t-33.5 -35.5t-43 -33t-51.5 -20.5t-63 -9q-71 0 -113.5 30t-42.5 93q0 46 25 117l172 490 q16 44 16 81q0 38 -17 57t-62 19q-89 0 -210 -130t-182 -304l-153 -428h-144l240 662q29 83 29 118q0 82 -66 82q-39 0 -92 -28.5t-110 -80t-113 -137.5t-92 -188l-154 -428h-141z" />
<glyph unicode="n" horiz-adv-x="1099" d="M-6 0l295 850h-187l9 29h323l-84 -252h4q200 264 375 264q84 0 135 -45.5t51 -114.5q0 -45 -38 -149l-134 -379q-32 -94 -32 -135q0 -66 53 -66q34 0 67 19.5t58 51t42.5 59t29.5 54.5l22 -10q-10 -21 -14.5 -29t-19.5 -34t-27 -40t-33.5 -35.5t-43 -33t-51.5 -20.5 t-63 -9q-71 0 -113.5 30t-42.5 93q0 40 25 117l172 490q16 44 16 81q0 31 -19 53.5t-60 22.5q-61 0 -142 -56.5t-158.5 -158.5t-119.5 -219l-154 -428h-141z" />
<glyph unicode="o" horiz-adv-x="985" d="M0 322q0 119 51 229.5t130 186.5t175 121.5t185 45.5q77 0 139 -32.5t98.5 -84.5t56 -111.5t19.5 -119.5q0 -92 -33 -182t-89 -160.5t-125 -125.5t-144 -84.5t-144 -29.5q-142 0 -230.5 102t-88.5 245zM135 207q0 -101 48.5 -153t129.5 -52q73 0 140 53t114 132.5 t82.5 171.5t52.5 172.5t17 132.5q0 103 -44.5 158t-144.5 55q-86 0 -163 -74t-126 -181t-77.5 -219t-28.5 -196z" />
<glyph unicode="p" horiz-adv-x="1099" d="M-360 -571l8 28h147l490 1393h-191l8 29h324l-43 -134h4q39 58 110.5 109t157.5 51q97 0 166.5 -51t101 -131t31.5 -178q0 -68 -26 -146t-76.5 -153t-116.5 -135.5t-153.5 -98t-180.5 -37.5q-80 0 -137.5 53t-70.5 140h-5l-249 -711h172l-9 -28h-462zM207 217 q9 -43 21.5 -77.5t34.5 -67.5t58.5 -51.5t84.5 -18.5q81 0 159 72t130 175.5t84 215.5t32 197q0 97 -37.5 156t-122.5 59q-38 0 -75.5 -14.5t-63 -32t-56 -49.5t-43 -48t-35.5 -47l-9 -12z" />
<glyph unicode="q" horiz-adv-x="1099" d="M0 213q0 81 32 167.5t84.5 161.5t120.5 143t139 116t142 76t127 28q51 0 85 -25t46.5 -54.5t16.5 -63.5h4l39 117h143l-510 -1422h166l-8 -28h-490l8 28h181l266 736l-4 4q-170 -222 -348 -222q-95 0 -167.5 63t-72.5 175zM143 137q0 -59 28 -97t85 -38q53 0 118 38.5 t117 92t91 106.5t51 87l115 319q16 44 16 86q0 68 -32 107t-87 39q-59 0 -123 -40.5t-118 -105.5t-103 -146.5t-83.5 -163.5t-54.5 -157.5t-20 -126.5z" />
<glyph unicode="r" horiz-adv-x="833" d="M10 0l221 631q11 32 22.5 68.5t24.5 81t21 69.5h-178l8 29h315q-34 -138 -71 -236l4 -4q26 39 40.5 59.5t50 63t64.5 66t70.5 43.5t81.5 20q71 0 112.5 -40.5t41.5 -94.5q-1 -32 -12 -54.5t-29 -33t-35 -15t-35 -4.5q-65 0 -65 58q0 29 28.5 55t28.5 55q0 20 -16 32.5 t-41 12.5q-78 0 -190.5 -140.5t-170.5 -303.5l-147 -418h-144z" />
<glyph unicode="s" horiz-adv-x="720" d="M-90 133q0 46 29 70t75 24q19 0 34 -13.5t15 -31.5q0 -16 -10 -46t-10 -46q0 -88 115 -88q96 0 155.5 54t59.5 116q0 40 -13 72t-45 75l-102 136q-2 2 -15 19.5t-15.5 21t-13 19t-13.5 22t-9.5 20.5t-8.5 23.5t-4.5 23t-2.5 27.5q0 101 95.5 187.5t230.5 86.5 q86 0 138 -37.5t52 -97.5q0 -86 -84 -86q-30 0 -50.5 17t-20.5 47q0 21 13 42t13 33q0 54 -69 54q-92 0 -141.5 -50.5t-49.5 -119.5q0 -38 17.5 -71t60.5 -91l121 -158q43 -53 43 -133q0 -66 -34.5 -121.5t-88 -88.5t-112.5 -51t-113 -18q-99 0 -170.5 42t-71.5 116z" />
<glyph unicode="t" horiz-adv-x="606" d="M29 104q0 55 47 189l200 557h-184l8 29h185l73 200h144l-74 -200h223l-8 -29h-223l-234 -651q-30 -88 -30 -129q0 -68 65 -68q34 0 69 21.5t61.5 53.5t44 60t26.5 49l24 -10q-40 -79 -76 -117q-77 -84 -186 -84q-75 0 -115 36t-40 93z" />
<glyph unicode="u" horiz-adv-x="1062" d="M29 135q0 14 4.5 36t9 35.5t14 42.5t11.5 34l200 567h-182l8 29h330l-236 -676q-32 -91 -32 -127q0 -32 16.5 -53t50.5 -21q71 0 161 70t165.5 176t112.5 211l145 420h143l-241 -695q-31 -91 -31 -123q0 -26 14.5 -42.5t42.5 -16.5q42 0 86.5 38t70 76.5t38.5 69.5 l24 -10q-38 -75 -67 -109q-78 -92 -189 -92q-147 0 -147 121q0 61 33 140l-4 4q-40 -50 -71.5 -85t-81.5 -82t-103.5 -72.5t-104.5 -25.5q-89 0 -139.5 41.5t-50.5 118.5z" />
<glyph unicode="v" horiz-adv-x="948" d="M92 506q0 168 240 377l43 37l18 -21q-4 -4 -29 -30.5t-44.5 -50.5t-43 -59t-36.5 -76.5t-13 -82.5q0 -71 16.5 -133.5t51.5 -147.5q41 -107 43 -163q4 3 49.5 39.5t61 49.5t58.5 51.5t62 60t51 60t46.5 67.5t26.5 66t12 71q0 54 -17 93t-34 68t-17 58q0 33 26 49t68 16 q100 0 100 -149q0 -220 -276 -459l-104 -90q-30 -26 -77 -61.5t-69 -57.5q-70 -70 -92 -113l-27 15q25 31 25 92q0 40 -27 115l-43 118q-49 134 -49 191z" />
<glyph unicode="w" horiz-adv-x="1517" d="M80 510q0 93 63 192.5t176 184.5l43 33l19 -21q-1 -1 -14 -13.5t-20.5 -20.5t-23 -24.5t-25.5 -30.5t-24 -34t-23.5 -39t-18 -41t-13 -45.5t-4.5 -46.5q0 -71 16.5 -132.5t51.5 -147.5q41 -107 43 -164q8 6 44.5 35.5t52.5 43t52 44t55 51t49 52.5t46.5 58t34 57.5 t25 62.5t7.5 61q0 54 -17 93t-33.5 68t-16.5 58q0 31 26.5 46t67.5 15q41 -4 67.5 -36.5t26.5 -69.5q66 73 131 121l19 -21l-39 -41q-39 -41 -60.5 -69t-45 -82t-23.5 -107q0 -71 17 -132.5t52 -148.5q41 -107 43 -163q4 3 49.5 39.5t61 49.5t58.5 51.5t62 60t51 60 t46.5 67.5t26.5 66t12 71q0 54 -17 93t-34 68t-17 58q0 33 26 49t68 16q101 0 101 -149q0 -219 -277 -459l-104 -90q-30 -26 -77 -61.5t-69 -57.5q-70 -70 -92 -113l-26 15q24 30 24 92q0 43 -26 115l-43 118q-18 49 -35 113q-92 -92 -133 -127l-105 -90q-29 -25 -76 -61 t-69 -58q-66 -66 -92 -117l-27 15q25 31 25 96q0 40 -27 115l-43 118q-49 134 -49 191z" />
<glyph unicode="x" horiz-adv-x="1138" d="M-72 127q0 58 31.5 87.5t77.5 29.5q26 0 42.5 -13.5t16.5 -40.5q0 -26 -27.5 -59t-27.5 -70q0 -34 22.5 -46.5t69.5 -12.5q29 0 55 9.5t58 35.5t67 81t70 136q45 105 88 249.5t43 219.5q0 65 -27.5 104.5t-85.5 39.5q-46 0 -90.5 -26t-77.5 -66t-54 -73t-34 -61l-28 13 q13 29 33 61t57.5 77t92.5 74t116 29q41 0 74 -13.5t53 -31.5t36 -45t22.5 -45t12.5 -41q19 25 43.5 50t63 56t87 50.5t97.5 19.5q87 0 131.5 -47.5t44.5 -114.5q0 -47 -26 -79.5t-82 -32.5q-64 0 -64 51q0 30 29 65.5t29 69.5q0 30 -21.5 45t-50.5 15q-74 0 -147 -94 t-121.5 -219.5t-78.5 -239.5t-30 -166q0 -72 27.5 -114t81.5 -42q39 0 77 18t63 39.5t53.5 59.5t39 55.5t29.5 50.5l26 -12q-54 -95 -99 -142q-92 -96 -202 -96q-147 0 -194 172q-30 -33 -47.5 -50.5t-50 -44.5t-60 -41t-66.5 -25t-81 -11q-94 0 -140.5 45t-46.5 107z" />
<glyph unicode="y" horiz-adv-x="948" d="M-276 -381q0 88 96 88q27 0 43 -13.5t16 -37.5q0 -22 -10 -46t-10 -52q0 -23 19 -37.5t50 -14.5q57 0 120.5 74.5t115 192t85.5 277t34 315.5q0 512 -95 512q-101 0 -155 -242l-29 8q29 113 54 159q57 102 153 103q62 0 108.5 -33t71 -86.5t36 -109t11.5 -111.5 q0 -175 -45 -395h4l314 565q48 87 74 116q51 54 120 54q46 0 67 -22.5t21 -57.5q0 -39 -24.5 -63.5t-65.5 -24.5q-39 0 -39 37q0 16 11.5 34t11.5 30q0 29 -29 26q-25 -2 -54 -36t-73 -113l-373 -676l-118 -221q-40 -74 -74.5 -128t-78.5 -106t-91.5 -79t-97.5 -27 q-79 0 -126.5 38t-47.5 103z" />
<glyph unicode="z" horiz-adv-x="948" d="M-51 -6l661 743q-249 13 -387 13q-35 0 -51.5 -12t-24.5 -42l-10 -39l-28 7q9 26 28 101.5t23 88.5q6 19 16 26t33 7q39 0 255 -8.5t249 -8.5q32 0 53 29l20 -16l-634 -707q73 0 160 -16.5t153 -48.5l100 -50q65 -30 113 -30q29 0 45 16t16 41q0 17 -7.5 28t-29.5 31 q-1 1 -16.5 13t-20 17.5t-14 17t-13 24.5t-3.5 29q0 34 24.5 51.5t57.5 17.5q92 0 92 -116q0 -119 -69 -172.5t-181 -53.5q-53 0 -180 31l-98 25q-71 18 -156 18q-88 0 -152 -74z" />
<glyph unicode="{" horiz-adv-x="833" d="M35 438l2 11q47 7 86 17.5t69 21t55.5 27.5t43 30.5t33 37t25 39.5t20 46t15.5 48.5t15 53.5l72 268q22 82 41.5 137.5t46.5 106.5t58.5 81t76.5 53t102.5 32.5t133.5 9.5l-10 -37q-65 0 -114.5 -8.5t-88.5 -28.5t-67 -47t-52 -72t-42 -94t-38 -122l-45 -160l-29 -125 q-38 -166 -113 -235.5t-237 -86.5q81 -5 125 -41q78 -60 78 -163q0 -49 -31 -160l-65 -242q-29 -105 -29 -172q0 -92 58.5 -142.5t164.5 -56.5l-10 -36q-258 31 -258 233q0 23 6.5 60t12 62t16.5 68t12 46l57 217q21 81 21 118q0 43 -15.5 78t-37 55.5t-54 36t-56.5 22.5 t-54 13z" />
<glyph unicode="|" horiz-adv-x="454" d="M207 -510v2046h41v-2046h-41z" />
<glyph unicode="}" horiz-adv-x="833" d="M-240 -571l11 36q123 0 195.5 31.5t121 110t88.5 229.5l43 164q1 3 14 58.5t17 64.5q45 167 120.5 237t233.5 82q-4 1 -25 4t-32.5 6t-31.5 11.5t-36 21.5q-73 57 -73 160q0 49 30 162l66 244q30 117 30 176q0 181 -219 194l11 37q32 -4 60 -10t66 -22.5t64 -40t45 -65 t19 -93.5t-42 -209q-2 -6 -3 -9.5t-2.5 -9t-2.5 -10.5l-59 -219q-18 -75 -18 -119q0 -43 14.5 -77t35 -54.5t52 -35.5t56 -22t55.5 -13l-2 -11q-58 -9 -104.5 -23t-80.5 -29.5t-60.5 -39t-44 -45t-32.5 -54.5t-24 -60.5t-21 -69.5l-74 -269q-34 -125 -69.5 -201t-89.5 -127 t-125 -71t-177 -20z" />
<glyph unicode="~" horiz-adv-x="1214" d="M-53 332q9 29 14 45t18 49t26 53.5t35.5 47t47.5 42t60.5 26.5t76.5 11q53 0 178 -43l254 -96q121 -47 168 -47q155 0 232 235h37q-9 -31 -17 -52t-24 -58t-36.5 -62t-48.5 -51t-67 -39.5t-84 -13.5q-58 0 -176 45l-250 96q-118 45 -178 45q-23 0 -44.5 -5t-38 -11.5 t-32.5 -20t-26.5 -23t-23 -29t-18.5 -29t-15 -32t-12 -29.5t-10.5 -29.5t-8.5 -24.5h-37z" />
<glyph unicode="&#xa1;" horiz-adv-x="645" d="M33 -514q0 26 28 108l328 930h14l-184 -1020q-17 -98 -96 -98q-39 0 -64.5 20t-25.5 60zM383 819q0 41 27.5 68.5t68.5 27.5t68.5 -27.5t27.5 -68.5t-27.5 -68.5t-68.5 -27.5t-68.5 27.5t-27.5 68.5z" />
<glyph unicode="&#xa2;" horiz-adv-x="987" d="M76 283q0 103 43.5 213.5t116 201t178 149t219.5 58.5h31q10 0 26 -4l82 156l29 -13l-76 -147q127 -32 127 -156q0 -108 -104 -108q-66 0 -66 47q0 10 27.5 57t27.5 78q0 36 -30 45l-426 -807q51 -51 143 -51q54 0 105 21t89 56t65 68t48 70l29 -16q-143 -226 -367 -226 q-77 0 -139 27l-84 -158l-29 13l84 159q-71 38 -110 109t-39 158zM219 213q0 -80 39 -135l416 790q-18 9 -66 9q-91 0 -168.5 -70t-123.5 -174.5t-71.5 -215.5t-25.5 -204z" />
<glyph unicode="&#xa3;" horiz-adv-x="1214" d="M33 106q0 57 44.5 86t110.5 29q79 0 195 -37l7 16q8 17 10.5 23t9 23t9 29t5 30t2.5 35q0 62 -7 131.5t-19.5 154t-16.5 126.5h-199l9 28h186q-14 110 -14 193q0 93 41 186t108.5 164.5t160.5 116.5t191 45q121 0 198 -60t77 -153q0 -58 -25.5 -98.5t-83.5 -40.5 q-69 0 -69 51q0 38 31.5 86t31.5 86q0 51 -47.5 75.5t-112.5 24.5q-71 0 -123.5 -23t-89.5 -66.5t-62.5 -117t-40.5 -162.5t-26 -215l-8 -92h311l-8 -28h-305l-25 -275q-19 -211 -77 -299q150 -43 338 -43q51 0 92.5 9t65 20t43.5 29.5t26 27.5t15 24q2 4 3 5l25 -12 q-2 -3 -5 -9q-18 -32 -31 -54t-45.5 -64.5t-63.5 -68.5t-77.5 -47.5t-95.5 -21.5q-69 0 -121 21.5t-149 83.5l-57 37q-75 -123 -197 -123q-66 0 -105.5 32t-39.5 82zM61 109q0 -44 36 -67.5t85 -23.5q56 0 100 36t68 77q-80 62 -166 62q-123 0 -123 -84z" />
<glyph unicode="&#xa4;" horiz-adv-x="1138" d="M131 319l129 132q-106 122 -106 280q0 76 28 151t80 130l-131 131l27 26l131 -131q121 109 280 109q151 0 279 -109l133 131l27 -26l-131 -131q108 -122 108 -281q0 -160 -108 -280l131 -132l-27 -26l-133 131q-112 -109 -281 -109q-149 0 -278 109l-131 -131zM197 731 q0 -155 108 -264t264 -109q154 0 263.5 109t109.5 264q0 154 -109.5 263.5t-263.5 109.5q-156 0 -264 -110t-108 -263z" />
<glyph unicode="&#xa5;" horiz-adv-x="987" d="M-10 588l6 28h403l23 78l-31 178h-325l6 29h313l-104 529h-189l8 28h547l-8 -28h-195l123 -707l488 707h-162l8 28h336l-8 -28h-133l-367 -529h315l-10 -29h-325l-123 -178l-23 -78h404l-9 -28h-403l-149 -559h198l-8 -29h-551l6 29h191l149 559h-401z" />
<glyph unicode="&#xa6;" horiz-adv-x="454" d="M207 -356v714h41v-714h-41zM207 666v716h41v-716h-41z" />
<glyph unicode="&#xa7;" horiz-adv-x="1062" d="M-145 -360q0 59 29 93t77 34q35 0 55.5 -18.5t20.5 -49.5q0 -22 -14.5 -62t-14.5 -71q0 -60 51.5 -95.5t122.5 -35.5q90 0 172.5 48.5t134.5 135t52 186.5q0 79 -37.5 134t-120.5 118l-137 105q-91 68 -128.5 135.5t-37.5 148.5q0 113 52.5 194.5t164.5 160.5l100 71 q-71 80 -71 189q0 115 68 214t175.5 154.5t225.5 55.5q120 0 195 -64.5t75 -150.5q0 -137 -102 -137q-35 0 -55.5 18.5t-20.5 48.5q0 29 25.5 71t25.5 79q0 52 -47 79t-107 27q-59 0 -120.5 -24t-111 -65t-81 -99.5t-31.5 -122.5q0 -79 43 -141.5t117 -120.5l137 -107 q87 -66 120.5 -124.5t33.5 -129.5q0 -68 -30 -134.5t-68.5 -112.5t-90.5 -89.5t-80.5 -62t-54.5 -33.5q39 -34 70 -89.5t31 -125.5q0 -84 -37.5 -167.5t-102 -150.5t-159.5 -109t-201 -42q-145 0 -229 69t-84 165zM154 535q0 -109 110 -197l170 -135q87 -70 111 -94 q32 18 66 42.5t80.5 67.5t76 100.5t29.5 118.5t-31 107t-94 96l-140 111q-82 66 -116 100l-80 -59q-92 -69 -137 -127t-45 -131z" />
<glyph unicode="&#xa8;" d="M176 1362q0 41 27.5 68.5t68.5 27.5t69 -27.5t28 -68.5t-28 -68.5t-69 -27.5t-68.5 27.5t-27.5 68.5zM553 1362q0 41 27.5 68.5t68.5 27.5t68.5 -27.5t27.5 -68.5t-27.5 -68.5t-68.5 -27.5t-68.5 27.5t-27.5 68.5z" />
<glyph unicode="&#xa9;" horiz-adv-x="1705" d="M96 729q0 153 60 293t161 241.5t241 161.5t294 60t294.5 -60t242 -161.5t161.5 -241.5t60 -293q0 -154 -60 -294t-161 -241t-241.5 -161t-295.5 -60q-154 0 -294 60t-241 161t-161 241t-60 294zM137 729q0 -145 56 -277.5t151.5 -229t228 -153.5t279.5 -57q146 0 279 57 t229 153t152.5 228.5t56.5 278.5q0 145 -57 277.5t-153 228.5t-228.5 152.5t-278.5 56.5q-147 0 -279.5 -57t-228 -153t-151.5 -228t-56 -277zM440 739q0 122 56 227.5t157.5 169.5t225.5 64q58 0 120 -23.5t80 -23.5q15 0 26.5 4t15.5 7.5t14 13.5h18v-246h-14 q-11 53 -28 93t-47.5 78t-80.5 58.5t-117 20.5q-54 0 -97.5 -15.5t-72.5 -40t-50.5 -62t-33.5 -74.5t-19 -84t-9 -84.5t-2 -82.5q0 -127 20 -214t59 -134.5t88.5 -67.5t116.5 -20q40 0 74 5.5t60 18.5t45.5 25.5t35.5 35.5t26 38.5t20 45.5t15 45.5t13 47.5h14v-262h-18 q-19 27 -53 27q-16 0 -89 -22.5t-139 -22.5q-161 0 -288 121q-142 142 -142 333z" />
<glyph unicode="&#xaa;" horiz-adv-x="659" d="M47 1040q0 71 46 146t111.5 130t137.5 90.5t123 35.5q43 0 69.5 -23t26.5 -55h4l21 61h94l-145 -370q-31 -80 -31 -107q0 -37 35 -37q21 0 40 8.5t33 23.5t23 26.5t17.5 27.5t9.5 17l18 -8q-18 -42 -62 -82.5t-108 -40.5q-88 0 -88 69q0 18 16 80h-4q-15 -20 -33 -40 t-49.5 -47.5t-73 -44.5t-85.5 -17q-61 0 -103.5 40t-42.5 117zM141 989q0 -42 16.5 -60t57.5 -18q64 0 139 65.5t99 127.5l90 227q0 88 -72 88q-62 0 -125 -48t-106.5 -116t-71 -141t-27.5 -125z" />
<glyph unicode="&#xab;" horiz-adv-x="833" d="M41 430q0 73 35.5 132t92 94.5t118 55t123.5 23.5v-28q-107 -8 -185 -97.5t-78 -238.5q0 -120 125 -185l-12 -28q-12 3 -32.5 11.5t-55 30.5t-62 50.5t-48.5 76.5t-21 103zM297 403q0 73 35.5 132t92 94.5t118 55.5t123.5 24v-29q-107 -8 -185 -97.5t-78 -238.5 q0 -42 14 -76t38.5 -56.5t38.5 -32t34 -19.5l-12 -29q-12 3 -32.5 11.5t-55 30.5t-62 50.5t-48.5 76.5t-21 103z" />
<glyph unicode="&#xac;" horiz-adv-x="1214" d="M27 649v37h983v-389h-41v352h-942z" />
<glyph unicode="&#xad;" horiz-adv-x="757" d="M106 377l33 123h357l-33 -123h-357z" />
<glyph unicode="&#xae;" horiz-adv-x="1003" d="M195 1104q0 157 111 269t269 112q157 0 269 -112t112 -269q0 -158 -112 -269.5t-269 -111.5q-158 0 -269 111.5t-111 269.5zM215 1104q0 -148 106 -254.5t254 -106.5t254.5 106.5t106.5 254.5t-106.5 254t-254.5 106t-254 -106t-106 -254zM406 907v8h63v385h-63v9h106 q9 0 27.5 1t27.5 1q71 0 105 -25q37 -32 37 -72q0 -11 -3.5 -22.5t-12.5 -26t-30.5 -25t-52.5 -14.5v-2q89 -14 105 -65q4 -17 6.5 -57t5.5 -52q0 -1 2.5 -7.5t3 -8t2.5 -7t4 -7t5 -4.5t7 -4t9 -1q18 0 31 13l4 -6q-20 -15 -50 -15q-42 0 -59 21t-20 65l-4 53q-6 76 -80 76 h-58v-203h64v-8h-182zM524 1126h51q34 0 52 19t18 69q0 52 -23.5 70.5t-60.5 18.5h-20q-14 0 -17 -3v-174z" />
<glyph unicode="&#xaf;" d="M166 1233l24 61h576l-25 -61h-575z" />
<glyph unicode="&#xb0;" horiz-adv-x="819" d="M293 1208q0 116 80.5 196.5t195.5 80.5t196 -80.5t81 -196.5q0 -115 -80.5 -195.5t-196.5 -80.5q-115 0 -195.5 80t-80.5 196zM334 1208q0 -98 68.5 -166.5t166.5 -68.5t167 68.5t69 166.5t-69 167t-167 69t-166.5 -69t-68.5 -167z" />
<glyph unicode="&#xb1;" horiz-adv-x="1214" d="M27 0v37h983v-37h-983zM27 539v36h471v408h41v-408h471v-36h-471v-404h-41v404h-471z" />
<glyph unicode="&#xb2;" horiz-adv-x="589" d="M-14 586l372 368q93 91 143 166t50 142q0 63 -35 100t-104 37q-60 0 -99 -19.5t-39 -44.5q0 -11 1 -20t1 -10q0 -2 1.5 -8.5t1.5 -14.5q0 -68 -66 -68q-53 0 -53 60q0 55 75 104t203 49q94 0 156.5 -51.5t62.5 -136.5q0 -31 -11 -61t-25 -53.5t-44 -54t-52 -50.5t-64 -55 l-355 -303v-7h302q44 0 70 11t36 43l16 36h33l-51 -182h-518z" />
<glyph unicode="&#xb3;" horiz-adv-x="589" d="M27 614q0 18 14.5 30.5t32.5 12.5q23 0 36.5 -10t30.5 -39q21 -26 37 -35.5t49 -9.5q55 0 111 45t91.5 115t35.5 139q0 61 -35.5 96t-103.5 35q-81 0 -109 -12l-6 33q127 21 207 63q57 31 90 87t33 122q0 57 -23.5 85t-81.5 28q-106 0 -106 -103q0 -21 -14.5 -38 t-41.5 -17q-59 0 -59 43q0 56 64 99.5t157 43.5q96 0 153.5 -44t57.5 -111q0 -41 -23.5 -79t-56.5 -64t-76.5 -48.5t-76 -34t-62.5 -20.5v-4q40 0 75.5 -7.5t69.5 -25t54 -52t20 -83.5q0 -51 -34 -108.5t-87.5 -103.5t-124.5 -76.5t-139 -30.5q-84 0 -121.5 24.5t-37.5 54.5 z" />
<glyph unicode="&#xb4;" d="M330 1130l282 285q34 34 55.5 49t45.5 15q26 0 43.5 -17t17.5 -43q0 -25 -16.5 -44.5t-71.5 -51.5l-328 -193h-28z" />
<glyph unicode="&#xb5;" horiz-adv-x="1062" d="M-221 -571l489 1421h-182l8 29h330l-236 -676q-32 -91 -32 -127q0 -32 16.5 -53t50.5 -21q71 0 161 70t165.5 176t112.5 211l145 420h143l-241 -695q-31 -91 -31 -123q0 -26 14.5 -42.5t42.5 -16.5q42 0 86.5 38t70 76.5t38.5 69.5l24 -10q-38 -75 -67 -109 q-78 -92 -189 -92q-147 0 -147 121q0 61 33 140l-4 4q-40 -50 -71.5 -85t-81.5 -82t-103.5 -72.5t-104.5 -25.5q-77 0 -98 64l-209 -610h-133z" />
<glyph unicode="&#xb6;" horiz-adv-x="1175" d="M-188 -199q0 49 35 81t96 32q88 0 88 -61q0 -30 -31 -74q-25 -46 -25 -60q5 -38 45 -38q41 0 105 37.5t119 113.5q36 48 78.5 138t67 154.5t65.5 176.5l92 254q-48 5 -76 10t-74 22.5t-88 45.5q-86 59 -128 153.5t-42 194.5q0 44 8 87t30.5 94.5t58.5 95t97.5 84.5 t141.5 67q77 25 190.5 37t208.5 12h519l-11 -28h-159l-404 -1129q-33 -91 -60.5 -154t-71.5 -137t-104.5 -136t-140.5 -114q-96 -64 -207.5 -99.5t-207.5 -35.5q-59 0 -103 18t-67 46.5t-34 57t-11 54.5zM16 -346q68 1 131 17t112.5 40t96.5 63t81 76t68 89t56 92.5t46 96.5 t36.5 89.5t30.5 83.5l405 1129h-188l-404 -1129q-34 -96 -60 -162t-56.5 -136t-58 -116t-60.5 -90.5t-68 -71t-77 -45.5t-91 -26z" />
<glyph unicode="&#xb7;" d="M111 526q0 41 27.5 69t68.5 28t68.5 -28t27.5 -69t-27.5 -68.5t-68.5 -27.5t-68.5 27.5t-27.5 68.5z" />
<glyph unicode="&#xb8;" d="M-39 -442l19 24q65 -55 124 -55q37 0 64.5 22t42 56t21 67.5t6.5 63.5q0 92 -76 92q-52 0 -90 -27l-25 33l164 160h41l-160 -152l4 -4q55 31 111 31q58 0 101.5 -37t43.5 -111q0 -99 -70.5 -161t-168.5 -62q-49 0 -90.5 20t-61.5 40z" />
<glyph unicode="&#xb9;" horiz-adv-x="589" d="M119 563l8 29h125l217 737q-95 -56 -219 -108l-8 26q60 21 153.5 73t167.5 107h31l-242 -835h137l-8 -29h-362z" />
<glyph unicode="&#xba;" horiz-adv-x="591" d="M137 1092q0 95 56 177.5t138 127.5t165 45q100 0 154.5 -65t54.5 -144q0 -90 -56 -172.5t-138 -130t-161 -47.5q-96 0 -154.5 61.5t-58.5 147.5zM231 1024q0 -119 115 -119q60 0 112.5 46.5t84 112t49.5 128.5t18 104q0 57 -30 90t-93 33q-55 0 -105 -42.5t-82 -104.5 t-50.5 -129t-18.5 -119z" />
<glyph unicode="&#xbb;" horiz-adv-x="833" d="M-27 158v28q104 8 182 97.5t78 238.5q0 121 -124 185l12 28q1 -1 16 -7t29 -12t35 -19t39 -27t37 -35.5t32.5 -45.5t22 -57t8.5 -69q0 -59 -24 -109t-62 -84t-87 -59t-98 -37.5t-96 -15.5zM225 129v29q106 8 184 97.5t78 238.5q0 42 -14 76t-38.5 56.5t-38.5 32t-34 19.5 l13 29q1 -1 16.5 -7t28.5 -12.5t35 -19.5t39.5 -27t36.5 -35.5t32.5 -45.5t22 -57t8.5 -69q0 -73 -35.5 -132t-92 -94.5t-118 -55t-123.5 -23.5z" />
<glyph unicode="&#xbc;" horiz-adv-x="1476" d="M119 563l8 29h125l217 737q-95 -56 -219 -108l-8 26q60 21 153.5 73t167.5 107h31l-242 -835h137l-8 -29h-362zM301 -18l885 1476l37 -20l-885 -1477zM784 211q48 113 451 549q59 65 87.5 84.5t68.5 19.5q59 0 59 -35q0 -23 -43 -47l-117 -86l-90 -73 q-223 -183 -360 -383h305l84 305h106l-84 -305h140l-9 -29h-137l-51 -182h104l-8 -29h-309l8 29h98l54 182h-357z" />
<glyph unicode="&#xbd;" horiz-adv-x="1476" d="M119 563l8 29h125l217 737q-95 -56 -219 -108l-8 26q60 21 153.5 73t167.5 107h31l-242 -835h137l-8 -29h-362zM301 -18l885 1476l37 -20l-885 -1477zM752 23l374 368q93 91 143 165.5t50 141.5q0 63 -35 100.5t-104 37.5q-60 0 -99 -19.5t-39 -44.5q0 -10 1 -20t1 -11 q0 -2 1.5 -8t1.5 -14q0 -68 -66 -68q-53 0 -53 60q0 55 75 104t203 49q94 0 156.5 -51.5t62.5 -136.5q0 -38 -13.5 -72.5t-44.5 -71t-58.5 -62t-79.5 -69.5l-355 -303v-6h302q45 0 70.5 10.5t35.5 42.5l16 37h33l-51 -182h-520z" />
<glyph unicode="&#xbe;" horiz-adv-x="1476" d="M27 614q0 18 14.5 30.5t32.5 12.5q23 0 36.5 -10t30.5 -39q21 -26 37 -35.5t49 -9.5q55 0 111 45t91.5 115t35.5 139q0 61 -35.5 96t-103.5 35q-81 0 -109 -12l-6 33q127 21 207 63q57 31 90 87t33 122q0 57 -23.5 85t-81.5 28q-106 0 -106 -103q0 -21 -14.5 -38 t-41.5 -17q-59 0 -59 43q0 56 64 99.5t157 43.5q96 0 153.5 -44t57.5 -111q0 -41 -23.5 -79t-56.5 -64t-76.5 -48.5t-76 -34t-62.5 -20.5v-4q40 0 75.5 -7.5t69.5 -25t54 -52t20 -83.5q0 -51 -34 -108.5t-87.5 -103.5t-124.5 -76.5t-139 -30.5q-84 0 -121.5 24.5t-37.5 54.5 zM301 -18l885 1476l37 -20l-885 -1477zM784 211q48 113 451 549q59 65 87.5 84.5t68.5 19.5q59 0 59 -35q0 -23 -43 -47l-117 -86l-90 -73q-223 -183 -360 -383h305l84 305h106l-84 -305h140l-9 -29h-137l-51 -182h104l-8 -29h-309l8 29h98l54 182h-357z" />
<glyph unicode="&#xbf;" horiz-adv-x="833" d="M-29 -305q0 199 160 317l158 117q92 68 125 103q69 71 92 159l35 131h26l-28 -110q-10 -41 -16 -62t-24.5 -57t-45.5 -68l-160 -184q-95 -109 -137.5 -219t-42.5 -201q0 -96 52.5 -141t133.5 -45q99 0 138.5 50.5t39.5 149.5q0 76 84 76q34 0 53 -25.5t19 -52.5 q0 -81 -94.5 -154t-235.5 -73q-160 0 -246 81t-86 208zM539 819q0 41 27.5 68.5t68.5 27.5t68.5 -27.5t27.5 -68.5t-27.5 -68.5t-68.5 -27.5t-68.5 27.5t-27.5 68.5z" />
<glyph unicode="&#xc0;" horiz-adv-x="1478" d="M-178 0l8 29h174l1028 1462h47l37 -1462h221l-8 -29h-631l9 29h223l-12 573h-472l-401 -573h207l-8 -29h-422zM467 631h451l-9 622h-4zM801 1864q0 30 17.5 47.5t51.5 17.5q18 0 33 -9t22 -17.5t21 -28.5l203 -293h-31l-272 215q-45 36 -45 68z" />
<glyph unicode="&#xc1;" horiz-adv-x="1478" d="M-178 0l8 29h174l1028 1462h47l37 -1462h221l-8 -29h-631l9 29h223l-12 573h-472l-401 -573h207l-8 -29h-422zM467 631h451l-9 622h-4zM969 1581l282 285q34 34 55.5 48.5t45.5 14.5q26 0 43.5 -16.5t17.5 -42.5q0 -25 -16.5 -44.5t-71.5 -51.5l-328 -193h-28z" />
<glyph unicode="&#xc2;" horiz-adv-x="1478" d="M-178 0l8 29h174l1028 1462h47l37 -1462h221l-8 -29h-631l9 29h223l-12 573h-472l-401 -573h207l-8 -29h-422zM467 631h451l-9 622h-4zM758 1581l329 344h76l180 -344h-28l-207 217l-317 -217h-33z" />
<glyph unicode="&#xc3;" horiz-adv-x="1478" d="M-178 0l8 29h174l1028 1462h47l37 -1462h221l-8 -29h-631l9 29h223l-12 573h-472l-401 -573h207l-8 -29h-422zM467 631h451l-9 622h-4zM776 1630q13 90 72 146.5t133 56.5q10 0 19.5 -1t19.5 -3.5t15 -4t16 -6.5t13.5 -6t15.5 -8l12 -6l79 -43q61 -22 89 -22 q46 0 80.5 34t50.5 72h26q-5 -25 -17.5 -56t-35 -67.5t-61.5 -61t-86 -24.5q-65 0 -127 33l-54 29q-7 4 -25.5 14t-26.5 13.5t-22 7.5t-28 4q-49 0 -84 -34t-45 -67h-29z" />
<glyph unicode="&#xc4;" horiz-adv-x="1478" d="M-178 0l8 29h174l1028 1462h47l37 -1462h221l-8 -29h-631l9 29h223l-12 573h-472l-401 -573h207l-8 -29h-422zM467 631h451l-9 622h-4zM815 1772q0 41 27.5 68.5t68.5 27.5t69 -27.5t28 -68.5t-28 -69t-69 -28t-68.5 28t-27.5 69zM1192 1772q0 41 27.5 68.5t68.5 27.5 t68.5 -27.5t27.5 -68.5t-27.5 -69t-68.5 -28t-68.5 28t-27.5 69z" />
<glyph unicode="&#xc5;" horiz-adv-x="1478" d="M-178 0l8 29h174l1028 1462h47l37 -1462h221l-8 -29h-631l9 29h223l-12 573h-472l-401 -573h207l-8 -29h-422zM467 631h451l-9 622h-4zM956 1700q0 81 74 155t154 74q55 0 92 -39t37 -100q0 -86 -70.5 -161t-150.5 -75q-64 0 -100 44.5t-36 101.5zM1026 1679 q0 -49 15 -75.5t53 -26.5q57 0 103 80.5t46 157.5q0 92 -72 92q-54 0 -99.5 -78.5t-45.5 -149.5z" />
<glyph unicode="&#xc6;" horiz-adv-x="2009" d="M-219 0l8 29h191l1081 1401h-213l8 28h1081l-118 -334h-29q18 93 18 146q0 85 -41 122.5t-129 37.5h-352l-108 -633h149q45 0 85.5 19t66 42t51 60.5t35 56.5t22.5 47h29l-160 -537h-29q7 94 7 107q0 33 -8 62t-26.5 55.5t-54 42.5t-85.5 16h-86l-123 -739h270 q46 0 90 13.5t78 32.5t69.5 51t58.5 57.5t50 64.5t39.5 59.5t32 54.5t22.5 39h29l-143 -401h-1004l8 29h221l95 573h-504l-445 -573h211l-8 -29h-440zM483 631h492l133 801h-6z" />
<glyph unicode="&#xc7;" horiz-adv-x="1327" d="M119 555q0 144 53.5 287t143 256.5t200 202t230.5 136.5t227 48q78 0 146.5 -20t118.5 -40t81 -20q57 0 86 59l31 -6l-142 -395h-26q12 54 12 139q0 125 -87.5 189.5t-225.5 64.5q-88 0 -172 -45.5t-151.5 -121.5t-127 -174.5t-103.5 -206.5t-75.5 -214.5t-47.5 -201 t-16 -164.5q0 -164 89.5 -246t257.5 -82q274 0 446 315l27 -14q-16 -31 -33.5 -60.5t-61 -82t-93 -90t-127 -66.5t-163.5 -29h-26l-139 -131l4 -4q55 31 110 31q58 0 102 -37.5t44 -110.5q0 -99 -71 -161t-169 -62q-49 0 -91.5 20t-62.5 40l19 24q2 -1 10.5 -7.5t11.5 -9 t11.5 -8t13 -8t13 -7t15.5 -6.5t15.5 -4.5t17.5 -3.5t19 -1q37 0 64.5 22t41.5 56t20.5 67.5t6.5 63.5q0 92 -76 92q-52 0 -90 -27l-24 33l149 141q-92 8 -166.5 43.5t-124 89.5t-83 126.5t-48 152t-14.5 168.5z" />
<glyph unicode="&#xc8;" horiz-adv-x="1402" d="M-180 0l8 29h211l502 1401h-238l8 28h1139l-125 -348h-29q25 77 25 147q0 83 -36 128t-128 45h-432l-227 -633h192q31 0 61.5 9.5t54 23.5t47 36.5t39 41.5t33 45.5t25.5 41.5t20 37t13 25h29l-215 -596h-29q27 64 27 149q0 77 -44.5 117.5t-123.5 40.5h-140l-264 -739 h479q45 0 90.5 17t81.5 42t73 63t62 69.5t51.5 72.5t38 61.5t25.5 46.5h29l-143 -401h-1190zM764 1864q0 30 18 47.5t52 17.5q18 0 33 -9t21.5 -17t20.5 -29l203 -293h-31l-272 215q-45 36 -45 68z" />
<glyph unicode="&#xc9;" horiz-adv-x="1402" d="M-180 0l8 29h211l502 1401h-238l8 28h1139l-125 -348h-29q25 77 25 147q0 83 -36 128t-128 45h-432l-227 -633h192q31 0 61.5 9.5t54 23.5t47 36.5t39 41.5t33 45.5t25.5 41.5t20 37t13 25h29l-215 -596h-29q27 64 27 149q0 77 -44.5 117.5t-123.5 40.5h-140l-264 -739 h479q45 0 90.5 17t81.5 42t73 63t62 69.5t51.5 72.5t38 61.5t25.5 46.5h29l-143 -401h-1190zM932 1581l282 285q34 34 55.5 48.5t45.5 14.5q26 0 43.5 -16.5t17.5 -42.5q0 -25 -16.5 -44.5t-71.5 -51.5l-327 -193h-29z" />
<glyph unicode="&#xca;" horiz-adv-x="1402" d="M-180 0l8 29h211l502 1401h-238l8 28h1139l-125 -348h-29q25 77 25 147q0 83 -36 128t-128 45h-432l-227 -633h192q31 0 61.5 9.5t54 23.5t47 36.5t39 41.5t33 45.5t25.5 41.5t20 37t13 25h29l-215 -596h-29q27 64 27 149q0 77 -44.5 117.5t-123.5 40.5h-140l-264 -739 h479q45 0 90.5 17t81.5 42t73 63t62 69.5t51.5 72.5t38 61.5t25.5 46.5h29l-143 -401h-1190zM680 1581l330 344h75l181 -344h-29l-207 217l-317 -217h-33z" />
<glyph unicode="&#xcb;" horiz-adv-x="1402" d="M-180 0l8 29h211l502 1401h-238l8 28h1139l-125 -348h-29q25 77 25 147q0 83 -36 128t-128 45h-432l-227 -633h192q31 0 61.5 9.5t54 23.5t47 36.5t39 41.5t33 45.5t25.5 41.5t20 37t13 25h29l-215 -596h-29q27 64 27 149q0 77 -44.5 117.5t-123.5 40.5h-140l-264 -739 h479q45 0 90.5 17t81.5 42t73 63t62 69.5t51.5 72.5t38 61.5t25.5 46.5h29l-143 -401h-1190zM727 1772q0 41 27.5 68.5t68.5 27.5t69 -27.5t28 -68.5t-28 -69t-69 -28t-68.5 28t-27.5 69zM1104 1772q0 41 27.5 68.5t68.5 27.5t68.5 -27.5t27.5 -68.5t-27.5 -69t-68.5 -28 t-68.5 28t-27.5 69z" />
<glyph unicode="&#xcc;" horiz-adv-x="796" d="M-168 0l8 29h209l504 1401h-236l9 28h635l-9 -28h-215l-501 -1401h233l-8 -29h-629zM461 1864q0 30 17.5 47.5t51.5 17.5q18 0 33 -9t22 -17.5t21 -28.5l203 -293h-31l-272 215q-45 36 -45 68z" />
<glyph unicode="&#xcd;" horiz-adv-x="796" d="M-168 0l8 29h209l504 1401h-236l9 28h635l-9 -28h-215l-501 -1401h233l-8 -29h-629zM629 1581l282 285q34 34 55.5 48.5t45.5 14.5q26 0 43.5 -16.5t17.5 -42.5q0 -25 -16.5 -44.5t-71.5 -51.5l-328 -193h-28z" />
<glyph unicode="&#xce;" horiz-adv-x="796" d="M-168 0l8 29h209l504 1401h-236l9 28h635l-9 -28h-215l-501 -1401h233l-8 -29h-629zM408 1581l329 344h76l180 -344h-28l-207 217l-318 -217h-32z" />
<glyph unicode="&#xcf;" horiz-adv-x="796" d="M-168 0l8 29h209l504 1401h-236l9 28h635l-9 -28h-215l-501 -1401h233l-8 -29h-629zM475 1772q0 41 27.5 68.5t68.5 27.5t69 -27.5t28 -68.5t-28 -69t-69 -28t-68.5 28t-27.5 69zM852 1772q0 41 27.5 68.5t68.5 27.5t68.5 -27.5t27.5 -68.5t-27.5 -69t-68.5 -28t-68.5 28 t-27.5 69z" />
<glyph unicode="&#xd0;" horiz-adv-x="1630" d="M-168 0l8 29h209l266 739h-235l10 29h236l227 633h-236l9 28h618q140 0 249.5 -45.5t176 -123.5t100 -176.5t33.5 -211.5q0 -165 -73 -327.5t-199 -291t-312.5 -208.5t-396.5 -80q-58 0 -172 4q-31 2 -88 2h-86h-344zM238 31q32 -1 115 -6t130 -5q110 0 191.5 23 t185.5 88q216 135 343.5 398t127.5 542q0 111 -45.5 192t-116.5 117q-51 27 -108.5 38.5t-147.5 11.5h-176l-225 -633h303l-10 -29h-303z" />
<glyph unicode="&#xd1;" horiz-adv-x="1441" d="M-190 0l8 29h209l499 1401h-233l8 28h387l291 -1155h4l401 1127h-235l8 28h479l-8 -28h-211l-516 -1457h-14l-352 1383h-5l-473 -1327h234l-8 -29h-473zM758 1630q13 90 72 146.5t133 56.5q10 0 19.5 -1t19 -3.5t15.5 -4t15.5 -6t13.5 -6.5t14.5 -7.5t12.5 -6.5l80 -43 q61 -22 88 -22q46 0 80.5 34t50.5 72h27q-5 -25 -17.5 -56t-35.5 -67.5t-62 -61t-86 -24.5q-65 0 -127 33l-53 29q-6 3 -25.5 13.5t-27 14t-22 7.5t-28.5 4q-49 0 -84 -34t-45 -67h-28z" />
<glyph unicode="&#xd2;" horiz-adv-x="1593" d="M123 559q0 115 36.5 232t99 218t148.5 189.5t182.5 151.5t202.5 99t207 36q102 0 185 -36t136.5 -94.5t89.5 -137t51.5 -160t15.5 -166.5q0 -131 -47.5 -265.5t-133.5 -250t-195.5 -206.5t-243 -143.5t-267.5 -52.5q-210 0 -338.5 153t-128.5 433zM279 324 q0 -324 323 -324q100 0 191.5 45.5t161 121.5t129.5 175t101.5 205.5t71 213.5t43 198.5t13.5 160.5q0 336 -318 336q-95 0 -184 -44t-159 -118.5t-131 -171.5t-105 -204t-75 -215t-46.5 -205t-15.5 -174zM858 1864q0 30 18 47.5t52 17.5q18 0 33 -9t22 -17.5t21 -28.5 l202 -293h-30l-273 215q-45 36 -45 68z" />
<glyph unicode="&#xd3;" horiz-adv-x="1593" d="M123 559q0 115 36.5 232t99 218t148.5 189.5t182.5 151.5t202.5 99t207 36q102 0 185 -36t136.5 -94.5t89.5 -137t51.5 -160t15.5 -166.5q0 -131 -47.5 -265.5t-133.5 -250t-195.5 -206.5t-243 -143.5t-267.5 -52.5q-210 0 -338.5 153t-128.5 433zM279 324 q0 -324 323 -324q100 0 191.5 45.5t161 121.5t129.5 175t101.5 205.5t71 213.5t43 198.5t13.5 160.5q0 336 -318 336q-95 0 -184 -44t-159 -118.5t-131 -171.5t-105 -204t-75 -215t-46.5 -205t-15.5 -174zM1026 1581l283 285q34 34 55 48.5t45 14.5q26 0 43.5 -16.5 t17.5 -42.5q0 -25 -16.5 -44.5t-71.5 -51.5l-327 -193h-29z" />
<glyph unicode="&#xd4;" horiz-adv-x="1593" d="M123 559q0 115 36.5 232t99 218t148.5 189.5t182.5 151.5t202.5 99t207 36q102 0 185 -36t136.5 -94.5t89.5 -137t51.5 -160t15.5 -166.5q0 -131 -47.5 -265.5t-133.5 -250t-195.5 -206.5t-243 -143.5t-267.5 -52.5q-210 0 -338.5 153t-128.5 433zM279 324 q0 -324 323 -324q100 0 191.5 45.5t161 121.5t129.5 175t101.5 205.5t71 213.5t43 198.5t13.5 160.5q0 336 -318 336q-95 0 -184 -44t-159 -118.5t-131 -171.5t-105 -204t-75 -215t-46.5 -205t-15.5 -174zM805 1581l330 344h75l181 -344h-29l-207 217l-317 -217h-33z" />
<glyph unicode="&#xd5;" horiz-adv-x="1593" d="M123 559q0 115 36.5 232t99 218t148.5 189.5t182.5 151.5t202.5 99t207 36q102 0 185 -36t136.5 -94.5t89.5 -137t51.5 -160t15.5 -166.5q0 -131 -47.5 -265.5t-133.5 -250t-195.5 -206.5t-243 -143.5t-267.5 -52.5q-210 0 -338.5 153t-128.5 433zM279 324 q0 -324 323 -324q100 0 191.5 45.5t161 121.5t129.5 175t101.5 205.5t71 213.5t43 198.5t13.5 160.5q0 336 -318 336q-95 0 -184 -44t-159 -118.5t-131 -171.5t-105 -204t-75 -215t-46.5 -205t-15.5 -174zM834 1630q13 90 71.5 146.5t132.5 56.5q10 0 19.5 -1t19.5 -3.5 t15 -4t16 -6.5t13.5 -6t14.5 -8l13 -6l80 -43q61 -22 88 -22q46 0 80.5 34t50.5 72h27q-5 -25 -17.5 -56t-35.5 -67.5t-62 -61t-86 -24.5q-65 0 -127 33l-53 29q-6 3 -25.5 13.5t-27 14t-22 7.5t-28.5 4q-49 0 -84 -34t-45 -67h-28z" />
<glyph unicode="&#xd6;" horiz-adv-x="1593" d="M123 559q0 115 36.5 232t99 218t148.5 189.5t182.5 151.5t202.5 99t207 36q102 0 185 -36t136.5 -94.5t89.5 -137t51.5 -160t15.5 -166.5q0 -131 -47.5 -265.5t-133.5 -250t-195.5 -206.5t-243 -143.5t-267.5 -52.5q-210 0 -338.5 153t-128.5 433zM279 324 q0 -324 323 -324q100 0 191.5 45.5t161 121.5t129.5 175t101.5 205.5t71 213.5t43 198.5t13.5 160.5q0 336 -318 336q-95 0 -184 -44t-159 -118.5t-131 -171.5t-105 -204t-75 -215t-46.5 -205t-15.5 -174zM872 1772q0 41 28 68.5t69 27.5t68.5 -27.5t27.5 -68.5t-27.5 -69 t-68.5 -28t-69 28t-28 69zM1249 1772q0 41 28 68.5t69 27.5t68.5 -27.5t27.5 -68.5t-27.5 -69t-68.5 -28t-69 28t-28 69z" />
<glyph unicode="&#xd7;" horiz-adv-x="1214" d="M66 68l423 424l-423 423l26 29l426 -426l426 426l27 -29l-424 -423l424 -424l-27 -29l-426 426l-426 -426z" />
<glyph unicode="&#xd8;" horiz-adv-x="1593" d="M123 559q0 115 36.5 232t99 218t148.5 189.5t182.5 151.5t202.5 99t207 36q104 0 185 -35l84 145l28 -16l-82 -143q69 -35 121 -96.5t82 -136t45 -153t15 -159.5q0 -131 -47.5 -265.5t-133.5 -250t-195.5 -206.5t-243 -143.5t-267.5 -52.5q-109 0 -199 41l-92 -155 l-29 16l92 156q-115 67 -177 200.5t-62 327.5zM279 324q0 -188 102 -263l784 1358q-70 37 -170 37q-95 0 -184 -44t-159 -118.5t-131 -171.5t-105 -204t-75 -215t-46.5 -205t-15.5 -174zM408 45q68 -45 194 -45q100 0 191.5 45.5t161 121.5t129.5 175t101.5 205.5t71 213.5 t43 198.5t13.5 160.5q0 203 -117 283z" />
<glyph unicode="&#xd9;" horiz-adv-x="1517" d="M172 313q0 81 19.5 160t64.5 203l270 754h-233l8 28h633l-8 -28h-215l-314 -875q-34 -95 -48.5 -159.5t-14.5 -137.5q0 -110 71.5 -184t198.5 -74q395 0 547 494l291 936h-234l9 28h479l-8 -28h-213l-301 -963q-80 -258 -219.5 -376t-366.5 -118q-90 0 -163 21.5 t-119 55.5t-77 80t-44 91t-13 92zM821 1864q0 30 18 47.5t52 17.5q18 0 33 -9t22 -17.5t21 -28.5l202 -293h-30l-273 215q-45 36 -45 68z" />
<glyph unicode="&#xda;" horiz-adv-x="1517" d="M172 313q0 81 19.5 160t64.5 203l270 754h-233l8 28h633l-8 -28h-215l-314 -875q-34 -95 -48.5 -159.5t-14.5 -137.5q0 -110 71.5 -184t198.5 -74q395 0 547 494l291 936h-234l9 28h479l-8 -28h-213l-301 -963q-80 -258 -219.5 -376t-366.5 -118q-90 0 -163 21.5 t-119 55.5t-77 80t-44 91t-13 92zM989 1581l283 285q34 34 55 48.5t45 14.5q27 0 44.5 -16.5t17.5 -42.5q0 -25 -16.5 -44.5t-71.5 -51.5l-328 -193h-29z" />
<glyph unicode="&#xdb;" horiz-adv-x="1517" d="M172 313q0 81 19.5 160t64.5 203l270 754h-233l8 28h633l-8 -28h-215l-314 -875q-34 -95 -48.5 -159.5t-14.5 -137.5q0 -110 71.5 -184t198.5 -74q395 0 547 494l291 936h-234l9 28h479l-8 -28h-213l-301 -963q-80 -258 -219.5 -376t-366.5 -118q-90 0 -163 21.5 t-119 55.5t-77 80t-44 91t-13 92zM778 1581l330 344h76l180 -344h-29l-207 217l-317 -217h-33z" />
<glyph unicode="&#xdc;" horiz-adv-x="1517" d="M172 313q0 81 19.5 160t64.5 203l270 754h-233l8 28h633l-8 -28h-215l-314 -875q-34 -95 -48.5 -159.5t-14.5 -137.5q0 -110 71.5 -184t198.5 -74q395 0 547 494l291 936h-234l9 28h479l-8 -28h-213l-301 -963q-80 -258 -219.5 -376t-366.5 -118q-90 0 -163 21.5 t-119 55.5t-77 80t-44 91t-13 92zM836 1772q0 41 27.5 68.5t68.5 27.5t68.5 -27.5t27.5 -68.5t-27.5 -69t-68.5 -28t-68.5 28t-27.5 69zM1212 1772q0 41 28 68.5t69 27.5t68.5 -27.5t27.5 -68.5t-27.5 -69t-68.5 -28t-69 28t-28 69z" />
<glyph unicode="&#xdd;" horiz-adv-x="1327" d="M106 0l9 29h229l225 633l-145 768h-223l8 28h631l-9 -28h-227l133 -703l625 703h-201l8 28h402l-8 -28h-160l-651 -736l-240 -665h236l-9 -29h-633zM893 1581l283 285q34 34 55 48.5t45 14.5q26 0 43.5 -16.5t17.5 -42.5q0 -25 -16.5 -44.5t-71.5 -51.5l-327 -193h-29z " />
<glyph unicode="&#xde;" horiz-adv-x="1290" d="M-178 0l8 29h209l504 1401h-236l8 28h635l-8 -28h-215l-78 -220h68q228 0 359.5 -107t131.5 -267q0 -89 -41.5 -167t-109.5 -132t-155 -93.5t-179 -58t-180 -18.5q-105 0 -191 16l-127 -354h234l-8 -29h-629zM362 412q110 -17 166 -17q106 0 199 44t156.5 116.5t100 166 t36.5 191.5q0 133 -79.5 201t-223.5 68h-80z" />
<glyph unicode="&#xdf;" horiz-adv-x="1138" d="M-537 -385q0 90 86 90q70 0 70 -49q0 -17 -10 -45.5t-10 -48.5q0 -56 57 -56q97 0 203 141t172 367l284 965q46 155 109.5 268.5t140 180t159 97.5t175.5 31q98 0 164.5 -59.5t66.5 -175.5q0 -206 -169 -311l-97 -60q-60 -38 -86 -73.5t-26 -77.5q0 -60 49 -156l106 -215 q29 -60 41.5 -96t12.5 -74q0 -83 -54.5 -149.5t-133.5 -100t-161 -33.5q-117 0 -185.5 56t-68.5 112q0 41 32.5 64.5t72.5 23.5q26 0 45.5 -12t19.5 -35q0 -21 -17 -45t-17 -49q0 -88 131 -88q88 0 148.5 51.5t60.5 134.5q0 13 -1.5 26.5t-3.5 23.5t-7 25t-8 23t-11.5 26.5 t-12 25.5l-15 30l-15.5 31l-76 152q-37 71 -52.5 111.5t-15.5 78.5q0 63 42.5 114t140.5 103l108 58q195 103 195 307q0 92 -55.5 148.5t-147.5 56.5q-118 0 -231.5 -121.5t-180.5 -339.5l-307 -1010q-38 -127 -106 -238t-144.5 -184t-154.5 -115t-142 -42 q-73 0 -121.5 38.5t-48.5 98.5z" />
<glyph unicode="&#xe0;" horiz-adv-x="1099" d="M-2 236q0 95 45.5 195.5t118 183t157.5 149.5t169.5 104t148.5 37q63 0 105 -35.5t42 -91.5h4l35 101h144l-224 -621q-45 -120 -45 -190q0 -54 52 -54q31 0 61 17t48 35t39.5 51.5t25.5 42.5t16 33l27 -15q-13 -29 -31.5 -57.5t-50.5 -65t-78.5 -58.5t-99.5 -22 q-136 0 -136 123q0 51 23 115h-4q-26 -32 -36.5 -44t-39.5 -43.5t-47.5 -46.5t-51 -39t-60 -35.5t-64.5 -20.5t-74 -9q-94 0 -156.5 66.5t-62.5 194.5zM139 150q0 -148 111 -148q55 0 119.5 37t114.5 88.5t86.5 101t47.5 80.5l109 301q39 104 39 142q0 20 -5.5 40t-17.5 40 t-37 32.5t-59 12.5q-78 0 -157 -53.5t-140 -137t-110 -181.5t-75 -192t-26 -163zM428 1413q0 30 18 48t52 18q14 0 24.5 -3.5t21 -14.5t14 -16t15.5 -22l203 -293h-31l-272 216q-45 36 -45 67z" />
<glyph unicode="&#xe1;" horiz-adv-x="1099" d="M-2 236q0 95 45.5 195.5t118 183t157.5 149.5t169.5 104t148.5 37q63 0 105 -35.5t42 -91.5h4l35 101h144l-224 -621q-45 -120 -45 -190q0 -54 52 -54q31 0 61 17t48 35t39.5 51.5t25.5 42.5t16 33l27 -15q-13 -29 -31.5 -57.5t-50.5 -65t-78.5 -58.5t-99.5 -22 q-136 0 -136 123q0 51 23 115h-4q-26 -32 -36.5 -44t-39.5 -43.5t-47.5 -46.5t-51 -39t-60 -35.5t-64.5 -20.5t-74 -9q-94 0 -156.5 66.5t-62.5 194.5zM139 150q0 -148 111 -148q55 0 119.5 37t114.5 88.5t86.5 101t47.5 80.5l109 301q39 104 39 142q0 20 -5.5 40t-17.5 40 t-37 32.5t-59 12.5q-78 0 -157 -53.5t-140 -137t-110 -181.5t-75 -192t-26 -163zM596 1130l283 285q35 35 55.5 49.5t44.5 14.5q26 0 43.5 -17t17.5 -43q0 -25 -16.5 -44.5t-71.5 -51.5l-327 -193h-29z" />
<glyph unicode="&#xe2;" horiz-adv-x="1099" d="M-2 236q0 95 45.5 195.5t118 183t157.5 149.5t169.5 104t148.5 37q63 0 105 -35.5t42 -91.5h4l35 101h144l-224 -621q-45 -120 -45 -190q0 -54 52 -54q31 0 61 17t48 35t39.5 51.5t25.5 42.5t16 33l27 -15q-13 -29 -31.5 -57.5t-50.5 -65t-78.5 -58.5t-99.5 -22 q-136 0 -136 123q0 51 23 115h-4q-26 -32 -36.5 -44t-39.5 -43.5t-47.5 -46.5t-51 -39t-60 -35.5t-64.5 -20.5t-74 -9q-94 0 -156.5 66.5t-62.5 194.5zM139 150q0 -148 111 -148q55 0 119.5 37t114.5 88.5t86.5 101t47.5 80.5l109 301q39 104 39 142q0 20 -5.5 40t-17.5 40 t-37 32.5t-59 12.5q-78 0 -157 -53.5t-140 -137t-110 -181.5t-75 -192t-26 -163zM385 1130l330 345h76l180 -345h-29l-207 218l-317 -218h-33z" />
<glyph unicode="&#xe3;" horiz-adv-x="1099" d="M-2 236q0 95 45.5 195.5t118 183t157.5 149.5t169.5 104t148.5 37q63 0 105 -35.5t42 -91.5h4l35 101h144l-224 -621q-45 -120 -45 -190q0 -54 52 -54q31 0 61 17t48 35t39.5 51.5t25.5 42.5t16 33l27 -15q-13 -29 -31.5 -57.5t-50.5 -65t-78.5 -58.5t-99.5 -22 q-136 0 -136 123q0 51 23 115h-4q-26 -32 -36.5 -44t-39.5 -43.5t-47.5 -46.5t-51 -39t-60 -35.5t-64.5 -20.5t-74 -9q-94 0 -156.5 66.5t-62.5 194.5zM139 150q0 -148 111 -148q55 0 119.5 37t114.5 88.5t86.5 101t47.5 80.5l109 301q39 104 39 142q0 20 -5.5 40t-17.5 40 t-37 32.5t-59 12.5q-78 0 -157 -53.5t-140 -137t-110 -181.5t-75 -192t-26 -163zM403 1180q13 90 72 146t133 56q23 0 45.5 -6.5t32 -10.5t33.5 -17l80 -43q64 -23 88 -23q45 0 80 34.5t51 72.5h26q-5 -25 -17.5 -56t-35 -67.5t-61.5 -61t-86 -24.5q-67 0 -127 32l-53 29 q-6 3 -25.5 13.5t-27 14t-22 7.5t-28.5 4q-49 0 -84 -33.5t-45 -66.5h-29z" />
<glyph unicode="&#xe4;" horiz-adv-x="1099" d="M-2 236q0 95 45.5 195.5t118 183t157.5 149.5t169.5 104t148.5 37q63 0 105 -35.5t42 -91.5h4l35 101h144l-224 -621q-45 -120 -45 -190q0 -54 52 -54q31 0 61 17t48 35t39.5 51.5t25.5 42.5t16 33l27 -15q-13 -29 -31.5 -57.5t-50.5 -65t-78.5 -58.5t-99.5 -22 q-136 0 -136 123q0 51 23 115h-4q-26 -32 -36.5 -44t-39.5 -43.5t-47.5 -46.5t-51 -39t-60 -35.5t-64.5 -20.5t-74 -9q-94 0 -156.5 66.5t-62.5 194.5zM139 150q0 -148 111 -148q55 0 119.5 37t114.5 88.5t86.5 101t47.5 80.5l109 301q39 104 39 142q0 20 -5.5 40t-17.5 40 t-37 32.5t-59 12.5q-78 0 -157 -53.5t-140 -137t-110 -181.5t-75 -192t-26 -163zM442 1362q0 41 28 68.5t69 27.5t68.5 -27.5t27.5 -68.5t-27.5 -68.5t-68.5 -27.5t-69 27.5t-28 68.5zM819 1362q0 41 27.5 68.5t68.5 27.5t69 -27.5t28 -68.5t-28 -68.5t-69 -27.5t-68.5 27.5 t-27.5 68.5z" />
<glyph unicode="&#xe5;" horiz-adv-x="1099" d="M-2 236q0 95 45.5 195.5t118 183t157.5 149.5t169.5 104t148.5 37q63 0 105 -35.5t42 -91.5h4l35 101h144l-224 -621q-45 -120 -45 -190q0 -54 52 -54q31 0 61 17t48 35t39.5 51.5t25.5 42.5t16 33l27 -15q-13 -29 -31.5 -57.5t-50.5 -65t-78.5 -58.5t-99.5 -22 q-136 0 -136 123q0 51 23 115h-4q-26 -32 -36.5 -44t-39.5 -43.5t-47.5 -46.5t-51 -39t-60 -35.5t-64.5 -20.5t-74 -9q-94 0 -156.5 66.5t-62.5 194.5zM139 150q0 -148 111 -148q55 0 119.5 37t114.5 88.5t86.5 101t47.5 80.5l109 301q39 104 39 142q0 20 -5.5 40t-17.5 40 t-37 32.5t-59 12.5q-78 0 -157 -53.5t-140 -137t-110 -181.5t-75 -192t-26 -163zM584 1290q0 81 73.5 155.5t153.5 74.5q55 0 92 -39.5t37 -100.5q0 -86 -70.5 -160.5t-150.5 -74.5q-64 0 -99.5 44t-35.5 101zM653 1270q0 -49 15 -76t53 -27q57 0 103 80.5t46 157.5 q0 92 -71 92q-54 0 -100 -78t-46 -149z" />
<glyph unicode="&#xe6;" horiz-adv-x="1517" d="M2 236q0 95 46 195.5t119 183t158.5 149.5t170 104t147.5 37t105.5 -35.5t42.5 -91.5h4l34 101h144l-49 -134l6 -4q32 36 52 55.5t60 49.5t87.5 44.5t103.5 14.5q47 0 93 -15.5t81 -51.5t35 -86q0 -62 -42.5 -112.5t-102.5 -79.5t-131.5 -48.5t-122.5 -26t-82 -6.5 q-81 0 -125 8q-54 -153 -54 -266q0 -107 56 -163t147 -56q41 0 80.5 13t66.5 29t57.5 45t43.5 45t36 47t25 34l25 -14q-5 -6 -22.5 -30t-34.5 -46.5t-48 -51t-65 -49t-84.5 -35t-106.5 -14.5q-76 0 -139.5 27t-102.5 70t-61 90.5t-24 93.5h-4q-27 -42 -63 -84t-88.5 -89.5 t-119 -77.5t-133.5 -30q-93 0 -157 66.5t-64 194.5zM145 150q0 -148 111 -148q55 0 119.5 37t115 88.5t87 101t47.5 80.5l108 301q39 104 39 142q0 20 -5.5 40t-17.5 40t-37 32.5t-59 12.5q-78 0 -157 -53.5t-140 -137t-110 -181.5t-75 -192t-26 -163zM846 516q41 -8 104 -8 q146 0 255.5 82t109.5 188q0 44 -26.5 71.5t-80.5 27.5q-60 0 -120.5 -36t-106.5 -93t-80.5 -116.5t-54.5 -115.5z" />
<glyph unicode="&#xe7;" horiz-adv-x="833" d="M20 283q0 137 82.5 281.5t220.5 242.5t283 98q49 0 90 -14t71 -52.5t30 -97.5q0 -108 -105 -108q-65 0 -65 51q0 34 27.5 67.5t27.5 67.5q0 58 -88 58q-63 0 -122.5 -32.5t-105.5 -87t-85 -124t-64 -143.5t-39 -145.5t-14 -131.5q0 -93 52.5 -152t152.5 -59q54 0 105 21 t89 56t65 68t48 70l29 -16q-152 -226 -361 -226l-139 -133l4 -4q55 31 110 31q58 0 102 -37.5t44 -110.5q0 -99 -71 -161t-169 -62q-49 0 -91 20t-62 40l18 24q2 -1 10.5 -7.5t11.5 -9t11.5 -8t13 -8t13 -7t15.5 -6.5t15.5 -4.5t17.5 -3.5t19 -1q37 0 64.5 22t41.5 56 t20.5 67.5t6.5 63.5q0 92 -76 92q-52 0 -90 -27l-24 33l147 141q-132 12 -209.5 99t-77.5 209z" />
<glyph unicode="&#xe8;" horiz-adv-x="872" d="M4 283q0 99 50.5 210.5t129.5 202t185.5 150t208.5 59.5q91 0 160 -39.5t69 -113.5q0 -62 -42.5 -112.5t-102.5 -79.5t-131.5 -48.5t-122.5 -26t-82 -6.5q-81 0 -125 8q-54 -153 -54 -266q0 -107 56 -163t147 -56q41 0 80.5 13t66.5 29t57.5 45t43.5 45t36 47t25 34 l25 -14q-4 -5 -27 -37.5t-48.5 -60t-65 -59.5t-96.5 -50.5t-123 -18.5q-83 0 -147.5 28.5t-100.5 75t-54 98.5t-18 106zM211 516q41 -8 104 -8q146 0 255.5 82t109.5 188q0 44 -26.5 71.5t-80.5 27.5q-60 0 -120.5 -36t-106.5 -93t-80.5 -116.5t-54.5 -115.5zM313 1413 q0 30 18 48t52 18q18 0 33.5 -9.5t22 -18t20.5 -28.5l203 -293h-31l-273 216q-45 36 -45 67z" />
<glyph unicode="&#xe9;" horiz-adv-x="872" d="M4 283q0 99 50.5 210.5t129.5 202t185.5 150t208.5 59.5q91 0 160 -39.5t69 -113.5q0 -62 -42.5 -112.5t-102.5 -79.5t-131.5 -48.5t-122.5 -26t-82 -6.5q-81 0 -125 8q-54 -153 -54 -266q0 -107 56 -163t147 -56q41 0 80.5 13t66.5 29t57.5 45t43.5 45t36 47t25 34 l25 -14q-4 -5 -27 -37.5t-48.5 -60t-65 -59.5t-96.5 -50.5t-123 -18.5q-83 0 -147.5 28.5t-100.5 75t-54 98.5t-18 106zM211 516q41 -8 104 -8q146 0 255.5 82t109.5 188q0 44 -26.5 71.5t-80.5 27.5q-60 0 -120.5 -36t-106.5 -93t-80.5 -116.5t-54.5 -115.5zM481 1130 l283 285q35 35 55.5 49.5t44.5 14.5q26 0 44 -17t18 -43q0 -25 -16.5 -44.5t-71.5 -51.5l-328 -193h-29z" />
<glyph unicode="&#xea;" horiz-adv-x="872" d="M4 283q0 99 50.5 210.5t129.5 202t185.5 150t208.5 59.5q91 0 160 -39.5t69 -113.5q0 -62 -42.5 -112.5t-102.5 -79.5t-131.5 -48.5t-122.5 -26t-82 -6.5q-81 0 -125 8q-54 -153 -54 -266q0 -107 56 -163t147 -56q41 0 80.5 13t66.5 29t57.5 45t43.5 45t36 47t25 34 l25 -14q-4 -5 -27 -37.5t-48.5 -60t-65 -59.5t-96.5 -50.5t-123 -18.5q-83 0 -147.5 28.5t-100.5 75t-54 98.5t-18 106zM211 516q41 -8 104 -8q146 0 255.5 82t109.5 188q0 44 -26.5 71.5t-80.5 27.5q-60 0 -120.5 -36t-106.5 -93t-80.5 -116.5t-54.5 -115.5zM270 1130 l330 345h76l180 -345h-29l-206 218l-318 -218h-33z" />
<glyph unicode="&#xeb;" horiz-adv-x="872" d="M4 283q0 99 50.5 210.5t129.5 202t185.5 150t208.5 59.5q91 0 160 -39.5t69 -113.5q0 -62 -42.5 -112.5t-102.5 -79.5t-131.5 -48.5t-122.5 -26t-82 -6.5q-81 0 -125 8q-54 -153 -54 -266q0 -107 56 -163t147 -56q41 0 80.5 13t66.5 29t57.5 45t43.5 45t36 47t25 34 l25 -14q-4 -5 -27 -37.5t-48.5 -60t-65 -59.5t-96.5 -50.5t-123 -18.5q-83 0 -147.5 28.5t-100.5 75t-54 98.5t-18 106zM211 516q41 -8 104 -8q146 0 255.5 82t109.5 188q0 44 -26.5 71.5t-80.5 27.5q-60 0 -120.5 -36t-106.5 -93t-80.5 -116.5t-54.5 -115.5zM328 1362 q0 41 27.5 68.5t68.5 27.5t68.5 -27.5t27.5 -68.5t-27.5 -68.5t-68.5 -27.5t-68.5 27.5t-27.5 68.5zM705 1362q0 41 27.5 68.5t68.5 27.5t68.5 -27.5t27.5 -68.5t-27.5 -68.5t-68.5 -27.5t-68.5 27.5t-27.5 68.5z" />
<glyph unicode="&#xec;" d="M29 96q0 45 37 154l210 600h-182l8 29h326l-242 -695q-30 -88 -30 -123q0 -26 14.5 -42.5t42.5 -16.5q31 0 64.5 21.5t59.5 53t44 60t27 49.5l24 -10q-38 -75 -67 -109q-78 -92 -189 -92q-147 0 -147 121zM162 1413q0 30 17.5 48t51.5 18q18 0 33.5 -9.5t22 -18 t20.5 -28.5l203 -293h-31l-272 216q-45 36 -45 67z" />
<glyph unicode="&#xed;" d="M29 96q0 45 37 154l210 600h-182l8 29h326l-242 -695q-30 -88 -30 -123q0 -26 14.5 -42.5t42.5 -16.5q31 0 64.5 21.5t59.5 53t44 60t27 49.5l24 -10q-38 -75 -67 -109q-78 -92 -189 -92q-147 0 -147 121zM330 1130l282 285q34 34 55.5 49t45.5 15q26 0 43.5 -17 t17.5 -43q0 -25 -16.5 -44.5t-71.5 -51.5l-328 -193h-28z" />
<glyph unicode="&#xee;" d="M29 96q0 45 37 154l210 600h-182l8 29h326l-242 -695q-30 -88 -30 -123q0 -26 14.5 -42.5t42.5 -16.5q31 0 64.5 21.5t59.5 53t44 60t27 49.5l24 -10q-38 -75 -67 -109q-78 -92 -189 -92q-147 0 -147 121zM119 1130l330 345h75l181 -345h-29l-207 218l-317 -218h-33z" />
<glyph unicode="&#xef;" d="M29 96q0 45 37 154l210 600h-182l8 29h326l-242 -695q-30 -88 -30 -123q0 -26 14.5 -42.5t42.5 -16.5q31 0 64.5 21.5t59.5 53t44 60t27 49.5l24 -10q-38 -75 -67 -109q-78 -92 -189 -92q-147 0 -147 121zM176 1362q0 41 27.5 68.5t68.5 27.5t69 -27.5t28 -68.5 t-28 -68.5t-69 -27.5t-68.5 27.5t-27.5 68.5zM553 1362q0 41 27.5 68.5t68.5 27.5t68.5 -27.5t27.5 -68.5t-27.5 -68.5t-68.5 -27.5t-68.5 27.5t-27.5 68.5z" />
<glyph unicode="&#xf0;" horiz-adv-x="985" d="M0 322q0 119 51 229.5t130 186.5t175 121.5t185 45.5q67 0 111.5 -29t64.5 -71l4 4q-10 130 -46.5 240t-84.5 186l-275 -74l-8 27l271 72q-36 67 -89.5 135t-99.5 108l23 23q117 -80 237 -248l264 72l9 -27l-258 -70q29 -40 58.5 -92t63.5 -130.5t55 -179t21 -202.5 q0 -131 -36 -244t-93.5 -190.5t-129.5 -133t-145 -81t-139 -25.5q-142 0 -230.5 102t-88.5 245zM135 207q0 -101 48.5 -153t129.5 -52q73 0 140 53t114 132.5t82.5 171.5t52.5 172.5t17 132.5q0 103 -44.5 158t-144.5 55q-86 0 -163 -74t-126 -181t-77.5 -219t-28.5 -196z " />
<glyph unicode="&#xf1;" horiz-adv-x="1099" d="M-6 0l295 850h-187l9 29h323l-84 -252h4q200 264 375 264q84 0 135 -45.5t51 -114.5q0 -45 -38 -149l-134 -379q-32 -94 -32 -135q0 -66 53 -66q34 0 67 19.5t58 51t42.5 59t29.5 54.5l22 -10q-10 -21 -14.5 -29t-19.5 -34t-27 -40t-33.5 -35.5t-43 -33t-51.5 -20.5 t-63 -9q-71 0 -113.5 30t-42.5 93q0 40 25 117l172 490q16 44 16 81q0 31 -19 53.5t-60 22.5q-61 0 -142 -56.5t-158.5 -158.5t-119.5 -219l-154 -428h-141zM403 1180q13 90 72 146t133 56q23 0 45.5 -6.5t32 -10.5t33.5 -17l80 -43q64 -23 88 -23q45 0 80 34.5t51 72.5h26 q-5 -25 -17.5 -56t-35 -67.5t-61.5 -61t-86 -24.5q-67 0 -127 32l-53 29q-6 3 -25.5 13.5t-27 14t-22 7.5t-28.5 4q-49 0 -84 -33.5t-45 -66.5h-29z" />
<glyph unicode="&#xf2;" horiz-adv-x="985" d="M0 322q0 119 51 229.5t130 186.5t175 121.5t185 45.5q77 0 139 -32.5t98.5 -84.5t56 -111.5t19.5 -119.5q0 -92 -33 -182t-89 -160.5t-125 -125.5t-144 -84.5t-144 -29.5q-142 0 -230.5 102t-88.5 245zM135 207q0 -101 48.5 -153t129.5 -52q73 0 140 53t114 132.5 t82.5 171.5t52.5 172.5t17 132.5q0 103 -44.5 158t-144.5 55q-86 0 -163 -74t-126 -181t-77.5 -219t-28.5 -196zM371 1413q0 30 17.5 48t51.5 18q18 0 33.5 -9.5t22 -18t20.5 -28.5l203 -293h-31l-272 216q-45 36 -45 67z" />
<glyph unicode="&#xf3;" horiz-adv-x="985" d="M0 322q0 119 51 229.5t130 186.5t175 121.5t185 45.5q77 0 139 -32.5t98.5 -84.5t56 -111.5t19.5 -119.5q0 -92 -33 -182t-89 -160.5t-125 -125.5t-144 -84.5t-144 -29.5q-142 0 -230.5 102t-88.5 245zM135 207q0 -101 48.5 -153t129.5 -52q73 0 140 53t114 132.5 t82.5 171.5t52.5 172.5t17 132.5q0 103 -44.5 158t-144.5 55q-86 0 -163 -74t-126 -181t-77.5 -219t-28.5 -196zM539 1130l282 285q34 34 55.5 49t45.5 15q26 0 43.5 -17t17.5 -43q0 -25 -16.5 -44.5t-71.5 -51.5l-328 -193h-28z" />
<glyph unicode="&#xf4;" horiz-adv-x="985" d="M0 322q0 119 51 229.5t130 186.5t175 121.5t185 45.5q77 0 139 -32.5t98.5 -84.5t56 -111.5t19.5 -119.5q0 -92 -33 -182t-89 -160.5t-125 -125.5t-144 -84.5t-144 -29.5q-142 0 -230.5 102t-88.5 245zM135 207q0 -101 48.5 -153t129.5 -52q73 0 140 53t114 132.5 t82.5 171.5t52.5 172.5t17 132.5q0 103 -44.5 158t-144.5 55q-86 0 -163 -74t-126 -181t-77.5 -219t-28.5 -196zM328 1130l329 345h76l180 -345h-28l-207 218l-318 -218h-32z" />
<glyph unicode="&#xf5;" horiz-adv-x="985" d="M0 322q0 119 51 229.5t130 186.5t175 121.5t185 45.5q77 0 139 -32.5t98.5 -84.5t56 -111.5t19.5 -119.5q0 -92 -33 -182t-89 -160.5t-125 -125.5t-144 -84.5t-144 -29.5q-142 0 -230.5 102t-88.5 245zM135 207q0 -101 48.5 -153t129.5 -52q73 0 140 53t114 132.5 t82.5 171.5t52.5 172.5t17 132.5q0 103 -44.5 158t-144.5 55q-86 0 -163 -74t-126 -181t-77.5 -219t-28.5 -196zM346 1180q13 90 72 146t133 56q23 0 45.5 -6.5t32 -10.5t33.5 -17l79 -43q64 -23 88 -23q46 0 81 34.5t51 72.5h26q-5 -25 -17.5 -56t-35.5 -67.5t-62 -61 t-86 -24.5q-67 0 -127 32l-53 29q-7 4 -25.5 14t-26.5 13.5t-22 7.5t-28 4q-49 0 -84 -33.5t-45 -66.5h-29z" />
<glyph unicode="&#xf6;" horiz-adv-x="985" d="M0 322q0 119 51 229.5t130 186.5t175 121.5t185 45.5q77 0 139 -32.5t98.5 -84.5t56 -111.5t19.5 -119.5q0 -92 -33 -182t-89 -160.5t-125 -125.5t-144 -84.5t-144 -29.5q-142 0 -230.5 102t-88.5 245zM135 207q0 -101 48.5 -153t129.5 -52q73 0 140 53t114 132.5 t82.5 171.5t52.5 172.5t17 132.5q0 103 -44.5 158t-144.5 55q-86 0 -163 -74t-126 -181t-77.5 -219t-28.5 -196zM385 1362q0 41 27.5 68.5t68.5 27.5t69 -27.5t28 -68.5t-28 -68.5t-69 -27.5t-68.5 27.5t-27.5 68.5zM762 1362q0 41 27.5 68.5t68.5 27.5t68.5 -27.5 t27.5 -68.5t-27.5 -68.5t-68.5 -27.5t-68.5 27.5t-27.5 68.5z" />
<glyph unicode="&#xf7;" horiz-adv-x="1214" d="M27 473v37h983v-37h-983zM422 176q0 41 27.5 68.5t68.5 27.5t68.5 -27.5t27.5 -68.5t-27.5 -68.5t-68.5 -27.5t-68.5 27.5t-27.5 68.5zM422 807q0 41 27.5 68.5t68.5 27.5t68.5 -27.5t27.5 -68.5t-27.5 -68.5t-68.5 -27.5t-68.5 27.5t-27.5 68.5z" />
<glyph unicode="&#xf8;" horiz-adv-x="985" d="M0 322q0 119 51 229.5t130 186.5t175 121.5t185 45.5q61 0 125 -28l79 137l25 -15l-80 -135q81 -47 122.5 -131t41.5 -176t-33 -182t-89 -160.5t-125 -125.5t-144 -84.5t-144 -29.5t-135 29l-82 -139l-24 14l82 139q-74 44 -117 126.5t-43 177.5zM135 207q0 -97 47 -150 l465 789q-47 31 -117 31q-86 0 -163 -74t-126 -181t-77.5 -219t-28.5 -196zM205 37q47 -35 108 -35q73 0 140 53t114 132.5t82.5 171.5t52.5 172.5t17 132.5q0 110 -51 161z" />
<glyph unicode="&#xf9;" horiz-adv-x="1062" d="M29 135q0 14 4.5 36t9 35.5t14 42.5t11.5 34l200 567h-182l8 29h330l-236 -676q-32 -91 -32 -127q0 -32 16.5 -53t50.5 -21q71 0 161 70t165.5 176t112.5 211l145 420h143l-241 -695q-31 -91 -31 -123q0 -26 14.5 -42.5t42.5 -16.5q42 0 86.5 38t70 76.5t38.5 69.5 l24 -10q-38 -75 -67 -109q-78 -92 -189 -92q-147 0 -147 121q0 61 33 140l-4 4q-40 -50 -71.5 -85t-81.5 -82t-103.5 -72.5t-104.5 -25.5q-89 0 -139.5 41.5t-50.5 118.5zM410 1413q0 30 17.5 48t51.5 18q18 0 33.5 -9.5t22 -18t20.5 -28.5l203 -293h-31l-272 216 q-45 36 -45 67z" />
<glyph unicode="&#xfa;" horiz-adv-x="1062" d="M29 135q0 14 4.5 36t9 35.5t14 42.5t11.5 34l200 567h-182l8 29h330l-236 -676q-32 -91 -32 -127q0 -32 16.5 -53t50.5 -21q71 0 161 70t165.5 176t112.5 211l145 420h143l-241 -695q-31 -91 -31 -123q0 -26 14.5 -42.5t42.5 -16.5q42 0 86.5 38t70 76.5t38.5 69.5 l24 -10q-38 -75 -67 -109q-78 -92 -189 -92q-147 0 -147 121q0 61 33 140l-4 4q-40 -50 -71.5 -85t-81.5 -82t-103.5 -72.5t-104.5 -25.5q-89 0 -139.5 41.5t-50.5 118.5zM578 1130l282 285q34 34 55.5 49t45.5 15q26 0 43.5 -17t17.5 -43q0 -25 -16.5 -44.5t-71.5 -51.5 l-328 -193h-28z" />
<glyph unicode="&#xfb;" horiz-adv-x="1062" d="M29 135q0 14 4.5 36t9 35.5t14 42.5t11.5 34l200 567h-182l8 29h330l-236 -676q-32 -91 -32 -127q0 -32 16.5 -53t50.5 -21q71 0 161 70t165.5 176t112.5 211l145 420h143l-241 -695q-31 -91 -31 -123q0 -26 14.5 -42.5t42.5 -16.5q42 0 86.5 38t70 76.5t38.5 69.5 l24 -10q-38 -75 -67 -109q-78 -92 -189 -92q-147 0 -147 121q0 61 33 140l-4 4q-40 -50 -71.5 -85t-81.5 -82t-103.5 -72.5t-104.5 -25.5q-89 0 -139.5 41.5t-50.5 118.5zM367 1130l329 345h76l180 -345h-28l-207 218l-318 -218h-32z" />
<glyph unicode="&#xfc;" horiz-adv-x="1062" d="M29 135q0 14 4.5 36t9 35.5t14 42.5t11.5 34l200 567h-182l8 29h330l-236 -676q-32 -91 -32 -127q0 -32 16.5 -53t50.5 -21q71 0 161 70t165.5 176t112.5 211l145 420h143l-241 -695q-31 -91 -31 -123q0 -26 14.5 -42.5t42.5 -16.5q42 0 86.5 38t70 76.5t38.5 69.5 l24 -10q-38 -75 -67 -109q-78 -92 -189 -92q-147 0 -147 121q0 61 33 140l-4 4q-40 -50 -71.5 -85t-81.5 -82t-103.5 -72.5t-104.5 -25.5q-89 0 -139.5 41.5t-50.5 118.5zM424 1362q0 41 27.5 68.5t68.5 27.5t68.5 -27.5t27.5 -68.5t-27.5 -68.5t-68.5 -27.5t-68.5 27.5 t-27.5 68.5zM801 1362q0 41 27.5 68.5t68.5 27.5t68.5 -27.5t27.5 -68.5t-27.5 -68.5t-68.5 -27.5t-68.5 27.5t-27.5 68.5z" />
<glyph unicode="&#xfd;" horiz-adv-x="948" d="M-276 -381q0 88 96 88q27 0 43 -13.5t16 -37.5q0 -22 -10 -46t-10 -52q0 -23 19 -37.5t50 -14.5q57 0 120.5 74.5t115 192t85.5 277t34 315.5q0 512 -95 512q-101 0 -155 -242l-29 8q29 113 54 159q57 102 153 103q62 0 108.5 -33t71 -86.5t36 -109t11.5 -111.5 q0 -175 -45 -395h4l314 565q48 87 74 116q51 54 120 54q46 0 67 -22.5t21 -57.5q0 -39 -24.5 -63.5t-65.5 -24.5q-39 0 -39 37q0 16 11.5 34t11.5 30q0 29 -29 26q-25 -2 -54 -36t-73 -113l-373 -676l-118 -221q-40 -74 -74.5 -128t-78.5 -106t-91.5 -79t-97.5 -27 q-79 0 -126.5 38t-47.5 103zM520 1130l283 285q35 35 55.5 49.5t44.5 14.5q26 0 44 -17t18 -43q0 -25 -16.5 -44.5t-71.5 -51.5l-328 -193h-29z" />
<glyph unicode="&#xfe;" horiz-adv-x="1099" d="M-360 -571l8 28h147l735 2071h-186l8 28h326l-291 -806h4q17 24 40 48t56.5 49.5t77.5 41.5t90 16q97 0 166.5 -51t101 -131t31.5 -178q0 -68 -26 -146t-76.5 -153t-116.5 -135.5t-153.5 -98t-180.5 -37.5q-80 0 -137.5 53t-70.5 140h-5l-249 -711h172l-9 -28h-462z M207 217q9 -43 21.5 -77.5t34.5 -67.5t58.5 -51.5t84.5 -18.5q81 0 159 72t130 175.5t84 215.5t32 197q0 97 -37.5 156t-122.5 59q-38 0 -75.5 -14.5t-63 -32t-56 -49.5t-43 -48t-35.5 -47l-9 -12z" />
<glyph unicode="&#xff;" horiz-adv-x="948" d="M-276 -381q0 88 96 88q27 0 43 -13.5t16 -37.5q0 -22 -10 -46t-10 -52q0 -23 19 -37.5t50 -14.5q57 0 120.5 74.5t115 192t85.5 277t34 315.5q0 512 -95 512q-101 0 -155 -242l-29 8q29 113 54 159q57 102 153 103q62 0 108.5 -33t71 -86.5t36 -109t11.5 -111.5 q0 -175 -45 -395h4l314 565q48 87 74 116q51 54 120 54q46 0 67 -22.5t21 -57.5q0 -39 -24.5 -63.5t-65.5 -24.5q-39 0 -39 37q0 16 11.5 34t11.5 30q0 29 -29 26q-25 -2 -54 -36t-73 -113l-373 -676l-118 -221q-40 -74 -74.5 -128t-78.5 -106t-91.5 -79t-97.5 -27 q-79 0 -126.5 38t-47.5 103zM346 1362q0 41 27.5 68.5t68.5 27.5t69 -27.5t28 -68.5t-28 -68.5t-69 -27.5t-68.5 27.5t-27.5 68.5zM723 1362q0 41 27.5 68.5t68.5 27.5t68.5 -27.5t27.5 -68.5t-27.5 -68.5t-68.5 -27.5t-68.5 27.5t-27.5 68.5z" />
<glyph unicode="&#x152;" horiz-adv-x="2123" d="M139 547q0 97 29.5 203t83 208.5t133 195t174 163t213.5 112t244 41.5q69 0 170.5 -6t142.5 -6h90h731l-122 -348h-29q20 82 20 158q0 162 -153 162h-381l-230 -633h181q27 0 52 6t47.5 19t41 25.5t37 33.5t30.5 35t27.5 39t22 35t19 33.5t13.5 25.5h25l-203 -570h-26 q18 70 18 127q0 162 -168 162h-125l-266 -739h416q43 0 85.5 13t75 31.5t67 50t56.5 56.5t49.5 64t39.5 59.5t32.5 56t24.5 41.5h28l-143 -401h-797h-53q-36 0 -108 -5t-88 -5q-249 0 -388 153t-139 404zM303 375q0 -101 26 -172t76 -111.5t113.5 -58t147.5 -17.5 q61 0 131 17l499 1384q-38 11 -107 18t-116 7q-212 0 -354 -113q-95 -78 -177 -209t-132.5 -268.5t-78.5 -264t-28 -212.5z" />
<glyph unicode="&#x153;" horiz-adv-x="1554" d="M14 322q0 119 51 229.5t130 186.5t175 121.5t185 45.5q53 0 97 -14.5t73 -35t54.5 -53t39.5 -59t29 -63.5q30 32 52 54.5t65.5 57.5t83.5 57t95 39t111 17q91 0 160.5 -39.5t69.5 -113.5q0 -62 -42.5 -112.5t-102.5 -79.5t-131.5 -48.5t-122.5 -26t-82 -6.5q-81 0 -125 8 q-54 -153 -54 -266q0 -107 56 -163t147 -56q41 0 80.5 13t66.5 29t57.5 45t43.5 45t36 47t25 34l25 -14q-5 -6 -22.5 -30t-34.5 -46.5t-48 -51t-65 -49t-84.5 -35t-106.5 -14.5q-71 0 -128 20t-90.5 52.5t-51.5 59.5t-29 55q-64 -73 -164 -130t-204 -57q-142 0 -231 102 t-89 245zM150 207q0 -101 48.5 -153t129.5 -52q73 0 140 53t113.5 132.5t82 171.5t52.5 172.5t17 132.5q0 104 -44 158.5t-144 54.5q-86 0 -163.5 -74t-126 -181t-77 -219t-28.5 -196zM889 516q41 -8 104 -8q146 0 255.5 82t109.5 188q0 44 -26.5 71.5t-80.5 27.5 q-60 0 -120.5 -36t-106.5 -93t-80.5 -116.5t-54.5 -115.5z" />
<glyph unicode="&#x178;" horiz-adv-x="1327" d="M106 0l9 29h229l225 633l-145 768h-223l8 28h631l-9 -28h-227l133 -703l625 703h-201l8 28h402l-8 -28h-160l-651 -736l-240 -665h236l-9 -29h-633zM729 1772q0 41 27.5 68.5t68.5 27.5t69 -27.5t28 -68.5t-28 -69t-69 -28t-68.5 28t-27.5 69zM1106 1772q0 41 27.5 68.5 t68.5 27.5t68.5 -27.5t27.5 -68.5t-27.5 -69t-68.5 -28t-68.5 28t-27.5 69z" />
<glyph unicode="&#x2c6;" d="M119 1130l330 345h75l181 -345h-29l-207 218l-317 -218h-33z" />
<glyph unicode="&#x2dc;" d="M137 1180q13 90 72 146t133 56q23 0 45.5 -6.5t32 -10.5t33.5 -17l79 -43q64 -23 89 -23q45 0 80 34.5t51 72.5h26q-5 -25 -17.5 -56t-35 -67.5t-61.5 -61t-86 -24.5q-67 0 -127 32l-54 29q-7 4 -25.5 14t-26.5 13.5t-22 7.5t-28 4q-49 0 -84 -33.5t-45 -66.5h-29z" />
<glyph unicode="&#x2000;" horiz-adv-x="964" />
<glyph unicode="&#x2001;" horiz-adv-x="1929" />
<glyph unicode="&#x2002;" horiz-adv-x="964" />
<glyph unicode="&#x2003;" horiz-adv-x="1929" />
<glyph unicode="&#x2004;" horiz-adv-x="643" />
<glyph unicode="&#x2005;" horiz-adv-x="482" />
<glyph unicode="&#x2006;" horiz-adv-x="321" />
<glyph unicode="&#x2007;" horiz-adv-x="321" />
<glyph unicode="&#x2008;" horiz-adv-x="241" />
<glyph unicode="&#x2009;" horiz-adv-x="385" />
<glyph unicode="&#x200a;" horiz-adv-x="107" />
<glyph unicode="&#x2010;" horiz-adv-x="757" d="M106 377l33 123h357l-33 -123h-357z" />
<glyph unicode="&#x2011;" horiz-adv-x="757" d="M106 377l33 123h357l-33 -123h-357z" />
<glyph unicode="&#x2012;" horiz-adv-x="757" d="M106 377l33 123h357l-33 -123h-357z" />
<glyph unicode="&#x2013;" horiz-adv-x="1024" d="M-53 430l8 29h1022l-8 -29h-1022z" />
<glyph unicode="&#x2014;" horiz-adv-x="2048" d="M211 430l8 29h1516l-9 -29h-1515z" />
<glyph unicode="&#x2018;" d="M326 1212q0 67 26.5 125t61.5 93.5t81 65t73 41t50 19.5l9 -26q-30 -12 -57 -27.5t-65.5 -43t-61.5 -67t-23 -83.5q0 -40 10 -70q14 5 23 10q20 4 36 4q36 0 58 -25.5t22 -58.5q0 -51 -27.5 -79.5t-80.5 -28.5q-61 0 -98 42t-37 109z" />
<glyph unicode="&#x2019;" d="M326 1087q29 12 56.5 27.5t65.5 43.5t61 67.5t23 83.5q0 39 -10 69q-12 -4 -22 -10q-20 -4 -37 -4q-36 0 -58 25.5t-22 58.5q0 50 28 79t81 29q61 0 98 -42t37 -109t-26.5 -125t-61.5 -93.5t-81.5 -65t-73.5 -41t-50 -19.5z" />
<glyph unicode="&#x201a;" d="M-14 -301q204 92 204 221q0 40 -10 70q-12 -4 -22 -10q-25 -5 -37 -5q-36 0 -58 24.5t-22 57.5q0 51 28 80t81 29q61 0 98 -42.5t37 -109.5q0 -65 -27 -122.5t-61.5 -93t-81.5 -65.5t-72.5 -41.5t-48.5 -19.5z" />
<glyph unicode="&#x201c;" horiz-adv-x="909" d="M360 1212q0 67 26.5 125t61.5 93.5t81.5 65t73.5 41t50 19.5l9 -26q-30 -12 -57 -27.5t-65.5 -43t-61.5 -67t-23 -83.5q0 -40 10 -70q12 4 22 10q20 4 37 4q36 0 58 -25.5t22 -58.5q0 -51 -27.5 -79.5t-80.5 -28.5q-61 0 -98.5 42t-37.5 109zM682 1212q0 67 26.5 125 t61.5 93.5t81.5 65t73.5 41t50 19.5l8 -26q-30 -12 -57 -27.5t-65.5 -43t-61.5 -67t-23 -83.5q0 -40 10 -70q14 5 23 10q20 4 37 4q36 0 58 -25.5t22 -58.5q0 -50 -28 -79t-81 -29q-61 0 -98 42t-37 109z" />
<glyph unicode="&#x201d;" horiz-adv-x="909" d="M360 1087q29 12 57 27.5t66 43.5t61 67.5t23 83.5q0 39 -10 69q-12 -4 -22 -10q-20 -4 -37 -4q-36 0 -58 25.5t-22 58.5q0 51 27.5 79.5t80.5 28.5q61 0 98.5 -42t37.5 -109t-26.5 -125t-61.5 -93.5t-81.5 -65t-73.5 -41t-50 -19.5zM682 1087q29 12 57 27.5t66 43.5 t61 67.5t23 83.5q0 39 -10 69q-14 -5 -23 -10q-20 -4 -37 -4q-36 0 -58 25.5t-22 58.5q0 50 28 79t81 29q61 0 98 -42t37 -109t-26.5 -125t-61.5 -93.5t-81.5 -65t-73.5 -41t-50 -19.5z" />
<glyph unicode="&#x201e;" horiz-adv-x="909" d="M-10 -301q205 92 205 221q0 37 -11 70q-12 -4 -22 -10q-25 -5 -37 -5q-36 0 -58 24.5t-22 57.5q0 51 28 80t81 29q61 0 98 -42.5t37 -109.5q0 -65 -27 -122.5t-61.5 -93t-81.5 -65.5t-72.5 -41.5t-48.5 -19.5zM309 -301q30 12 57 27.5t65.5 43t61.5 67t23 83.5 q0 40 -10 70q-14 -5 -23 -10q-25 -5 -37 -5q-36 0 -57.5 24.5t-21.5 57.5q0 51 27.5 80t80.5 29q61 0 98 -42.5t37 -109.5q0 -65 -26.5 -122.5t-61.5 -93t-81.5 -65.5t-73.5 -42t-50 -19z" />
<glyph unicode="&#x2022;" horiz-adv-x="1024" d="M147 729q0 152 106.5 258.5t258.5 106.5t258.5 -106.5t106.5 -258.5t-106.5 -258t-258.5 -106t-258.5 106t-106.5 258z" />
<glyph unicode="&#x2026;" horiz-adv-x="2048" d="M246 70q0 41 27.5 68.5t68.5 27.5t68.5 -27.5t27.5 -68.5t-27.5 -68t-68.5 -27t-68.5 27t-27.5 68zM928 70q0 41 27.5 68.5t68.5 27.5t68.5 -27.5t27.5 -68.5t-27.5 -68t-68.5 -27t-68.5 27t-27.5 68zM1610 70q0 41 27.5 68.5t68.5 27.5t68.5 -27.5t27.5 -68.5t-27.5 -68 t-68.5 -27t-68.5 27t-27.5 68z" />
<glyph unicode="&#x202f;" horiz-adv-x="385" />
<glyph unicode="&#x2039;" d="M41 430q0 73 35.5 132t92 94.5t118 55t123.5 23.5v-28q-107 -8 -185 -97.5t-78 -238.5q0 -120 125 -185l-12 -28q-12 3 -32.5 11.5t-55 30.5t-62 50.5t-48.5 76.5t-21 103z" />
<glyph unicode="&#x203a;" d="M-27 158v28q104 8 182 97.5t78 238.5q0 121 -124 185l12 28q1 -1 16 -7t29 -12t35 -19t39 -27t37 -35.5t32.5 -45.5t22 -57t8.5 -69q0 -59 -24 -109t-62 -84t-87 -59t-98 -37.5t-96 -15.5z" />
<glyph unicode="&#x205f;" horiz-adv-x="482" />
<glyph unicode="&#x20ac;" horiz-adv-x="987" d="M-47 600l14 29h119q18 119 57 217h-127l17 28h121q69 188 182 336q169 232 391 232q44 0 82.5 -10.5t50 -16.5t39.5 -22q48 -29 76 -29q44 0 78 43h24l-96 -358h-16q4 57 -5 122t-28 109q-59 133 -197 133q-77 0 -128 -32.5t-99 -100.5q-104 -149 -186 -406h550l-16 -28 h-543q-43 -134 -61 -217h477l-16 -29h-465q-21 -74 -38 -186t-17 -181q0 -46 9 -85.5t27.5 -73.5t52 -54t78.5 -20q57 0 123 26t117 64q28 21 55.5 52t46 56.5t42 66.5t33.5 60t30 60h18l-102 -383h-25q-14 26 -24.5 33.5t-34.5 7.5q-10 0 -18.5 -1t-19 -4t-15 -4.5 t-19 -7.5t-18.5 -8q-65 -26 -101.5 -35.5t-78.5 -9.5q-133 0 -201 68q-12 12 -24.5 30t-34 58.5t-35 105.5t-13.5 142q0 121 21 223h-129z" />
<glyph unicode="&#x2122;" horiz-adv-x="2009" d="M295 1247v211h684v-211h-18q-14 53 -35.5 91t-41 56.5t-46 28.5t-42 11.5t-38.5 1.5h-62v-754h117v-23h-350v23h115v754h-62q-15 0 -25 -0.5t-28.5 -4.5t-32.5 -11t-32 -21t-32.5 -33.5t-28.5 -50t-24 -68.5h-18zM1040 659v23h117v754h-117v22h250l205 -592l205 592h244 v-22h-117v-754h117v-23h-351v23h115v727l-264 -760l-262 754v-721h116v-23h-258z" />
<glyph unicode="&#x25fc;" horiz-adv-x="901" d="M0 0v901h901v-901h-901z" />
<glyph unicode="&#xfb01;" horiz-adv-x="1175" d="M-498 -385q0 45 28.5 72.5t68.5 27.5q24 0 41.5 -13.5t17.5 -43.5q0 -26 -14.5 -49t-14.5 -37q0 -32 16 -49t56 -17q184 0 328 447l290 897h-190l8 29h191l55 165q34 100 91 191t131 163t167.5 115t190.5 43q105 0 158 -53t53 -119q0 -41 -27 -69.5t-80 -28.5 q-86 0 -86 60q0 32 28.5 66t28.5 61q0 55 -86 55q-121 0 -228.5 -115.5t-166.5 -284.5l-86 -249h573l-241 -695q-31 -91 -31 -123q0 -26 14.5 -42.5t42.5 -16.5q42 0 86.5 38t70 76.5t38.5 69.5l25 -10q-38 -75 -67 -109q-78 -92 -189 -92q-148 0 -148 121q0 51 25 119 l223 635h-430l-225 -703q-20 -63 -42.5 -121.5t-54.5 -127t-66.5 -127t-79.5 -114t-92.5 -94t-106 -62t-120.5 -23.5q-77 0 -125.5 34.5t-48.5 102.5z" />
<glyph unicode="&#xfb02;" horiz-adv-x="1175" d="M-530 -381q0 45 28 71.5t68 26.5q24 0 41.5 -13.5t17.5 -43.5q0 -32 -14 -53.5t-14 -38.5q0 -14 1.5 -22.5t8 -18.5t22 -14.5t39.5 -4.5q194 0 375 527l281 815h-193l8 29h195q25 77 40 120.5t42.5 108.5t55.5 110t70.5 98t94.5 101q170 152 346 152q10 0 21.5 -1 t25 -2.5t21.5 -2.5t29 -4t34 -3h164l-487 -1372q-31 -91 -31 -123q0 -26 14.5 -42.5t42.5 -16.5q31 0 64.5 21.5t59.5 53t44 60t27 49.5l24 -10q-40 -82 -77 -121q-74 -78 -179 -78q-147 0 -147 119q0 46 24 119l441 1264q0 61 -117 61q-60 0 -116 -26.5t-99 -68t-82 -98 t-65 -109.5t-48 -110l-94 -249h211l-8 -29h-213l-279 -803q-36 -102 -91.5 -200.5t-124 -181.5t-152 -134t-164.5 -51q-77 0 -131.5 34.5t-54.5 104.5z" />
</font>
</defs>
</svg>
